<svg viewBox="165.0270270270271 172.46249999999986 805.9459459459459 1168.9125000000001" xmlns="http://www.w3.org/2000/svg" overflow="visible" xmlns:xlink="http://www.w3.org/1999/xlink" width="805.9459459459459px" height="1168.9125000000001px"><g id="Master/Character/Bust" stroke="none" stroke-width="1" fill="none" fill-rule="evenodd"><g id="Body" transform="translate(147.000000, 639.000000) scale(1 1)"><g id="Body/Coffee" stroke="none" stroke-width="1" fill="none" fill-rule="evenodd"><rect id="Cup" fill="#FDEA6B" x="461" y="279" width="229" height="282"/><path d="M394.207017,3.17338772 C418.892017,-15.6236123 480.865017,-24.0766123 507.211017,-5.97761228 C533.233017,12.1973877 536.069855,41.5888511 548.195855,68.6268511 C559.636855,63.2318511 578.530447,70.9583877 581.847447,81.5743877 C585.961447,86.5813877 586.146216,100.648748 588.983216,107.379748 C712.425216,127.028748 731.166017,223.267388 746.024017,332.525388 C765.680017,443.394388 810.301017,554.021388 790.930017,668.107388 C793.454017,671.759388 795.444017,675.309388 797.284017,679.525388 C801.693017,687.027388 796.014017,697.646388 787.121017,697.235388 C775.610017,696.224388 764.213017,694.844388 752.648017,694.413388 C720.588278,693.299996 688.499261,693.432745 656.42735,693.840212 L652.054017,693.897388 C490.421017,695.909388 328.797017,699.874388 167.157017,700.92591 C161.293017,700.934388 158.422017,695.675388 159.205017,690.487388 C160.782017,680.042388 162.245017,669.592388 163.772017,659.142388 C125.540017,669.240388 84.8960175,671.781388 46.7720175,660.204388 C44.1050175,657.487388 52.9860175,658.960388 54.3950175,658.547388 C19.3090175,634.572388 29.7870175,584.065388 32.8950175,547.687388 C52.2210175,423.036388 59.0340175,285.118388 133.703017,178.751388 C166.006017,135.343388 213.365017,100.975388 267.784017,93.2423877 L269.293764,93.0356767 C285.205828,90.9140296 302.939679,90.2305877 316.852017,81.5743877 C332.49923,69.08308 339.167105,46.00245 355.628632,45.7863847 C361.06431,45.7150388 368.458807,52.5915618 376.416017,57.2603877 C377.01004,46.9897486 382.545009,38.3222537 383.767065,30.358889 L383.86599,29.6778754 C385.14118,20.3936924 383.394763,12.0408852 394.207017,3.17338772 Z M659.495297,335.818614 C624.804565,311.719109 535.1916,323.828161 533.140143,325.177637 C528.623143,328.148637 526.678017,328.411388 524.235017,332.269388 C521.823017,332.589388 519.413017,332.921388 517.005017,333.263388 C512.174017,334.841388 515.754017,340.783388 521.334017,338.663388 C517.977768,353.137685 527.854893,363.431367 531.787017,377.740773 C533.063751,382.386936 531.833098,390.743134 531.787017,395.490388 C532.168342,401.543287 538.860548,408.693008 537.745186,414.765623 C533.779882,436.354816 512.261842,457.414706 521.334017,478.351576 C527.344017,490.176576 545.420017,496.206388 557.438017,500.226388 C582.337017,509.782388 625.721229,499.866576 640.188229,478.351576 C647.904711,466.875795 656.844613,437.928116 661.445613,428.949116 L662.465404,414.705533 C664.980344,379.298715 667.217404,341.183129 659.495297,335.818614 Z" id="Skin" fill="#ffdbb4"/><path d="M354.34521,45.8506711 L364.273041,51.9428436 L421.931257,80.4449923 C433.109106,83.5746757 438.69803,87.3255981 438.69803,91.6977595 L438.69803,136.216897 C438.69803,142.174517 449.187526,155.676664 470.166517,176.723337 L489.548223,157.401666 L489.114881,154.872008 C487.270547,143.971712 486.34838,136.680179 486.34838,132.997409 C486.34838,129.036695 505.310106,114.001208 543.233559,87.8909498 L559.824515,72.2711686 L558.055625,66.8913501 C568.28536,67.3748239 579.379133,73.6745929 581.847447,81.5743877 C585.961447,86.5813877 586.146216,100.648748 588.983216,107.379748 C712.425216,127.028748 731.166017,223.267388 746.024017,332.525388 C765.680017,443.394388 810.301017,554.021388 790.930017,668.107388 C793.454017,671.759388 795.444017,675.309388 797.284017,679.525388 C801.693017,687.027388 796.014017,697.646388 787.121017,697.235388 C775.610017,696.224388 764.213017,694.844388 752.648017,694.413388 C720.588278,693.299996 688.499261,693.432745 656.42735,693.840212 L652.054017,693.897388 C490.421017,695.909388 328.797017,699.874388 167.157017,700.92592 C161.293017,700.934388 158.422017,695.675388 159.205017,690.487388 C160.782017,680.042388 162.245017,669.592388 163.772017,659.142388 C125.540017,669.240388 84.8960175,671.781388 46.7720175,660.204388 C44.1050175,657.487388 52.9860175,658.960388 54.3950175,658.547388 C19.3090175,634.572388 29.7870175,584.065388 32.8950175,547.687388 C52.2210175,423.036388 59.0340175,285.118388 133.703017,178.751388 C166.006017,135.343388 213.365017,100.975388 267.784017,93.2423877 L269.293764,93.0356767 L270.814526,92.8376623 C286.327935,90.8626014 303.381341,89.9557877 316.852017,81.5743877 C332.086209,69.4127984 338.808841,47.2135369 354.34521,45.8506711 Z M492.502284,307.156233 C486.847075,307.156233 475.265223,315.938335 457.756729,333.50254 L456.214298,334.215475 C435.049475,344.046356 421.028345,352.574236 414.150907,359.799118 L413.905436,360.059691 C406.957776,367.51318 393.19938,387.333028 372.630249,419.519233 L342.843581,437.134242 L331.573175,437.134242 L323.549046,495.337988 L342.843581,536.897302 L386.547386,522.175978 L457.756729,503.406604 L498.618679,461.951208 L521.668835,454.213052 C518.872405,462.292506 517.858643,470.331068 521.334017,478.351576 C527.344017,490.176576 545.420017,496.206388 557.438017,500.226388 C582.337017,509.782388 625.721229,499.866576 640.188229,478.351576 C647.904711,466.875795 656.844613,437.928116 661.445613,428.949116 L662.765244,410.445982 C665.143374,376.30187 666.90852,340.968548 659.495297,335.818614 C624.804565,311.719109 535.1916,323.828161 533.140143,325.177637 C528.623143,328.148637 526.678017,328.411388 524.235017,332.269388 L522.970432,332.438671 L530.082173,322.793608 L527.564018,321.449107 C509.596157,311.920524 497.908912,307.156233 492.502284,307.156233 Z M521.334017,338.663388 C518.120877,352.520508 527.036641,362.54593 531.253086,375.931601 L520.479517,355.307747 L520.479408,338.930764 C520.75825,338.862334 521.043421,338.773793 521.334017,338.663388 Z" id="Top" fill="#9DDADB"/><path d="M349.584517,43.6984877 C351.979517,41.5774877 355.523517,44.2424877 354.001517,47.1074877 C350.581517,53.5464877 347.073517,59.6474877 342.483517,65.3394877 C339.700517,68.7904877 336.719517,72.0544877 333.698517,75.2824877 C341.451517,81.9894877 348.100517,90.3164877 354.379517,98.1204877 C362.408517,108.101488 369.999517,118.505488 379.012517,127.638488 C387.901283,136.645679 397.729749,142.942015 409.613561,147.140633 L412.013721,147.974286 C423.951928,152.165365 436.711387,157.82527 443.440517,169.128488 C444.767517,171.357488 442.095517,174.111488 439.849517,172.720488 C428.156517,165.480488 414.417517,164.024488 401.689517,159.240488 C389.394517,154.619488 378.676517,147.507488 369.206517,138.430488 C359.752517,129.368488 351.814517,119.058488 343.534517,108.966488 C335.346517,98.9874877 326.530517,90.4644877 316.845517,82.0214877 C301.899991,92.0758737 284.840037,96.4508198 267.492975,100.74777 L265.599517,101.216488 C248.231517,105.516488 230.956517,110.510488 214.662517,117.998488 C200.296517,124.599488 186.166517,132.482488 174.464517,143.224488 C162.042517,154.624488 152.374517,169.184488 143.525517,183.423488 C123.731517,215.279488 109.815517,250.179488 97.5645175,285.503488 C84.8225175,322.245488 74.1645175,359.723488 65.5605175,397.646488 C61.1845175,416.936488 57.6305175,436.363488 54.7095175,455.926488 C53.3035175,465.348488 52.0545175,474.790488 50.9575175,484.253488 C49.7865175,494.358488 49.5175175,504.754488 46.4175175,514.470488 C45.0885175,518.634488 41.9505175,520.362488 38.8095175,520.215488 L38.1715415,528.194256 C37.3255575,538.832208 36.5369175,549.473488 36.2705175,560.177488 C35.8286044,577.975488 36.0289749,595.722251 37.3092061,613.48254 L37.4905175,615.904488 C38.4965175,628.866488 40.7445175,643.430488 50.4915175,652.921488 C60.5855175,662.751488 76.1085175,665.842488 89.7135175,666.019488 C121.400517,666.432488 151.902517,651.460488 179.942517,638.325488 C208.820517,624.798488 236.909517,609.783488 264.325517,593.499488 C278.287517,585.206488 292.098517,576.637488 305.733517,567.818488 C312.424517,563.489488 319.068517,559.087488 325.662517,554.614488 C329.439517,552.052488 333.018517,549.243488 336.863517,546.970488 C334.979517,545.216488 334.138517,542.458488 335.716517,540.050488 C324.601517,530.402488 319.975517,513.185488 319.434517,499.254488 C318.997517,488.009488 320.652517,476.796488 321.958517,465.657488 C322.617517,460.040488 323.431517,454.433488 324.276517,448.841488 C324.610517,446.632488 324.865517,444.269488 325.255517,441.937488 C295.242517,458.430488 264.388517,473.118488 232.717517,486.167488 C216.483517,492.856488 200.041517,498.870488 183.372517,504.381488 L179.993972,505.493103 C164.200055,510.662985 148.028251,515.546621 131.700517,518.502488 C130.827517,518.660488 130.118517,517.371488 131.050517,516.960488 C146.962517,509.939488 163.425517,504.017488 179.576517,497.551488 L182.230517,496.470488 L182.230517,496.470488 C181.925517,496.453488 181.609517,496.411488 181.279517,496.332488 C171.807517,494.046488 162.409517,490.523488 153.119517,487.557488 C144.497517,484.804488 134.810517,483.075488 126.751517,478.919488 C126.131517,478.599488 126.478517,477.737488 127.082517,477.696488 C136.140517,477.068488 145.973517,479.708488 154.854517,481.261488 L158.190814,481.84589 C163.779795,482.831377 169.492851,483.890821 175.054517,485.272488 C175.255517,483.409488 176.296517,481.538488 177.777517,480.441488 C194.074517,468.372488 192.419517,443.996488 194.162517,426.021488 L195.455006,412.676462 C197.728429,389.321229 200.133517,365.969128 203.787517,342.788488 C203.982517,341.550488 205.897517,341.905488 205.905517,343.074488 C206.093979,371.809103 203.924822,400.411507 202.837574,429.101281 L202.669216,433.807744 C202.068138,451.510533 201.597052,469.892813 190.447517,483.514488 C192.006517,482.603488 194.114517,482.603488 195.377517,484.105488 C196.929517,485.952488 197.825517,488.026488 197.797517,490.061488 C207.872517,485.837488 217.903517,481.503488 227.885517,477.081488 C259.978517,462.863488 291.398517,446.952488 321.987517,429.736488 C325.279517,427.883488 328.408517,429.339488 330.036517,431.782488 L330.27148,431.748784 C330.31074,431.743488 330.350517,431.739488 330.391517,431.738488 L330.624517,431.728488 C330.633517,431.728488 330.642517,431.729488 330.650517,431.729488 C334.956517,429.363488 340.822517,431.048488 344.517517,434.499488 C344.626517,434.603488 344.719517,434.715488 344.816517,434.825488 C349.494517,432.725488 353.862517,429.890488 357.826517,426.297488 C365.938517,418.945488 372.809517,409.854488 378.799517,400.738488 C389.830517,383.948488 399.200517,365.277488 414.101517,351.456488 C426.208517,340.227488 441.218517,333.236488 456.965517,328.847488 C456.899517,328.387488 457.075517,327.897488 457.393517,327.571488 C458.202517,326.742488 458.779517,326.455488 459.824517,326.958488 C459.907517,326.999488 459.957517,327.055488 459.991517,327.115488 L461.528134,324.490015 C462.366879,323.065413 463.228138,321.630419 463.526517,321.253488 C465.314517,319.002488 467.154517,316.768488 469.022517,314.581488 C472.189517,310.878488 475.798517,307.224488 479.977517,304.656488 C489.127517,299.035488 498.746517,302.216488 508.153517,305.288488 C513.837517,307.145488 519.502517,309.062488 525.176517,310.947488 L525.761817,311.138618 C529.992678,312.497968 534.943517,313.686977 536.835517,318.169488 C537.584517,319.943488 537.700517,321.784488 537.351517,323.570488 C577.535517,313.351488 622.167517,318.046488 661.380517,330.042488 C662.885517,330.502488 664.388517,331.740488 664.705517,333.366488 C669.198517,356.407488 671.199517,380.036488 669.166517,403.470488 C667.412517,423.698488 662.930517,443.521488 654.484517,462.040488 L654.00433,463.086094 C646.066795,480.248597 633.486417,501.405268 614.273517,506.784488 C602.672517,510.032488 589.841517,508.117488 578.009517,507.522488 C566.510517,506.943488 554.756517,506.859488 543.366517,505.051488 C533.222517,503.441488 524.334517,498.894488 518.065517,490.646488 C512.657517,483.530488 509.809517,474.930488 507.476517,466.375488 C506.408517,466.715488 505.347517,467.076488 504.303517,467.485488 C499.896517,469.206488 496.162517,471.984488 492.786517,475.253488 C485.657517,482.157488 480.127517,490.542488 472.668517,497.130488 C465.916517,503.094488 458.222517,507.732488 449.969517,511.298488 C432.868222,518.687647 414.522481,521.640543 396.43313,525.556641 L395.171517,525.831488 C381.553517,528.819488 367.653517,532.488488 355.633517,539.578488 C355.398517,541.665488 354.447517,543.629488 352.923517,544.915488 C355.043517,546.906488 355.941517,550.059488 354.078517,553.017488 C348.874645,561.275956 339.911017,565.974869 331.863977,571.256186 L331.340517,571.601488 C323.424517,576.849488 315.439517,581.993488 307.389517,587.032488 C291.024517,597.278488 274.317517,606.960488 257.374517,616.216488 C230.123517,631.103488 202.287517,645.146488 173.947517,657.884488 C175.648517,666.252988 175.026978,674.882079 176.305491,683.306449 L176.501517,684.508488 C177.047684,687.634688 176.309924,690.250681 174.156356,692.293237 L173.928517,692.502488 L173.932517,692.474488 L173.730517,692.659488 L173.663,692.716038 L173.685517,692.698488 C173.437267,692.925738 173.181142,693.137238 172.920096,693.318644 L172.587517,693.532488 L172.587517,693.532488 C170.513295,694.793006 167.842821,694.77849 165.719074,693.665745 L165.476517,693.532488 L165.068517,693.298488 C162.262517,691.684488 160.327517,687.685488 161.491517,684.508488 C164.352517,676.700488 165.433517,668.367488 168.075517,660.507488 L165.979517,661.444488 L165.979517,661.444488 L163.216955,662.648558 C133.339024,675.568296 100.150687,686.448088 67.5965175,677.640488 C53.2125175,673.747488 39.7685175,665.513488 32.5715175,652.092488 C25.4895175,638.886488 24.4885175,623.552488 24.1125175,608.862488 C23.6485175,590.731488 24.6205175,572.323488 27.0115175,554.348488 C28.6165175,542.282488 30.5575175,529.988488 33.5515175,518.047488 C32.0115175,516.688488 30.8795175,514.739488 30.5805175,512.325488 C29.1675175,500.920488 31.6405175,489.063488 33.1545175,477.717488 C34.6335175,466.639488 36.2675175,455.583488 38.1155175,444.561488 C41.8465175,422.302488 46.1815175,400.090488 51.2285175,378.092488 C60.2105175,338.941488 72.0715175,300.486488 86.3515175,262.950488 L87.6020569,259.680864 C100.79753,225.372121 116.075902,191.794657 137.350517,161.654488 C147.527517,147.234488 158.285517,134.160488 172.665517,123.769488 C186.137517,114.033488 201.333517,107.023488 217.015517,101.665488 C232.714517,96.3034877 248.850517,92.7104877 265.271517,90.4754877 C281.948517,88.2054877 299.551517,86.8134877 315.108517,79.9734877 C313.140517,76.4454877 314.829517,71.6824877 318.141517,69.4944877 C329.287517,62.1304877 339.594517,52.5504877 349.584517,43.6984877 Z M706.390217,363.919788 C706.857217,363.210788 707.966217,363.658788 707.761217,364.497788 C702.340217,386.706788 697.251217,408.960788 693.928217,431.593788 C687.929641,472.443483 689.033057,513.826624 689.523439,554.978455 L689.548217,557.106788 C689.800217,579.272788 690.150217,601.440788 690.883217,623.597788 C691.253217,634.795788 691.985217,646.103788 691.587217,657.307788 C691.370217,663.385788 689.750217,669.134788 689.176217,675.139788 C688.673217,680.390788 689.121217,685.722788 689.372217,690.980788 C689.540217,694.476788 684.380217,694.327788 684.029217,690.980788 L683.580418,686.65163 C682.997365,681.17297 682.276717,675.727788 680.481217,670.483788 C678.322217,664.176788 677.286217,657.982788 676.537217,651.360788 C675.389967,641.213475 674.879768,630.964499 674.436987,620.745807 L674.134217,613.677788 C672.285241,570.973555 672.350047,528.068976 675.343411,485.409472 L675.562217,482.362788 C678.526217,442.038788 683.669217,398.469788 706.390217,363.919788 Z M590.835317,109.773088 C589.419317,109.191088 589.915317,107.050088 591.483317,107.423088 L594.334869,108.103285 C615.229442,113.107995 635.744796,118.530392 655.247317,127.843088 C674.762317,137.161088 691.284317,151.072088 704.412317,168.178088 C729.932317,201.429088 740.537317,241.839088 748.909317,282.211088 C758.213317,327.072088 766.684317,372.097088 776.069317,416.944088 L777.812091,425.297826 C786.496103,467.067431 794.695067,508.860713 800.736317,551.125088 L801.170284,554.190421 C807.26247,597.651926 810.926904,642.618375 804.279317,686.193088 C802.964317,694.814088 788.618317,692.667088 789.179317,684.150088 C790.799317,659.527088 791.959317,635.033088 790.838317,610.355088 C789.716317,585.672088 787.401317,561.097088 783.950317,536.630088 C781.046167,516.039788 776.71697,495.705798 772.885817,475.279166 L772.285317,472.053088 C769.077317,454.679488 765.770117,437.323168 762.470213,419.965696 L757.538852,393.977767 C750.147827,355.064728 742.612217,316.117588 734.097317,277.449088 L733.592008,275.173709 C725.259184,237.971574 712.974217,199.002188 687.979317,169.460088 C662.614317,139.479088 626.303317,124.380088 590.835317,109.773088 Z M498.668317,504.370788 C499.278317,503.011788 501.412317,503.160788 502.068317,504.370788 C504.638684,509.113254 504.924334,515.166747 505.410236,520.520527 L505.461317,521.071788 C506.079317,527.604788 506.626317,534.159788 506.961317,540.713788 C507.596317,553.152788 507.900317,565.575788 507.861317,578.030788 C507.821317,590.794788 507.564317,603.543788 506.876317,616.288788 L506.689611,619.703854 C506.06153,630.779499 505.00811,643.133373 499.745317,652.815788 C497.832317,656.336788 492.629317,655.301788 491.521317,651.741788 C487.891317,640.085788 489.755317,626.265788 490.686317,614.327788 L491.409255,605.012647 C492.12513,595.696475 492.807817,586.376788 493.349317,577.049788 C494.091317,564.288788 494.703317,551.516788 495.292317,538.749788 C495.483651,534.603121 495.69054,530.455121 495.909132,526.308454 L496.245317,520.089788 C496.532317,514.887788 496.508317,509.179788 498.668317,504.370788 Z M90.5205365,520.890299 L92.1274775,519.338025 C97.0604764,514.510543 103.294284,507.075588 110.586817,507.536688 C113.494817,507.720688 115.347817,510.134688 114.744817,512.995688 C113.456817,519.111688 107.217817,522.285688 102.726817,526.019688 C97.8068175,530.108688 93.1698175,534.479688 88.5418175,538.892688 C84.4360397,542.805577 80.4874965,546.829873 76.6336803,550.979623 L75.1928175,552.541688 C73.8114021,554.049134 63.9742916,562.94683 65.0379029,565.255355 L65.0958175,565.358688 C65.3918175,565.800688 64.8988175,566.408688 64.4078175,566.253688 C60.1598175,564.911688 60.4248175,561.270688 62.0308175,557.581688 C65.1168175,550.493688 70.5208175,543.936688 75.2398175,537.883688 C79.9460675,531.84525 85.0399151,526.222535 90.5205365,520.890299 L90.5205365,520.890299 Z M514.061517,343.137488 C510.776517,335.373488 498.675517,335.536488 491.805517,336.000488 C474.505517,337.169488 455.787517,341.546488 440.394517,349.632488 C424.435871,358.015503 413.686174,371.447505 404.067576,386.300239 L403.617517,386.997488 C394.242517,401.570488 385.213517,418.821488 370.533517,428.841488 C363.056517,433.946488 354.325517,438.607488 345.253517,440.626488 C344.630517,441.721488 343.621517,442.588488 342.298517,442.903488 L341.683508,443.044224 C339.099701,443.614713 335.085594,444.246026 331.618517,443.868488 C331.641517,445.564488 331.623517,447.247488 331.666517,448.854488 C331.788517,453.459488 331.840517,458.084488 331.840517,462.692488 C331.842517,472.347488 331.323517,482.021488 331.726517,491.675488 C332.083517,500.214488 333.289517,509.136488 337.389517,516.769488 C340.396517,522.369488 344.365517,526.075488 349.156517,529.613488 C360.942517,522.430488 374.269517,518.052488 387.795517,514.760488 C404.153517,510.779488 420.902517,508.122488 436.888517,502.724488 C444.582517,500.125488 451.979517,496.724488 458.681517,492.105488 C465.794517,487.200488 471.227517,480.564488 476.817517,474.073488 L477.691264,473.065009 C483.396131,466.522234 489.620981,460.261585 497.683517,456.714488 C504.626517,453.658488 513.777517,453.114488 519.848517,448.386488 C523.022517,445.912488 523.288517,442.322488 523.622517,438.646488 C519.734517,439.202488 515.618517,438.311488 511.743517,437.857488 L509.73583,437.621835 C506.071618,437.186482 502.491671,436.707949 498.884517,435.775488 C498.214517,435.602488 498.214517,434.592488 498.884517,434.419488 C503.147517,433.318488 507.372517,432.849488 511.743517,432.337488 L512.770172,432.209455 C516.724458,431.690867 520.880797,430.908168 524.759517,431.778488 C525.455517,429.130488 526.460517,426.602488 527.870517,424.070488 C529.849517,420.513488 533.594517,416.480488 534.100517,412.325488 C534.251517,411.084488 533.962517,409.621488 533.377517,408.524488 L533.175877,408.150556 C532.930061,407.708932 532.63874,407.264821 532.212517,406.989488 C532.165517,407.044488 532.065517,407.107488 531.848517,407.175488 C528.863517,408.115488 526.259517,406.654488 524.877517,404.402488 C519.010517,405.130488 512.607517,404.885488 507.105517,405.128488 L501.542543,405.397555 C495.598418,405.670072 489.384242,405.789384 483.798517,404.588488 C483.018517,404.421488 482.782517,403.123488 483.563517,402.789488 C490.430517,399.852488 498.760517,398.915488 506.112517,397.787488 C510.218517,397.156488 514.354517,396.676488 518.472517,396.121488 C521.214517,395.751488 524.124517,395.140488 526.965517,394.993488 C534.088517,386.126488 530.250517,372.138488 520.337517,368.320488 C516.726517,369.907488 513.479517,368.984488 509.534517,368.645488 C505.596517,368.307488 501.648517,368.078488 497.694517,368.095488 C489.771517,368.130488 481.375517,370.214488 473.529517,369.317488 C472.253517,369.170488 471.067517,367.472488 472.336517,366.436488 C478.342496,361.535422 486.949832,359.937391 494.573457,358.892943 L496.153517,358.681488 C498.709517,358.346488 501.817517,357.857488 505.041517,357.566488 C505.770517,356.144488 507.078517,355.069488 509.043517,354.802488 C509.627517,354.722488 510.214517,354.675488 510.800517,354.625488 L510.791517,354.567488 L510.791517,354.567488 C515.583517,354.337488 515.375517,346.243488 514.061517,343.137488 Z M185.992517,494.562488 C185.907851,494.693154 185.815184,494.817599 185.716592,494.937303 L185.564517,495.113488 L186.352517,494.793488 L185.992517,494.562488 L185.992517,494.562488 Z M597.683517,325.788488 C577.513517,323.621488 557.314517,324.078488 537.084517,324.660488 C535.466517,329.952488 529.834517,334.462488 524.377517,334.632488 C528.651517,341.137488 529.092517,349.941488 526.095517,356.840488 C532.458517,359.373488 537.940517,363.923488 541.268517,370.403488 C545.883517,379.386488 545.279517,389.382488 540.718517,397.684488 C544.611517,401.208488 546.908517,406.931488 546.678517,412.325488 C546.421517,418.340488 542.836517,423.478488 539.857517,428.458488 C536.638517,433.844488 536.530517,438.586488 535.541517,444.618488 C534.094517,453.446488 528.140517,458.800488 520.479517,462.144488 L520.886789,463.746442 C522.861903,471.43454 525.319365,479.546705 530.964517,485.168488 C538.22639,492.400837 549.492067,492.333557 559.086594,492.791868 L559.549517,492.814488 C568.335117,493.253688 577.116877,493.768408 585.899405,494.265976 L592.486517,494.634488 C602.598517,495.190488 612.309517,495.257488 620.564517,488.572488 C634.041517,477.660488 643.280517,459.601488 649.128517,443.614488 C661.402517,410.058488 661.549517,373.233488 655.915517,338.285488 C637.020517,332.195488 617.415517,327.908488 597.683517,325.788488 Z M429.944732,381.459854 L430.093017,381.470688 C434.246017,381.944688 437.099017,385.307688 438.115017,389.296688 C439.591017,395.094688 438.867017,400.336688 442.418017,405.570688 C446.071017,410.952688 448.317017,415.261688 448.848017,421.910688 C449.066017,424.646688 448.966017,427.375688 449.575017,430.053688 L450.016608,431.929954 C450.48555,433.930615 450.869253,435.857629 450.636017,438.005688 C450.423017,439.964688 449.469017,441.490688 447.504017,442.118688 C441.101017,444.166688 436.157017,439.448688 434.503017,433.481688 C433.074017,428.327688 434.982017,422.185688 432.966017,417.345688 C431.849017,414.662688 429.789017,412.418688 428.625017,409.717688 C427.472017,407.040688 426.893017,404.243688 426.708017,401.333688 C426.357017,395.829688 431.225017,389.216688 428.509017,384.229688 C427.930673,383.165688 428.58566,381.42769 429.944732,381.459854 Z M344.892017,324.661788 C349.228017,323.780788 354.147017,321.761788 358.423017,323.439788 C360.621017,324.303788 361.707017,326.983788 359.850017,328.846788 C356.625846,332.078731 351.939924,332.258833 347.597257,333.02094 L347.215017,333.089788 C342.080017,334.039788 336.936017,334.940788 331.785017,335.794788 C322.094017,337.399788 312.380017,338.818788 302.632017,340.024788 C292.620017,341.263788 282.580017,342.366788 272.526017,343.196788 L268.633799,343.516126 C260.141013,344.195339 251.304017,344.707654 242.971017,343.406788 C241.760017,343.217788 241.955017,341.454788 242.971017,341.145788 C252.100017,338.382788 262.114017,337.641788 271.552017,336.472788 C281.586017,335.227788 291.603017,333.912788 301.594017,332.352788 C311.569017,330.794788 321.531017,329.122788 331.456017,327.274788 C335.942017,326.440788 340.421017,325.569788 344.892017,324.661788 Z M501.346517,315.790488 C497.541517,314.443488 493.355517,312.447488 489.232517,313.115488 C482.122517,314.267488 475.794517,321.194488 470.166517,325.756488 L472.992403,325.207213 C487.451736,322.428152 506.599705,319.434363 518.737517,328.627488 C518.768517,328.574488 518.792517,328.521488 518.827517,328.468488 C519.807517,326.980488 520.942517,325.819488 522.181517,324.546488 C522.299851,324.434821 522.414406,324.319488 522.527073,324.202265 L523.195517,323.490488 L521.66661,322.960847 C518.391849,321.803308 514.512301,320.308533 513.89901,320.090349 L513.856517,320.075488 C509.681517,318.661488 505.501517,317.263488 501.346517,315.790488 Z M382.544817,12.7161877 C381.949817,5.06318772 393.860817,5.12618772 394.450817,12.7161877 C395.737817,29.2861877 392.008817,45.6991877 383.982817,60.2261877 C383.923817,60.3321877 383.858817,60.4261877 383.796817,60.5261877 C388.816817,63.1381877 393.893817,65.6441877 399.083817,67.8841877 C405.722817,70.7501877 412.486817,73.3601877 419.371817,75.5741877 C425.599817,77.5781877 433.272817,78.3691877 438.508817,82.5391877 C449.549817,91.3311877 445.401817,109.577188 443.277817,121.404188 L442.946452,123.271221 C441.888878,129.35725 441.12398,135.601257 443.689817,141.442188 C446.429817,147.681188 451.970817,152.309188 456.913817,156.773188 L457.912177,157.678409 C462.291215,161.667647 467.294889,166.515188 470.506817,171.923188 C473.438817,165.861188 477.435817,160.907188 481.661817,155.330188 C484.676817,151.350188 482.530817,150.038188 480.364817,146.150188 C478.279817,142.408188 477.261817,138.419188 477.913817,134.150188 C479.116817,126.266188 485.417817,120.571188 491.689817,116.292188 C499.096817,111.241188 507.363817,107.499188 515.020817,102.800188 C530.754817,93.1461877 546.077817,82.1081877 559.882817,69.8491877 C560.263817,69.5101877 560.923817,69.9541877 560.618817,70.4171877 C549.713817,87.0041877 536.926817,101.337188 521.211817,113.503188 C514.83963,118.436313 508.145763,122.528324 501.407071,126.829791 L499.469717,128.072992 C496.764036,129.825707 493.389197,132.168222 492.165817,135.152188 C490.934817,138.153188 493.559817,140.419188 494.972817,142.905188 C499.459787,150.799733 497.295001,158.165669 491.975557,164.860665 L491.727817,165.169188 C486.441817,171.683188 482.435817,177.741188 480.519817,186.063188 C476.402986,203.939967 482.137211,222.561031 488.139757,239.343676 L488.376817,240.005188 C491.623817,249.051188 495.074817,258.031188 497.895817,267.222188 L498.672014,269.763136 C501.228032,278.219808 503.32109,286.560551 500.453817,295.254188 C499.478817,298.211188 495.445817,298.910188 493.770817,296.127188 C487.861817,286.313188 486.388817,274.503188 482.684817,263.713188 C479.074817,253.197188 474.929817,242.871188 471.442817,232.312188 C466.952817,218.717188 463.947817,204.083188 465.578817,189.823188 C465.530817,189.740188 465.477817,189.662188 465.437817,189.574188 L464.294841,187.074065 C461.178094,180.30434 458.16779,174.392134 452.499817,168.996188 C446.587817,163.367188 440.170817,158.384188 435.518817,151.570188 C425.414182,136.76899 431.663442,120.304003 432.883971,104.120161 L433.02363,102.135607 C433.245343,98.7754127 433.366845,94.2088093 431.171817,91.8831877 C428.702817,89.2651877 422.912817,88.5971877 419.636817,87.4381877 C411.170817,84.4421877 402.827817,80.9511877 394.881817,76.7591877 C387.317817,72.7691877 379.990817,68.3611877 373.168817,63.1971877 L369.711068,60.5959551 C364.255451,56.479596 358.598288,51.9844818 354.941817,46.3811877 C354.519817,45.7361877 355.236817,44.6951877 356.000817,45.0041877 C362.104817,47.4811877 367.681817,51.4211877 373.392817,54.8491877 C373.481817,54.6401877 373.584817,54.4291877 373.701817,54.2171877 C380.767817,41.4291877 383.673817,27.2611877 382.544817,12.7161877 Z M577.528217,100.331388 C579.960217,93.6623877 591.044217,94.1773877 590.602217,102.101388 C590.263321,108.188974 587.678698,113.683666 585.315462,119.211018 L585.063217,119.803388 C582.623217,125.562388 579.805217,130.969388 576.433217,136.247388 C569.990217,146.337388 562.443217,155.701388 554.382217,164.538388 C547.074217,172.550388 537.482217,177.449388 526.429217,176.635388 C521.772217,176.292388 517.071217,175.107388 512.990217,172.781388 C508.143217,170.017388 502.879217,161.718388 496.695217,163.728388 C496.097217,163.922388 495.539217,163.046388 496.056217,162.631388 C503.195217,156.882388 511.298217,165.796388 518.133217,167.944388 C528.432217,171.179388 539.001217,167.602388 545.630217,159.276388 C552.551217,150.583388 558.921217,140.850388 564.738217,131.385388 C567.692217,126.579388 570.387217,121.591388 572.715217,116.450388 C575.064217,111.261388 575.598217,105.622388 577.528217,100.331388 Z M560.926917,59.2889877 C560.626917,58.3679877 561.770917,57.4919877 562.579917,58.0179877 C567.270917,61.0719877 571.335917,65.1069877 575.662917,68.6439877 C580.463917,72.5679877 585.299917,76.4119877 590.210917,80.1969877 C597.369917,85.7159877 589.066917,95.8759877 582.764917,89.8469877 C574.140917,81.5999877 564.695917,70.8159877 560.926917,59.2889877 Z M535.171817,27.0094877 C537.077567,19.6607177 548.349153,22.6912067 546.706569,29.9541106 L546.652817,30.1754877 C543.541757,42.1721865 547.972626,54.3855681 557.431522,62.1629374 L557.779817,62.4454877 C563.763817,67.2344877 555.285817,75.6064877 549.360817,70.8634877 C536.425817,60.5114877 531.044817,42.9264877 535.171817,27.0094877 Z" id="Ink" fill="#000"/></g></g><g id="Head" transform="translate(372.000000, 180.000000) scale(0.9978902953586498 1)"><g id="Head/Twists" stroke="none" stroke-width="1" fill="none" fill-rule="evenodd"><path d="M67.9729,102.4005 C73.1589,96.8355 79.7919,92.6895 87.0429,91.3645 C80.4149,94.6755 73.9359,98.1265 67.9729,102.4005 Z M57.8149,150.3845 C56.8979,146.1435 56.2819,141.8615 56.0879,137.5805 C57.2469,139.3425 59.0979,140.5195 61.1769,141.1275 C59.8339,144.1345 58.6919,147.2325 57.8149,150.3845 Z M404.835051,216.877813 C398.849051,191.960813 370.921192,144.033657 364.320299,134.809034 C357.152299,111.968034 396.2459,93.6505 374.9849,75.7895 C365.3589,67.7305 352.6369,64.8785 340.7029,62.0205 C258.0729,42.1765 169.2949,52.1845 92.6589,88.6755 C81.0019,86.2225 68.8569,91.0165 60.3799,99.4365 C20.5549,139.4645 74.8289,211.6865 86.6969,256.8125 C107.0589,307.1295 65.1149,315.5935 69.6129,358.1665 C73.1079,380.1605 95.3849,385.9735 114.1839,389.2975 C117.1969,390.0025 121.2249,390.1085 122.1969,393.2935 C125.2429,411.8845 135.6849,429.6015 149.7039,441.6255 C148.4779,445.2575 149.4139,449.6665 153.7369,452.8565 C192.9049,481.9635 242.292016,496.529913 291.1439,493.9115 C349.361999,490.791067 379.4689,457.4225 386.7339,448.8305 C426.9029,394.5835 422.103119,323.0095 413.909119,258.3605 C408.201016,213.324721 415.439183,261.018001 404.835051,216.877813 Z" id="Skin" fill="#ffdbb4"/><path d="M225.3217,9.5415 C227.1517,3.8215 232.3317,0.3815 238.2617,1.0915 C243.5117,1.7115 249.1317,6.9215 248.4917,12.6715 C248.3717,13.7815 248.2117,14.8215 248.0217,15.8015 L248.0467,15.81025 L248.0467,15.81025 L248.0717,15.8115 L247.9417,16.1915 C247.5517,18.0215 247.0117,19.6615 246.2117,21.2115 C245.1917,24.1815 244.2117,27.1615 243.2417,30.1515 C244.6417,30.0915 246.0717,30.1715 247.5217,30.4415 C249.0217,26.6015 250.5317,22.7715 252.0317,18.9215 C253.6417,14.8115 254.7717,9.5315 257.9517,6.3515 C262.0217,2.2915 269.0817,1.4515 274.0417,4.3515 C279.2817,7.4115 281.1517,12.8515 280.0117,18.6815 C279.43239,21.6552931 277.445422,23.7248294 274.986877,25.0251205 L274.7217,25.1615 L272.8317,29.6415 C273.4117,29.3915 274.0117,29.1615 274.6617,28.9715 C275.6817,28.6715 276.6817,28.4815 277.6617,28.4015 C280.3617,23.5115 283.3317,18.7615 286.4017,14.1015 C289.9317,8.7415 296.8317,6.4615 302.6217,9.8515 C307.8017,12.8815 310.5817,20.8415 306.8717,26.0715 C304.0517,30.0415 301.3817,34.0915 298.7517,38.1815 C299.2017,38.2615 299.6517,38.3615 300.0817,38.4915 C300.2817,38.2215 300.4917,37.9515 300.7117,37.6815 C303.5817,34.1215 306.9217,31.4515 310.3517,28.4915 C313.5617,25.7115 315.0417,21.3415 319.2617,19.2315 C324.5717,16.5815 330.9717,17.8515 334.1317,23.1315 C340.9117,34.4415 329.5317,42.7015 322.2517,49.5515 C328.5817,45.6015 335.1717,41.9915 341.9317,38.8715 C345.7317,37.1215 349.5917,35.4315 353.5117,33.9715 C359.3217,31.8115 364.0217,32.5025 368.7917,36.5215 C370.9217,38.3215 371.9817,42.2525 371.0017,44.8715 C369.1017,49.8915 366.1017,52.9415 360.8417,54.3915 C357.1417,55.4115 353.3517,56.1015 349.6517,57.1715 C343.4517,58.9515 337.4317,61.1215 331.5917,63.8315 C332.0117,64.0915 332.4117,64.3715 332.7817,64.6915 C337.1417,63.2815 341.5817,62.0615 346.0417,61.0215 C353.438575,59.287125 360.967286,58.11525 368.528956,57.3822788 L371.041055,57.1484247 C380.106521,56.2784643 391.007771,54.6729286 396.5717,63.3515 C398.4017,66.2115 398.6017,70.9315 396.5717,73.7615 C392.6917,79.2015 388.8317,80.2815 382.4117,80.3815 C388.7317,81.0515 395.0417,81.8815 401.3217,82.8515 C405.650271,83.5115 409.978843,84.2596633 414.288522,85.0896924 L416.4417,85.5115 C421.6917,86.5615 427.5517,87.1715 432.0617,90.2115 C441.9017,96.8515 437.2817,109.7815 426.3817,111.1615 C421.1117,111.8215 415.2617,109.5915 410.0917,108.5515 C405.0717,107.5415 400.0317,106.6515 394.9717,105.8715 C392.3517,105.4615 389.7317,105.1015 387.1017,104.7715 C392.4517,105.5415 397.7617,106.6315 402.9317,108.1715 L404.367786,108.60485 C414.362598,111.650948 427.853793,116.50243 430.9717,127.1815 C432.8617,133.6715 427.6917,139.3315 421.4317,139.7115 C415.6117,140.0615 410.7617,136.5915 405.8217,134.0315 C402.2217,132.1715 398.5617,130.7815 394.6817,129.5915 C390.6717,128.3615 386.5817,127.3415 382.4617,126.5115 C385.943518,128.429682 389.334427,130.537946 392.589348,132.896399 L394.085527,134.00174 C402.736936,140.447976 415.9295,150.4281 412.8817,162.5115 C411.9217,166.3215 407.6717,169.9615 403.5917,169.5715 C392.9717,168.5815 387.1117,157.2715 379.1017,151.2115 C377.0117,149.6315 374.7217,148.0715 372.3217,146.5515 C384.4617,161.0315 394.1217,177.7715 401.4717,195.0615 C417.625169,233.099357 422.580714,268.325487 422.69956,309.224756 L422.7017,310.4915 C422.7217,333.0515 422.2117,356.0215 420.0117,378.4815 C417.9717,399.2315 414.2317,419.7115 404.8217,438.5025 C389.0517,470.0115 358.3217,494.5515 324.4317,503.8915 C286.7217,514.2915 244.5717,506.1615 213.6817,482.1615 C205.8017,476.0415 216.2517,462.7525 224.3017,468.4015 C256.4517,490.9515 298.0317,498.0915 334.9317,482.8315 C364.2017,470.7315 387.7717,444.7015 397.7617,414.7315 C404.120396,395.665196 405.971648,375.335659 408.239817,355.465479 L408.3917,354.1415 C410.7917,333.3615 412.1817,312.4415 412.1617,291.5215 C412.1317,252.6715 406.5517,220.6915 389.4617,185.4515 C381.4217,168.8515 370.9917,153.5025 358.5317,140.0315 C354.7517,140.8015 350.7317,139.7215 346.9117,139.3115 C344.9617,139.1015 343.0117,138.9015 341.0617,138.7215 C343.0537,140.0095 345.0073,141.3487 346.92762,142.719132 L349.446292,144.535382 C357.327907,150.179865 367.327478,156.609056 365.3017,167.5215 C364.7517,170.4715 361.8117,173.1815 358.9617,173.8515 C348.6317,176.3115 341.5317,166.2715 334.5517,160.3115 C328.4817,155.1315 322.1317,150.4915 315.6617,145.8415 C314.1917,144.7915 312.7117,143.7415 311.2217,142.7015 C312.6217,144.3335 313.9833,145.9911 315.31162,147.66406 L317.275475,150.153141 C323.217958,157.588482 331.78436,167.252989 326.4917,176.8915 C324.9917,179.6115 321.7917,181.4215 318.6917,181.3615 C308.0317,181.1415 303.7917,169.0415 298.7917,161.4015 C294.4917,154.8515 289.8217,148.6815 284.9917,142.5115 C283.6617,140.8215 282.3217,139.1315 280.9617,137.4415 C258.5717,138.6015 236.2617,141.5615 214.3417,146.2915 C199.2817,149.5415 184.4717,153.7525 169.7717,158.3615 L168.550042,158.750131 C160.594514,161.311565 152.397554,164.589793 146.6617,170.2115 C145.8429,174.0847 146.471444,178.1695 147.25471,182.037622 L147.86518,184.998365 C150.3804,197.37905 152.0942,209.5305 150.8117,222.2415 C149.4817,235.3515 145.5317,247.1415 140.7117,259.3215 C138.4317,265.0615 136.0717,264.0215 135.2617,270.1815 C134.6412,274.8735 135.024975,279.717225 135.448849,284.448601 L135.803076,288.459623 C136.692069,298.966608 137.138469,310.421992 130.2517,319.0915 C129.1817,320.4215 126.8917,319.8915 126.1317,318.5615 C125.8317,318.0315 125.5117,317.5215 125.1617,317.0315 C121.8417,312.2215 116.7517,309.4815 110.9317,308.4215 C110.1917,308.2915 110.4817,307.3015 111.1017,307.2215 C116.0217,306.6415 120.6817,307.8715 124.6417,310.4115 C122.763793,303.917895 108.225529,307.075859 103.44629,308.337768 L103.2817,308.3815 C97.3217,309.9815 91.6817,312.5815 86.7117,316.2615 C76.7117,323.6615 70.9317,335.2015 71.2217,347.6315 C71.5117,359.8515 77.8217,371.1415 88.6617,376.9915 C93.8917,379.8115 99.8417,381.1715 105.7617,381.1115 C111.9417,381.0515 117.4417,378.3415 123.6317,378.7215 C127.2117,378.9415 129.9517,382.7815 127.8817,386.1315 C126.5017,388.3715 124.7017,390.1315 122.6217,391.4815 C127.6917,403.1715 134.1617,414.3215 141.6217,424.6115 C145.7517,430.3215 150.4317,435.5915 155.5817,440.4015 C159.6017,444.1615 168.3117,448.5115 167.8217,454.7815 C167.6517,457.0415 166.4817,458.4215 164.4217,459.2615 C158.017167,461.879767 150.229462,452.864234 145.945791,448.517885 L145.6017,448.1715 C140.2617,442.8515 135.3917,436.9715 131.1517,430.7315 C123.6317,419.6515 118.9617,407.1615 117.0317,394.0415 C106.7617,397.1315 93.1617,394.2315 84.7817,390.4415 C58.4417,378.5415 49.8317,343.0715 65.8417,319.4515 C68.9417,314.8815 72.8217,310.9715 77.2417,307.8115 C76.2717,307.2815 75.3617,306.6015 74.5517,305.7415 C70.0709308,300.981885 66.9030314,294.770716 63.7589571,289.046006 L63.3817,288.3615 C60.5905889,283.3215 57.9575025,278.202488 55.4894641,273.004463 L54.5717,271.0515 C49.0617,259.2015 44.2317,254.0215 40.3017,241.5615 C36.5217,229.5415 33.5417,217.2915 31.6117,204.8315 L31.098823,201.533414 C29.9826333,194.303411 28.9270333,186.572167 29.7417,179.2315 C24.1317,181.0615 18.4917,182.1915 12.9417,179.4415 C9.2817,177.6315 7.2617,172.3515 8.5117,168.5615 C9.4217,165.7715 10.9417,163.5815 12.8717,161.8615 C11.7217,161.2815 10.6417,160.5415 9.6917,159.7215 L8.8617,159.0025 L8.8617,159.0025 C5.5017,156.0815 5.2617,150.5315 7.3017,146.8715 C7.5017,146.5215 7.7017,146.1615 7.8917,145.8115 C9.8317,142.3415 13.8417,140.0715 17.8017,140.1315 C18.4417,140.1415 19.0817,140.1415 19.7317,140.1315 C17.8817,139.7215 16.0717,139.0915 14.3517,138.0315 C6.5917,133.2615 7.5717,120.3315 16.9617,118.0515 C20.9017,117.1015 25.2517,117.4915 29.5917,118.5115 C29.4317,118.4215 29.2717,118.3315 29.1117,118.2315 C25.8317,116.2215 23.0817,112.2915 23.3917,108.2615 C23.7317,103.8015 25.1717,100.6215 29.1117,98.2815 C32.5317,96.2615 37.3717,96.0715 40.7717,98.2815 C43.7217,100.2115 46.6117,102.3415 49.3917,104.6315 C46.6017,101.2015 44.1817,97.4715 43.2017,93.5115 C41.9917,88.5815 44.0117,83.2115 48.4517,80.6115 C51.9917,78.5415 55.7317,78.7715 59.0717,80.3715 C58.8917,77.7815 59.5217,75.1415 61.2417,72.8015 C64.7617,68.0025 71.1617,65.2415 76.7317,68.7415 C77.4617,69.2015 78.4417,69.9915 79.3917,70.9615 C77.5417,65.0715 79.2117,58.8915 85.5217,56.2315 C89.3717,54.6015 94.5817,55.4215 97.9217,58.2315 C95.8017,46.7615 112.7317,38.3315 119.3117,50.1815 C120.805033,52.8659444 122.282564,55.6926111 123.603826,58.5842435 L124.0917,59.6715 L124.1417,59.6515 L123.80545,58.8565 L123.80545,58.8565 L123.4617,58.0615 C121.6317,53.8115 119.3017,49.3915 118.6617,44.7815 C117.7217,37.9615 120.7617,31.4915 128.1817,30.4915 C132.0117,29.9715 136.2717,31.7115 138.8417,34.7525 C137.4517,24.1715 149.2717,16.4815 157.7817,24.3815 C161.8117,28.1215 163.9617,33.5915 166.5217,38.3915 C167.9717,41.1015 169.4517,43.8015 170.9017,46.5215 C171.2717,46.0815 171.6717,45.6415 172.0917,45.2115 C169.9417,38.7715 168.2717,32.1715 166.8617,25.5315 C165.5217,19.2715 168.6517,12.7715 175.1117,11.0025 C180.9817,9.3815 188.3317,13.0025 189.6417,19.2525 C190.5617,23.6515 191.6517,28.0025 192.8517,32.3315 C193.6717,32.1315 194.4817,31.9915 195.2817,31.8915 C195.348367,31.0781667 195.423922,30.2603889 195.508367,29.4470556 L195.823115,26.5543536 C196.52242,19.9449176 197.227753,12.3999211 200.6817,6.7815 C206.5717,-2.8185 221.6717,1.1615 221.8317,12.5115 C221.9217,18.3815 219.5317,24.2015 218.7017,30.0115 C218.3417,32.5415 218.1317,35.1015 218.0117,37.6615 C219.6217,29.1615 221.8317,20.7715 224.3917,12.5115 C224.6917,11.5215 225.0117,10.5315 225.3217,9.5415 Z M95.0416,337.3218 C108.2916,335.2718 120.4016,342.6618 128.2516,353.0118 C129.6816,354.9018 128.7416,357.5718 127.4516,359.1618 C126.5216,360.3318 125.2716,360.4718 123.8616,360.6518 C122.2416,360.8618 120.1916,359.5518 119.4816,358.1418 C114.4316,348.0618 105.4216,341.6918 95.0416,337.7718 C94.8516,337.7018 94.7916,337.3618 95.0416,337.3218 Z M113.409421,156.717337 L113.8107,156.2865 C116.4917,153.5055 112.2547,149.2575 109.5677,152.0445 C106.7387,154.9785 104.8587,158.5425 103.0507,162.1545 C101.3277,165.5985 106.5017,168.6405 108.2317,165.1835 L109.019473,163.612241 C110.255859,161.169068 111.574416,158.755335 113.409421,156.717337 L113.409421,156.717337 Z M76.1987,151.0095 C79.9987,150.3695 78.3877,144.5865 74.6037,145.2245 C69.7017,146.0505 64.8187,146.9895 59.9157,147.8165 C56.1167,148.4565 57.7277,154.2395 61.5117,153.6025 C66.4137,152.7755 71.2967,151.8365 76.1987,151.0095 Z M302.5667,111.5285 C298.8957,110.3035 297.3207,116.0965 300.9717,117.3145 C306.0167,118.9975 311.0207,120.7225 315.8067,123.0595 C319.2637,124.7475 322.3087,119.5745 318.8347,117.8785 C313.5817,115.3135 308.1047,113.3765 302.5667,111.5285 Z M75.3347,103.7525 C71.7497,102.3185 70.1927,108.1195 73.7397,109.5385 L86.6997,114.7215 L86.6997,114.7215 C90.2847,116.1555 91.8417,110.3555 88.2947,108.9365 L75.3347,103.7525 L75.3347,103.7525 Z M347.820662,89.6649702 L347.3477,89.3665 C344.0977,87.2605 341.0867,92.4525 344.3187,94.5475 C346.216167,95.7767 348.523056,96.6104156 350.26047,98.0746994 L350.6237,98.3985 C353.4297,101.0485 357.6807,96.8145 354.8667,94.1555 C352.80795,92.2120625 350.201641,91.1299531 347.820662,89.6649702 L347.820662,89.6649702 Z" id="Ink" fill="#000"/></g></g><g id="Face" transform="translate(531.000000, 366.000000) scale(1 1)" fill="#000"><g id="Face/Cute" stroke="none" stroke-width="1" fill="none" fill-rule="evenodd"><path d="M177.5335,205.3371 C180.9645,199.2831 191.2025,200.2671 192.7675,207.3281 C195.9425,221.6421 178.8735,234.8601 165.9095,235.1901 C153.0265,235.5171 138.5715,224.5521 140.4365,210.7021 C140.8975,207.2761 145.4735,207.6921 147.0335,209.8401 L147.639154,210.664134 C151.876221,216.356303 157.466992,222.247946 165.3305,220.8601 C168.5895,220.2861 171.5495,218.2501 173.5195,215.6291 C175.8955,212.4661 175.6345,208.6891 177.5335,205.3371 Z M95.6148,100.6165 C97.3608,100.1355 99.1228,100.3215 100.6698,100.9795 C104.1238,101.6125 107.0088,104.4925 108.0228,107.7805 C108.1028,108.065167 108.192133,108.346278 108.290504,108.624426 L108.4448,109.0395 L108.0308,107.9855 C108.2218,109.0235 109.0668,110.1145 109.3708,111.1565 C109.7448,112.4375 109.8358,113.8925 109.7098,115.3025 C110.8078,115.3135 111.9058,115.3505 113.0018,115.4455 L114.060904,115.540412 C119.98388,116.090875 126.486479,117.100575 129.9978,122.2185 C131.9698,125.0945 130.1188,130.2725 126.4958,130.8265 C120.9188,131.6795 116.1148,128.5935 110.5568,127.9755 C105.3028,127.3905 99.8048,127.7255 94.6188,128.6745 C83.91192,130.63194 74.0731872,134.971716 63.6392483,137.694821 L62.2188,138.0555 L62.2188,138.0555 L62.2208,138.0485 C60.4328,138.4805 58.4028,135.9945 60.1718,134.5405 C68.5308,127.6735 79.2328,122.1085 89.7758,118.7195 C88.2398,116.2765 87.7648,113.0585 88.8148,110.4355 C88.9774,109.8919 89.17924,109.36342 89.392024,108.836452 L89.8358,107.7525 L89.8358,107.7525 C89.8788,107.2415 89.9768,106.7365 90.1188,106.2415 L90.1418,106.0905 L90.1418,106.0905 L90.1548,106.0995 L90.1548,106.0995 C90.9398,103.5485 92.9898,101.3405 95.6148,100.6165 Z M202.2598,101.0113 C204.546011,98.7241158 207.758477,99.0621123 210.144209,100.862169 L210.4608,101.1103 L210.4608,101.1103 C212.7098,102.1093 214.5708,104.2923 215.7928,106.3153 C217.0618,108.4163 217.9048,110.5563 217.9378,112.8693 C223.4718,112.8873 228.7728,114.5473 232.8358,119.0153 C234.1478,120.4573 235.0438,122.6813 234.3218,124.6363 L233.8918,125.7993 L233.8918,125.7993 C232.527456,129.491691 226.393723,131.617218 224.308978,127.274981 L224.2128,127.0633 C221.9978,121.9073 213.4948,122.4483 208.9758,122.9753 C205.8258,123.3443 202.7148,124.1273 199.6728,125.0043 C198.60105,125.3133 197.538863,125.648737 196.4778,125.991206 L195.4168,126.3353 C194.8508,126.5183 191.9028,128.1193 193.7368,127.7403 C194.2298,127.6383 194.6008,128.3563 194.0978,128.5973 C191.9118,129.6423 189.5798,127.5613 189.7258,125.2133 C189.97864,121.13748 196.45103,118.902747 199.565401,117.497319 L199.7518,117.4123 C200.9458,116.8603 202.1968,116.3313 203.4878,115.8403 C202.7618,114.7603 202.1618,113.5603 201.6628,112.2723 C201.1908,111.0563 200.8758,109.8743 200.7028,108.5813 C200.5328,107.9493 200.5328,107.3173 200.7028,106.6843 L200.7288,106.5033 L200.7288,106.5033 C200.6408,106.0853 200.5988,105.6533 200.6048,105.2183 L200.5868,105.0493 L200.6048,105.0493 C200.6658,103.5263 201.2708,102.0003 202.2598,101.0113 Z M165.7316,144.4161 C174.5146,147.1301 189.0046,154.5231 184.4276,165.9341 C178.0366,176.4141 161.0876,168.7121 152.8746,165.3261 C145.4956,162.8821 141.6536,173.2231 148.7886,176.3401 C207.7476,199.6651 207.5306,138.1061 167.8696,139.0101 C163.5026,139.1091 163.3656,143.5141 165.7316,144.4161 Z M87.7267006,64.1488907 L89.2249,63.7117 C97.0099,61.4567 104.9569,57.5627 111.8689,63.6387 C114.5829,66.0247 115.1419,70.9827 113.1999,73.9587 C108.7759,80.7397 102.2149,79.7037 95.0699,80.2817 C89.6299,80.7217 84.2709,82.3197 79.1929,84.3167 C75.0429,85.9497 71.1939,88.2487 67.5599,90.8127 C63.9899,93.3337 61.5509,97.2747 57.8889,99.5437 C56.5469,100.3757 54.9969,99.5197 54.5149,98.1707 C52.8069,93.3857 55.6929,87.4247 58.1349,83.3477 C61.1159,78.3737 65.6439,74.3057 70.5129,71.2277 C75.8445923,67.8566231 81.7403556,65.9102089 87.7267006,64.1488907 L87.7267006,64.1488907 Z M201.1644,59.0001967 C214.3234,58.9962 226.9854,66.3152 234.3454,77.0442 C236.8464,80.6892 235.0134,86.0892 231.4234,88.1882 C227.395949,90.5440824 223.089759,88.8476771 220.435649,85.471752 L220.2784,85.2672 C216.0574,79.6462 210.6164,75.2192 204.1664,72.3372 C201.0194,70.9302 197.5394,69.7892 194.1354,69.2102 L193.035296,69.021688 C191.49344,68.76332 189.7048,68.5166 188.3104,68.7582 C187.5634,68.8562 186.8774,69.1032 186.2454,69.4792 C186.5494,70.1432 185.7644,70.9432 185.0394,70.5452 C181.7694,68.7492 182.1704,65.5452 184.8714,63.0552 C188.6924,59.5322 196.2294,59.0012 201.1644,59.0001967 Z" id="Ink" fill="#000"/></g></g><g id="Beard" transform="translate(494.999934, 517.999659) scale(1 1)" fill="#000"><g id="Beard/Thin Mustache" stroke="none" stroke-width="1" fill="none" fill-rule="evenodd"><path d="M229.9448,33.9998 C241.6588,34.8308 252.7388,42.0988 262.8158,47.7168 C272.51397,53.5108426 279.691907,62.0952464 285.425881,71.6662255 L285.7978,72.2918 C286.1341,72.79055 285.534508,73.3515725 285.041591,73.1612186 L284.9648,73.1248 C275.4478,68.3498 265.4058,64.4798 256.0618,59.2708 C246.9378,53.6298 235.7338,51.7018 226.5408,46.5708 C221.2868,42.6758 222.8638,34.3008 229.9448,33.9998 Z M199.4764,39.6831 C199.9034,42.3551 198.8244,46.5961 195.3164,47.8351 C189.153275,50.0091625 183.540345,51.1812719 177.34959,52.8774291 L169.32497,55.1248967 C153.910423,59.4668903 138.264477,64.1279974 124.6174,70.9681 L124.1894,70.7801 C114.2764,64.5781 169.0404,38.7041 187.9494,34.5821 C191.4234,33.8241 198.8314,35.6511 199.4764,39.6831 Z" id="Ink" fill="#000"/></g></g><g id="Mask" transform="translate(400.000000, 480.000000) scale(1 1)" fill="#000"><g id="Mask/None" stroke="none" stroke-width="1" fill="none" fill-rule="evenodd" fill-opacity="0"/></g><g id="Accessories" transform="translate(419.000000, 421.000000) scale(1 1)" fill="#000"><g id="Accessories/Glasses" stroke="none" stroke-width="1" fill="none" fill-rule="evenodd"><path d="M389.0901,63.2824 C379.5561,127.7714 313.0021,134.9034 301.1771,70.8814 C303.0751,70.0504 304.4401,68.4144 304.1551,65.2384 C304.0881,51.2864 308.4191,36.5404 321.0051,28.7814 C334.0111,20.7754 349.2321,19.9814 364.2831,20.1834 C393.0051,19.4994 392.4011,43.5064 389.0901,63.2824 M290.7581,35.2354 C281.7441,34.8554 270.3401,35.1734 262.2651,40.6654 C260.0451,34.6874 254.2771,28.3044 248.4491,24.8914 C270.1111,25.5254 292.4091,23.3934 314.2331,21.7384 C309.0091,25.2994 304.1491,30.6494 300.9901,36.8344 C298.0591,35.2714 293.8611,35.4174 290.7581,35.2354 M251.0261,70.1194 C226.0311,156.1554 163.6401,118.6554 156.8381,107.6294 C144.5691,89.3834 142.2611,45.0294 152.9481,33.1704 C168.2461,22.4464 189.9031,25.2064 207.9751,24.9434 C241.1761,25.3914 264.7561,35.3234 251.0261,70.1194 M418.6031,30.5484 C411.8121,29.6604 404.5551,29.4814 398.2411,32.4714 C396.2971,24.2084 390.1941,17.3004 383.3031,14.2604 C382.4691,13.2144 382.5941,12.6524 379.7451,12.8094 C362.2501,7.5514 342.6731,10.3334 325.8611,15.7254 C299.3091,17.9614 271.4521,19.7244 244.6771,22.8054 C219.5951,11.5414 143.9021,9.8904 139.1981,37.6534 C133.2811,36.7684 123.2041,32.1114 118.2321,38.4284 C81.7611,32.2454 44.0761,40.8384 7.4471,44.6654 C-1.7729,46.3634 -6.5219,64.6614 3.9441,64.4114 C9.8281,62.8144 3.7631,53.0174 11.6861,52.2804 C47.0271,48.4204 81.5951,42.9444 117.2981,42.3034 C116.0561,48.4684 140.9121,48.8694 141.2791,45.2694 C141.3321,45.2964 141.3881,45.3144 141.4421,45.3384 C135.3001,68.2284 140.8441,101.1704 151.9441,115.3644 C167.4961,133.9504 206.5411,139.2824 223.8541,127.3244 C246.1871,116.2874 269.4201,60.8854 262.8941,42.4794 C274.7381,38.7254 286.4471,39.8524 298.7391,41.7644 C295.9251,49.7134 291.0671,69.2814 298.0561,70.9784 C296.7731,109.8284 332.1301,134.0694 364.7241,118.1324 C392.9351,104.8894 402.8011,62.9714 399.3491,37.5284 C402.8611,44.3144 432.3491,36.9264 418.6031,30.5484" id="Ink" fill="#000"/></g></g></g></svg>