<svg viewBox="184.21621621621625 229.95000000000005 940.2702702702704 1111.4250000000002" xmlns="http://www.w3.org/2000/svg" overflow="visible" xmlns:xlink="http://www.w3.org/1999/xlink" width="940.2702702702704px" height="1111.4250000000002px"><g id="Master/Character/Bust" stroke="none" stroke-width="1" fill="none" fill-rule="evenodd"><g id="Body" transform="translate(147.000000, 639.000000) scale(1 1)"><g id="Body/Jacket 2" stroke="none" stroke-width="1" fill="none" fill-rule="evenodd"><path d="M456.90601,-38.8170214 C486.038263,-37.379399 531.398181,-24.8902772 533.665946,-16.908258 C537.207023,-4.4444637 529.597582,42.2829466 542.324976,67.4520091 C547.750496,78.1812489 568.352569,77.2193521 576.335452,80.7136091 C603.044888,92.4048283 682.11655,114.577692 698.419773,142.49737 C704.951314,153.682799 745.090752,292.472409 766.419343,363.278809 C768.82395,371.261594 771.539829,378.644567 774.492436,385.482482 L775.577538,380.169212 C784.273815,337.373751 788.621954,311.466382 788.621954,302.447103 C788.621954,288.354479 777.380267,228.894937 788.621954,213.77413 C799.751223,198.804531 826.572138,186.564645 838.639156,186.321344 L839.000276,186.317653 C846.923409,186.317653 853.798242,183.841038 859.624774,178.887809 L868.167507,174.591632 C911.626261,152.784457 937.01675,140.822442 944.338976,138.70559 C956.023378,135.327633 975.908997,142.524365 965.966188,153.328419 C959.337648,160.531122 942.680926,173.272784 915.996023,191.553407 L905.934354,199.547901 L907.149914,200.182887 C920.153624,207.028556 927.799626,212.790508 930.08792,217.468741 C932.446624,222.29092 931.314833,227.995001 926.692547,234.580984 L927.393704,235.264564 C933.238929,241.000933 936.161541,244.848722 936.161541,246.807932 L936.161541,256.378695 C941.976606,264.894936 943.430372,271.99717 940.522839,277.685396 C937.615307,283.373623 933.005209,288.302627 926.692547,292.472409 C922.040983,304.708387 916.501548,313.416978 910.074243,318.598183 C903.646937,323.779387 892.538797,328.092512 876.749823,331.537556 L862.462179,365.699809 L850.884976,413.694251 L845.051369,467.247483 L846.745107,468.473693 C854.595948,474.191723 859.624774,478.430495 859.624774,482.810956 C859.624774,489.634581 827.948047,650.11344 778.664509,657.296048 C768.005866,658.849443 712.729137,651.230414 694.579622,636.46624 L694.84754,638.060874 C699.117953,663.853536 698.214562,677.248023 692.137368,678.244335 C617.45009,690.488774 405.333158,694.271981 55.7865737,689.593956 C53.7069212,504.072447 63.1106599,380.517948 83.99779,318.930457 C137.417779,161.417049 196.315832,107.618213 216.921218,103.010495 C234.970532,98.9743587 297.559146,74.0635497 315.055158,67.4520091 C326.475948,63.136225 328.922722,50.1965549 341.937273,50.1965549 L342.989357,50.2019377 C355.575669,50.3283367 366.736957,52.5792433 373.007736,46.1062091 C389.464077,29.1190901 384.863796,5.60573336 391.690815,-16.908258 C395.452438,-29.3132511 421.157128,-40.5811621 456.90601,-38.8170214 Z" id="Skin" fill="#ffdbb4"/><path d="M341.937273,50.1965549 L342.989357,50.1965549 C346.100067,50.2331773 349.123732,50.3941886 352.008034,50.5211956 L345.930871,71.2284411 L345.799388,73.4032657 C341.853428,144.796551 376.814175,178.97307 450.681628,175.932822 C524.549081,172.892574 561.291569,149.528526 560.90909,105.840678 L560.886137,104.510583 L560.886637,77.3236797 L562.04894,77.5463906 C567.655729,78.5958186 573.058687,79.2793077 576.335452,80.7136091 C603.044888,92.4048283 682.11655,114.577692 698.419773,142.49737 C704.951314,153.682799 745.090752,292.472409 766.419343,363.278809 C767.198728,365.866202 768.010814,368.390582 768.853062,370.853813 L768.853176,384.847667 L768.621315,385.696465 C761.145959,413.655278 771.098877,436.514259 798.480071,454.273409 C817.887967,466.861164 837.820041,475.032405 858.27629,478.787132 C859.154686,480.145611 859.624774,481.471661 859.624774,482.810956 C859.624774,489.634581 827.948047,650.11344 778.664509,657.296048 C768.005866,658.849443 712.729137,651.230414 694.579622,636.46624 L694.84754,638.060874 L695.097557,639.593556 C699.079748,664.384356 698.093019,677.267949 692.137368,678.244335 C617.45009,690.488774 405.333158,694.271981 55.7865737,689.593956 C53.7069212,504.072447 63.1106599,380.517948 83.99779,318.930457 C137.417779,161.417049 196.315832,107.618213 216.921218,103.010495 C234.970532,98.9743587 297.559146,74.0635497 315.055158,67.4520091 C326.475948,63.136225 328.922722,50.1965549 341.937273,50.1965549 Z" id="Jacket" fill="#BA98DE" fill-rule="nonzero"/><path d="M376.870176,5.66300908 C378.580176,2.27500908 383.119176,2.71400908 386.114176,4.25100908 C395.097176,10.8180091 385.698176,23.5470091 383.213176,31.5610091 C376.821176,47.1050091 365.719176,62.2960091 350.393176,69.5610091 C351.663176,85.0130091 353.102176,100.431009 353.633176,115.931009 C373.228176,140.236009 406.265176,149.107009 435.592176,155.929009 C481.653176,168.667009 533.637176,142.569009 549.183176,97.0400091 C531.490176,86.9870091 525.764176,60.6650091 531.043176,42.3010091 C531.502176,41.0110091 533.502176,40.4410091 534.213176,41.8810091 C539.058176,51.8460091 538.412176,64.0030091 543.920176,73.8480091 C596.788176,78.9090091 665.018176,98.8570091 699.653176,141.611009 C715.002176,163.001009 721.082176,190.821009 728.642176,215.611009 C744.772176,266.719009 757.624176,318.861009 773.443176,370.021009 L775.308488,360.340858 C780.418909,333.675271 785.062797,306.647982 781.611176,279.530009 L781.549412,278.23244 C780.421758,256.654722 773.668696,216.556709 790.403176,201.989009 C805.540176,190.422009 827.468176,181.127009 846.463176,186.459009 C880.266176,171.417009 909.442176,146.087009 945.443176,136.221009 C956.523176,133.941009 972.463176,136.641009 969.844176,151.672009 C962.586176,177.961009 932.191176,188.165009 911.413176,201.721009 C924.732176,205.330009 940.969176,221.527009 930.563176,235.651009 C930.473176,235.901009 930.393176,236.091009 930.313176,236.241009 C938.752176,239.981009 939.934176,249.381009 937.863176,257.441009 C937.653176,259.571009 937.093176,257.741009 938.344176,259.671009 C947.866176,268.651009 943.657176,293.684009 929.313176,294.530009 C930.252176,306.391009 922.633176,317.911009 912.983176,324.381009 C902.582176,331.351009 887.543176,331.651009 878.932176,341.191009 C858.715176,376.839009 851.741176,418.923009 849.537176,459.745009 C862.864176,464.733009 874.821176,479.650009 862.713176,492.305009 C862.474176,492.333009 862.235176,492.361009 861.993176,492.381009 C854.974176,511.112009 852.264176,531.079009 848.552176,550.641009 C842.841176,584.020009 827.958176,614.667009 808.953176,642.473009 C786.975176,679.280009 727.876176,673.445009 698.103176,649.691009 C698.222176,655.923009 699.249176,662.118009 697.253176,668.140009 C694.307176,674.639009 687.124176,671.831009 686.413176,665.431009 C670.674176,674.282009 666.967176,645.066009 684.463176,649.700009 C683.117176,628.579009 682.337176,607.428009 681.704176,586.271009 C661.896176,592.682009 661.042176,559.820009 681.303176,566.391009 L681.279152,557.306114 C681.130183,487.644247 681.899884,417.744092 691.093176,348.631009 C691.943176,343.461009 693.383176,338.461009 694.223176,333.321009 C694.313176,332.790009 695.143176,332.941009 695.146176,333.450009 C696.569176,430.210009 690.245176,527.177009 696.843176,623.971009 C702.336176,625.645009 704.526176,631.948009 708.593176,635.620009 C717.622176,643.956009 729.918176,648.015009 741.942176,649.429009 C775.612176,654.150009 790.149176,643.867009 805.143176,614.601009 C798.380486,619.120359 789.242033,611.139514 793.364187,603.98747 L793.493176,603.771009 C797.774176,596.192009 809.863176,600.734009 808.332176,609.221009 C823.407176,585.081009 831.297176,557.860009 837.124176,530.241009 L837.912488,526.941391 C840.745009,515.216049 844.421002,501.779661 851.223176,491.171009 C809.741176,480.599009 769.163176,448.388009 762.672176,404.195009 C752.140176,437.284009 737.872176,469.629009 724.273176,501.811009 C720.073176,513.001009 718.323176,525.030009 712.303176,535.411009 C710.903176,537.811009 707.353176,537.191009 706.561176,534.660009 C701.147176,510.454009 717.553176,487.430009 726.071176,465.640009 C733.027176,453.325009 752.993176,397.088009 765.372176,396.952009 C751.462176,335.984009 732.909176,275.472009 715.240176,215.263009 C698.155176,133.965009 663.338176,118.288009 589.580176,92.6910091 C602.884176,160.487009 663.624176,226.112009 631.303176,297.221009 L630.517168,299.065116 C627.21132,306.905892 624.465194,314.805918 626.773176,323.411009 C629.013176,331.761009 634.113176,339.011009 638.194176,346.521009 C661.002176,388.942009 645.302176,438.484009 636.483176,482.661009 C625.343176,534.468009 614.338176,586.323009 602.823176,638.051009 C600.553176,648.370009 599.082176,659.001009 595.653176,669.001009 C593.883176,674.161009 585.053176,673.671009 585.624176,667.651009 C586.713176,655.971009 589.993176,644.581009 592.395176,633.111009 C606.733176,558.851009 626.134176,485.466009 638.470176,410.881009 C646.405176,355.669009 615.166176,347.185009 616.332176,311.511009 C620.578176,293.266009 631.817176,276.984009 631.172176,257.541009 C633.670176,198.025009 590.318176,148.924009 584.966176,91.0400091 L575.516,87.6690171 C570.792896,85.9782891 566.074976,84.2738091 561.372176,82.5290091 C586.127176,255.654009 578.610176,432.561009 566.235176,606.541009 C563.707176,614.569009 566.112176,696.648009 555.513176,691.671009 C554.978176,694.805009 553.313176,697.886009 549.693176,697.870009 C516.823176,698.171009 483.943176,698.691009 451.073176,699.083009 C435.262176,697.626009 413.530176,703.662009 400.082176,694.540009 C384.555176,690.109009 382.770176,622.059009 378.619176,607.071009 L377.000704,596.170984 C350.616748,418.061485 327.006216,236.278129 345.971176,56.4050091 C319.585176,57.4190091 314.139176,85.8960091 312.182176,106.630009 C307.289176,152.393009 277.721176,191.803009 276.303176,238.091009 C276.183176,249.321009 278.303176,260.200009 282.792176,270.511009 C294.702176,295.773009 315.300176,324.978009 299.905176,353.192009 C281.698176,375.156009 283.274176,380.937009 289.955176,408.080009 C308.752176,497.812009 339.968176,584.077009 369.663176,670.593009 C363.211176,704.220009 324.403176,579.384009 320.752176,569.971009 C303.573176,578.609009 294.189176,549.943009 313.893176,547.901009 C301.237176,505.539009 289.590176,462.860009 279.893176,419.711009 L279.636325,418.494776 C275.35285,398.558807 266.927536,375.214109 281.155176,357.530009 C317.841176,320.431009 256.918176,278.964009 264.603176,234.021009 C257.967176,238.941009 247.922176,233.765009 248.073176,225.501009 C247.772176,216.197009 260.270176,211.431009 266.284176,218.530009 C272.46756,182.066748 293.980164,150.234632 300.490125,113.878549 L300.784176,112.171009 C302.990176,99.3220091 303.612176,85.8020091 309.923176,74.0910091 C301.332176,79.6710091 292.183176,84.1810091 282.773176,88.1610091 C299.598176,102.214009 267.017176,115.040009 269.713176,93.3310091 C177.445176,120.025009 156.590176,157.251009 122.713176,242.741009 C129.041176,236.593009 139.881176,244.549009 136.093176,252.390009 C133.071176,260.650009 119.888176,258.235009 119.893176,249.431009 L118.349134,253.112748 C97.806501,302.232199 79.1092731,352.54418 69.7131756,405.111009 C88.1451756,402.509009 83.4521756,431.966009 66.7521756,423.661009 C60.0501756,470.411009 59.9441756,517.823009 60.7631756,564.950009 C76.3101756,556.798009 76.7781756,584.500009 60.9131756,576.601009 C61.4931756,615.221009 62.3431756,653.841009 62.9831756,692.461009 C63.1131756,700.681009 50.4331756,700.641009 50.2331756,692.461009 C48.7521756,633.120009 46.0531756,573.671009 47.3361756,514.312009 C46.1291756,411.286009 75.7471756,311.986009 119.877176,219.696009 C158.924176,113.431009 212.860176,101.346009 312.093176,70.4500091 C321.253176,56.8530091 340.823176,43.9930091 356.790176,52.5310091 C365.723176,38.1110091 370.260176,21.0270091 376.870176,5.66300908 Z M206.853276,376.021009 C207.223276,374.711009 209.093276,375.040009 209.153276,376.331009 C209.983276,393.001009 209.243276,409.780009 208.103276,426.521009 C207.412276,436.741009 206.563276,446.950009 205.843276,457.101009 C203.933276,483.881009 202.393276,510.691009 201.223276,537.521009 C201.633276,537.351009 202.053276,537.200009 202.493276,537.081009 C204.513276,536.530009 206.534276,536.530009 208.553276,537.081009 C210.354609,537.584076 211.929453,538.463462 213.285939,539.732991 L213.573276,540.011009 C214.683276,541.040009 215.473276,542.261009 215.933276,543.671009 C216.58866,544.925471 216.920258,546.266843 216.919423,547.700633 L216.912276,548.061009 C216.903276,550.120009 216.393276,552.030009 215.353276,553.811009 C214.343276,555.521009 212.983276,556.881009 211.273276,557.900009 C209.493276,558.931009 207.582276,559.441009 205.523276,559.450009 C205.303276,559.471009 205.082276,559.491009 204.863276,559.501009 C203.332276,559.561009 201.903276,559.241009 200.582276,558.551009 L200.383276,558.491009 C199.883276,572.101009 199.473276,585.721009 199.173276,599.341009 C198.903276,611.211009 198.543276,623.081009 198.303276,634.950009 L198.191794,640.88812 L197.974184,654.01059 C197.903451,659.407491 197.938045,664.574891 196.103376,669.664128 L195.883276,670.251009 C194.563276,673.650009 193.534276,678.381009 190.002276,680.271009 C187.183276,681.780009 183.383276,681.221009 181.763276,678.280009 C180.403276,675.821009 181.582276,672.280009 183.593276,670.620009 C183.553276,670.511009 183.493276,670.411009 183.443276,670.301009 C183.133276,669.400009 182.662276,668.551009 182.383276,667.641009 C181.502276,664.761009 181.743276,661.691009 181.733276,658.700009 C181.733276,653.421009 181.912276,648.141009 182.053276,642.870009 C182.363276,631.650009 182.723276,620.441009 183.162276,609.231009 C184.648651,571.626009 187.447423,534.021009 190.652933,496.521625 L191.740695,483.864793 C193.190031,467.034165 194.689942,450.185009 196.813276,433.441009 C196.912276,432.641009 197.013276,431.841009 197.123276,431.040009 C195.983276,430.471009 194.923276,429.681009 194.082276,428.801009 C190.713418,425.263152 188.669832,419.974938 186.753734,415.4184 L186.313276,414.381009 C184.233276,409.521009 182.313276,404.601009 181.323276,399.381009 L181.228541,398.900645 C180.776929,396.677948 179.885633,392.738152 182.243276,391.661009 C183.473276,391.101009 184.252276,391.501009 184.653276,392.731009 C184.704276,392.891009 184.662276,393.071009 184.573276,393.211009 C185.543276,394.700009 187.063276,396.091009 188.023276,397.471009 L191.308979,402.169231 L192.933276,404.530009 C194.993276,407.561009 197.193276,410.461009 199.463276,413.321009 C201.252276,400.761009 203.443276,388.251009 206.853276,376.021009 Z M341.593376,655.911309 C345.703376,652.690309 352.393376,654.440309 352.393376,660.381309 C352.393376,666.350309 345.693376,668.071309 341.593376,664.850309 L341.389251,664.699434 L341.193376,664.540309 C338.960626,662.796034 338.885794,658.25502 341.024493,656.36164 L341.193376,656.221309 C341.322376,656.110309 341.453376,656.011309 341.593376,655.911309 Z M162.902976,644.310209 C164.762976,644.310209 166.492976,644.780209 168.102976,645.721209 C168.802976,646.251209 169.492976,646.790209 170.192976,647.331209 C171.472976,648.610209 172.352976,650.131209 172.842976,651.881209 L173.213976,654.620209 C173.262976,656.040209 172.972976,657.360209 172.322976,658.591209 C171.902976,659.870209 171.192976,660.980209 170.192976,661.911209 C169.252976,662.921209 168.152976,663.631209 166.873976,664.040209 C165.745559,664.636042 164.542358,664.938695 163.255899,664.938695 L162.902976,664.931209 C161.033976,664.931209 159.302976,664.461209 157.692976,663.520209 C156.992976,662.991209 156.302976,662.450209 155.602976,661.911209 C154.332976,660.631209 153.442976,659.110209 152.953976,657.360209 C152.832976,656.450209 152.713976,655.530209 152.582976,654.620209 C152.533976,653.200209 152.832976,651.881209 153.472976,650.650209 C153.892976,649.370209 154.602976,648.261209 155.602976,647.331209 C156.543976,646.321209 157.642976,645.610209 158.922976,645.200209 C160.050476,644.605292 161.262003,644.303633 162.549856,644.302932 L162.902976,644.310209 Z M630.662776,625.290009 L633.283776,625.641009 C635.793776,626.211009 637.812776,628.061009 639.162776,630.171009 C639.883776,631.301009 640.272776,632.521009 640.332776,633.831009 C640.623776,635.131009 640.562776,636.441009 640.152776,637.751009 C639.852776,639.030009 639.263776,640.150009 638.392776,641.101009 C638.093776,641.571009 637.742776,642.001009 637.343776,642.381009 C636.522776,643.751009 635.283776,644.650009 634.002776,645.571009 C632.923776,646.261009 631.752776,646.631009 630.492776,646.691009 C629.662776,646.911009 628.822776,646.911009 627.982776,646.691009 C626.732776,646.631009 625.562776,646.261009 624.482776,645.571009 C623.843776,645.081009 623.203776,644.581009 622.572776,644.091009 C622.013776,643.441009 621.492776,642.771009 621.002776,642.071009 C620.673776,641.301009 620.352776,640.540009 620.033776,639.780009 C619.442776,637.950009 619.732776,636.331009 620.053776,634.501009 C620.102776,634.191009 620.183776,633.911009 620.293776,633.610009 L620.50966,633.029165 C621.085269,631.509882 621.392776,630.994325 622.412776,629.671009 L622.801768,629.150881 C622.996216,628.891729 623.195776,628.638409 623.423776,628.411009 C624.062776,627.751009 624.973776,627.200009 625.692776,626.631009 C627.232776,625.741009 628.892776,625.301009 630.662776,625.290009 Z M291.482976,618.890909 C292.932976,618.900909 294.293976,619.260909 295.552976,619.990909 L297.192976,621.260909 C298.192976,622.270909 298.882976,623.449909 299.272976,624.821909 C299.362976,625.539909 299.463976,626.260909 299.562976,626.970909 C299.602976,628.080909 299.373976,629.119909 298.862976,630.090909 C298.543976,631.090909 297.982976,631.949909 297.192976,632.690909 C296.463976,633.470909 295.592976,634.030909 294.592976,634.360909 C293.720248,634.815455 292.781405,635.055124 291.78396,635.057378 L291.482976,635.050909 C290.022976,635.050909 288.662976,634.680909 287.402976,633.949909 L285.762976,632.690909 C284.762976,631.680909 284.072976,630.490909 283.682976,629.119909 C283.592976,628.400909 283.492976,627.690909 283.392976,626.970909 C283.352976,625.860909 283.582976,624.821909 284.092976,623.860909 C284.422976,622.860909 284.972976,621.990909 285.762976,621.260909 C286.492976,620.470909 287.362976,619.910909 288.362976,619.590909 C289.235976,619.131909 290.157576,618.899709 291.149646,618.887019 L291.482976,618.890909 Z M225.153376,615.580809 C227.242376,615.560809 229.363376,616.150809 231.073376,617.360809 C232.733376,618.539809 233.992376,619.810809 234.803376,621.720809 C235.023376,622.241809 235.242376,622.750809 235.433376,623.270809 C236.293376,625.560809 236.453376,627.860809 235.263376,630.100809 C234.113376,632.270809 231.633376,633.220809 229.412376,633.869809 C227.533376,634.430809 225.403376,634.520809 223.533376,633.850809 C222.603376,633.520809 221.693376,633.170809 220.853376,632.660809 C219.283376,631.690809 218.433376,630.539809 217.383376,629.119809 C216.563376,627.720809 216.153376,626.199809 216.153376,624.580809 C216.153376,622.949809 216.563376,621.440809 217.383376,620.030809 C218.992376,617.280809 221.973376,615.600809 225.153376,615.580809 Z M119.152976,617.510909 C121.793976,617.510909 124.112976,618.730909 125.703976,620.789909 C127.312976,622.880909 127.902976,625.480909 127.192976,628.071909 C126.442976,630.810909 124.173976,633.210909 121.362976,633.900909 C119.283976,634.410909 117.582976,634.390909 115.512976,634.039909 C113.762976,633.740909 112.423976,632.699909 111.082976,631.619909 C109.552976,630.369909 109.082976,628.090909 109.332976,626.250909 C109.572976,624.410909 110.423976,623.210909 111.713976,622.119909 L111.722976,622.090909 L111.242976,622.460909 C111.423976,622.300909 111.602976,622.130909 111.783976,621.960909 C111.842976,621.860909 111.892976,621.750909 111.942976,621.640909 C112.682976,620.380909 113.682976,619.390909 114.932976,618.650909 C116.242976,617.890909 117.642976,617.510909 119.152976,617.510909 Z M734.742676,587.221209 C736.192676,586.831209 737.652676,586.831209 739.102676,587.221209 C740.173676,587.471209 741.102676,587.961209 741.893676,588.690209 C742.694676,589.212209 743.349066,589.880009 743.843724,590.708918 L744.002676,590.991209 C745.143676,592.931209 745.322676,595.150209 744.832676,597.310209 C744.223676,599.980209 741.763676,602.411209 739.102676,603.040209 L739.013176,603.056959 L738.923676,603.081209 C737.843676,603.421209 736.752676,603.471209 735.673676,603.221209 C734.582676,603.171209 733.572676,602.851209 732.643676,602.251209 C731.463676,601.491209 730.473676,600.511209 729.713676,599.331209 C729.112676,598.391209 728.793676,597.381209 728.742676,596.290209 C728.553676,595.571209 728.553676,594.851209 728.742676,594.131209 C728.793676,593.040209 729.112676,592.030209 729.713676,591.091209 L730.992676,589.440209 L731.123676,589.331209 C732.143676,588.310209 733.352676,587.610209 734.742676,587.221209 Z M634.063176,534.300909 C647.173176,534.300909 647.153176,554.640909 634.063176,554.640909 C620.954176,554.640909 620.973176,534.300909 634.063176,534.300909 Z M154.082376,531.730909 C155.463376,531.420909 156.843376,531.480909 158.213376,531.910909 C159.043376,532.260909 159.863376,532.610909 160.683376,532.949909 L162.783376,534.571909 C163.173376,534.900909 163.363376,535.260909 163.723376,535.730909 L164.173424,536.319563 C164.82392,537.190381 164.839376,537.374509 165.553376,539.230909 C166.033376,541.010909 166.033376,542.789909 165.553376,544.571909 C165.322376,545.430909 164.973376,546.240909 164.523376,546.990909 C164.111947,547.710909 163.619702,548.342746 163.065533,548.924204 L162.783376,549.210909 C161.843376,550.220909 160.733376,550.930909 159.453376,551.350909 C158.643376,551.821909 157.773376,552.050909 156.843376,552.050909 C155.463376,552.360909 154.082376,552.300909 152.713376,551.869909 C151.883376,551.520909 151.063376,551.170909 150.242376,550.830909 L148.143376,549.210909 L146.523376,547.110909 L146.006751,545.879284 L145.483376,544.640909 L145.113376,541.890909 C145.063376,540.460909 145.353376,539.140909 146.002376,537.900909 C146.252376,537.029909 146.693376,536.260909 147.332376,535.619909 C147.793376,534.840909 148.412376,534.220909 149.193376,533.760909 C149.832376,533.119909 150.603376,532.680909 151.473376,532.430909 C152.283376,531.960909 153.153376,531.730909 154.082376,531.730909 Z M802.502276,517.200409 C803.593276,517.161409 804.613276,517.390409 805.553276,517.890409 C805.883276,518.001409 806.204276,518.140409 806.513276,518.301409 C807.723276,519.010409 808.683276,519.970409 809.393276,521.171409 C809.973276,522.091409 810.293276,523.081409 810.343276,524.150409 C810.560548,525.114955 810.540631,526.086112 810.279016,527.051859 L810.193276,527.341409 C809.973276,528.131409 809.643276,528.860409 809.204276,529.530409 C809.162276,529.610409 809.113276,529.690409 809.053276,529.760409 C808.383276,530.821409 807.493276,531.690409 806.393276,532.341409 C805.173276,533.040409 803.863276,533.400409 802.443276,533.411409 C799.613276,533.411409 797.173276,531.881409 795.683276,529.530409 C795.473276,529.200409 795.353276,528.780409 795.204276,528.440409 C795.073276,528.120409 794.863276,527.711409 794.752276,527.341409 C794.373276,525.921409 794.373276,524.501409 794.752276,523.081409 C795.002276,522.040409 795.473276,521.131409 796.183276,520.360409 C796.752276,519.491409 797.502276,518.801409 798.433276,518.301409 C799.587122,517.627563 800.827027,517.268983 802.142767,517.209152 L802.502276,517.200409 Z M248.982676,507.251109 C250.367291,506.872648 251.744238,506.843535 253.119808,507.163772 L253.463676,507.251109 C254.562676,507.511109 255.513676,508.011109 256.332676,508.751109 C257.242676,509.351109 257.973676,510.141109 258.502676,511.120109 C259.263676,512.431109 259.643676,513.851109 259.652676,515.370109 C259.643676,516.891109 259.263676,518.311109 258.502676,519.620109 C257.752676,520.891109 256.742676,521.891109 255.473676,522.641109 L254.373676,523.171109 C253.453676,523.751109 252.473676,524.061109 251.412676,524.110109 C250.703676,524.301109 249.992676,524.301109 249.293676,524.110109 C248.572676,524.110109 247.902676,523.931109 247.283676,523.571109 C246.603676,523.381109 246.022676,523.040109 245.522676,522.540109 C244.652676,521.980109 243.973676,521.241109 243.473676,520.311109 L242.662676,518.400109 L242.383676,516.280109 L242.662676,514.171109 L243.103676,513.131109 C243.502676,511.700109 244.223676,510.461109 245.272676,509.411109 C246.322676,508.370109 247.562676,507.650109 248.982676,507.251109 Z M744.903476,490.381309 C746.362476,489.921309 747.813476,489.860309 749.263476,490.181309 C750.242476,490.181309 751.162476,490.431309 752.013476,490.931309 C752.943476,491.190309 753.742476,491.650309 754.423476,492.331309 C755.612476,493.100309 756.543476,494.120309 757.233476,495.390309 L758.332476,498.001309 C758.992476,499.690309 758.752476,502.181309 758.353476,503.881309 C758.023476,505.280309 757.383476,506.501309 756.433476,507.540309 C755.953476,508.350309 755.313476,508.991309 754.502476,509.471309 C753.576642,510.313726 752.508802,510.913302 751.297414,511.269268 L750.963476,511.360309 L750.843476,511.390309 C750.822476,511.400309 750.803476,511.400309 750.783476,511.400309 C750.773476,511.411309 750.752476,511.411309 750.742476,511.411309 C750.263476,511.530309 749.773476,511.600309 749.263476,511.620309 C747.813476,511.940309 746.362476,511.881309 744.903476,511.421309 C744.043476,511.060309 743.173476,510.690309 742.303476,510.321309 C741.563476,509.761309 740.832476,509.190309 740.093476,508.620309 C739.523476,507.881309 738.953476,507.140309 738.383476,506.411309 C737.582476,505.161309 737.153476,503.801309 737.093476,502.350309 C736.832476,501.381309 736.832476,500.421309 737.093476,499.450309 C737.093476,498.461309 737.343476,497.551309 737.832476,496.700309 C738.273476,495.341309 739.023476,494.171309 740.093476,493.181309 C740.832476,492.610309 741.563476,492.040309 742.303476,491.480309 C743.173476,491.110309 744.043476,490.741309 744.903476,490.381309 Z M107.103476,454.580909 C108.612476,454.170909 110.123476,454.170909 111.633476,454.580909 L113.662476,455.430909 C114.662476,455.970909 115.453476,456.699909 116.053476,457.630909 C116.813476,458.449909 117.322476,459.420909 117.582476,460.530909 C118.173476,462.050909 118.103476,464.460909 117.633476,466.010909 C117.103476,467.770909 116.283476,469.170909 115.013476,470.490909 C112.903476,472.670909 109.662476,473.300909 106.793476,472.640909 C106.002476,472.460909 105.252476,472.110909 104.572476,471.680909 C102.403476,470.340909 100.943476,468.000909 100.953476,465.410909 C100.953476,465.130909 100.973476,464.850909 101.013476,464.571909 C100.873476,464.000909 100.822476,463.410909 100.843476,462.789909 L101.143476,460.530909 L101.162476,460.470909 C101.563476,459.039909 102.283476,457.800909 103.332476,456.750909 C104.302629,455.790909 105.433825,455.095051 106.726848,454.679066 L107.053476,454.580909 L107.103476,454.580909 Z M861.693176,230.032009 C858.961176,207.635009 848.690176,183.539009 817.363176,196.691009 L815.036252,197.562735 C807.284775,200.497371 798.251787,204.352676 793.534176,211.131009 C790.284176,215.801009 791.383176,224.851009 790.934176,230.301009 C788.891176,248.021009 789.987176,265.716009 792.115176,283.361009 C794.862176,324.720009 786.166176,367.572009 768.853176,405.161009 C786.180176,433.196009 809.369176,459.345009 841.002176,471.030009 C842.340176,439.155009 848.581176,407.865009 855.223176,376.761009 L855.484666,375.404961 C858.140753,361.379475 859.470332,346.984728 868.682176,335.320009 C887.420176,314.977009 913.192176,326.491009 925.523176,293.811009 C922.933176,292.501009 924.363176,288.021009 927.484176,288.882009 C938.299176,290.801009 940.056176,270.752009 932.654176,265.921009 C924.941176,261.218009 932.706176,252.542009 929.423176,246.280009 C927.593176,243.581009 923.643176,243.491009 921.852176,240.380009 C917.106176,228.931009 940.858176,221.594009 912.926176,208.687009 C907.209176,206.654009 900.819176,207.915009 895.053176,207.892009 C886.571176,208.684009 879.830176,214.660009 872.073176,216.540009 C880.519176,238.409009 859.208176,259.468009 839.973176,242.001009 C829.506176,251.894009 817.801176,274.445009 843.244176,263.932009 C855.697176,255.621009 866.418176,244.878009 880.874176,239.760009 L881.179718,239.664685 C886.54591,237.906473 910.028416,226.497529 908.864176,236.372009 C900.068176,244.861009 885.561176,244.761009 875.374176,251.652009 C861.251176,258.183009 852.220176,274.009009 835.313176,273.790009 C831.415176,297.457009 858.272176,283.057009 868.273176,276.530009 L871.046092,275.025499 C885.152913,267.405118 899.471945,260.344855 915.923176,260.251009 C920.463176,260.221009 920.443176,267.221009 915.923176,267.281009 C894.483176,267.415009 877.033176,280.816009 859.073176,290.780009 C857.305176,304.595009 877.536176,298.547009 885.213176,296.509009 C893.262176,295.378009 906.189176,286.672009 913.234176,291.271009 C915.989176,298.350009 903.864176,297.823009 899.643176,299.971009 C918.915176,309.227009 902.030176,315.056009 896.863176,300.831009 L895.349682,301.346634 C882.444684,305.683361 851.152256,314.610209 854.874176,292.751009 C850.151176,294.841009 844.392176,296.091009 839.173176,294.931009 C826.158176,314.181009 805.397176,306.732009 835.573176,293.611009 C828.773176,290.448009 826.502176,278.236009 833.034176,273.691009 C809.281176,272.241009 826.916176,247.320009 836.747176,239.015009 C835.819176,238.077009 834.920176,237.120009 834.082176,236.151009 C828.413176,238.851009 822.454176,240.491009 816.082176,241.071009 C809.983176,241.620009 808.624176,231.241009 814.643176,230.391009 C821.093176,229.481009 827.034176,227.761009 832.713176,224.520009 C841.321176,220.803009 844.259176,236.775009 852.874176,237.341009 C857.573176,238.271009 860.752176,234.151009 861.693176,230.032009 Z M661.713876,436.120609 C663.793876,436.120609 665.642876,436.991609 667.152876,438.370609 C668.662876,439.750609 669.312876,441.821609 669.402876,443.800609 C669.442876,444.860609 669.222876,445.850609 668.742876,446.770609 C668.432876,447.720609 667.902876,448.540609 667.152876,449.241609 C665.752876,450.630609 663.682876,451.491609 661.713876,451.491609 C659.633876,451.491609 657.783876,450.620609 656.272876,449.241609 C654.763876,447.850609 654.112876,445.790609 654.022876,443.800609 C653.982876,442.750609 654.203876,441.760609 654.682876,440.840609 C654.961876,439.985609 655.419076,439.227809 656.054476,438.581789 L656.272876,438.370609 C657.673876,436.970609 659.742876,436.120609 661.713876,436.120609 Z M724.739751,388.694603 L725.072876,388.700209 C726.832876,388.711209 728.463876,389.150209 729.982876,390.030209 C730.642876,390.540209 731.302876,391.040209 731.953876,391.551209 C733.162876,392.770209 733.992876,394.200209 734.453876,395.851209 C734.923876,397.571209 734.923876,399.301209 734.453876,401.020209 C734.293876,402.011209 733.923876,402.971209 733.343876,403.801209 C732.482876,405.230209 731.343876,406.381209 729.902876,407.230209 C728.412876,408.101209 726.802876,408.530209 725.072876,408.540209 C723.343876,408.530209 721.732876,408.101209 720.242876,407.230209 C718.802876,406.381209 717.662876,405.230209 716.812876,403.801209 C716.222876,402.971209 715.852876,402.011209 715.692876,401.020209 C715.222876,399.301209 715.222876,397.571209 715.692876,395.851209 C716.120018,394.318138 716.866192,392.975622 717.939403,391.815657 L718.192876,391.551209 C719.072876,390.601209 720.112876,389.931209 721.322876,389.540209 C722.386209,388.981959 723.525167,388.69932 724.739751,388.694603 Z M243.742376,389.230109 C244.483376,389.030109 245.213376,389.030109 245.953376,389.230109 C247.053376,389.280109 248.082376,389.610109 249.033376,390.211109 C249.593376,390.650109 250.153376,391.081109 250.713376,391.511109 L251.201586,392.097022 C252.245176,393.368277 252.271576,393.585109 253.072376,395.521109 C253.403376,396.601109 253.453376,397.681109 253.213376,398.761109 C253.213376,399.491109 253.023376,400.171109 252.662376,400.801109 C252.463376,401.491109 252.123376,402.091109 251.613376,402.591109 C251.252376,403.200109 250.773376,403.690109 250.162376,404.051109 C249.383376,404.761109 248.463376,405.251109 247.403376,405.501109 L245.252376,405.790109 C244.973376,405.751109 244.683376,405.711109 244.403376,405.681109 C244.065876,405.670609 243.737938,405.632547 243.417032,405.570718 L243.092376,405.500109 L242.796704,405.421205 C242.405056,405.306709 242.023776,405.154709 241.653376,404.961109 C240.953376,404.761109 240.343376,404.411109 239.822376,403.891109 C238.923376,403.311109 238.203376,402.530109 237.683376,401.561109 L237.543376,401.241109 C237.353376,400.900109 237.193376,400.551109 237.072376,400.171109 C236.733376,399.571109 236.563376,398.931109 236.553376,398.241109 C236.354476,397.323109 236.367796,396.413209 236.605729,395.50339 L236.693376,395.200109 L237.463376,393.370109 C237.863376,392.751109 238.283376,392.120109 238.822376,391.610109 C239.147276,391.322109 239.941166,390.702819 240.388295,390.392301 L240.662376,390.211109 C241.613376,389.610109 242.643376,389.280109 243.742376,389.230109 Z M136.113276,371.520809 C140.162276,375.571809 138.373276,383.010809 132.704276,384.450809 L132.053276,384.610809 C126.573276,386.000809 121.633276,381.050809 123.023276,375.571809 L123.183276,374.930809 C124.623276,369.260809 132.063276,367.470809 136.113276,371.520809 Z M809.552976,328.680509 C809.512976,328.120509 810.232976,327.921509 810.592976,328.251509 C815.412976,332.571509 818.482976,337.751509 824.332976,341.100509 C830.213976,344.461509 836.272976,344.190509 842.402976,346.360509 C844.482976,347.100509 844.492976,349.881509 842.402976,350.610509 C830.802976,354.661509 810.432976,340.930509 809.552976,328.680509 Z M264.502876,327.801009 C265.793876,327.401009 267.093876,327.341009 268.383876,327.631009 C269.263876,327.631009 270.082876,327.851009 270.832876,328.290009 C271.662876,328.521009 272.373876,328.941009 272.982876,329.540009 C273.713876,329.971009 274.293876,330.561009 274.732876,331.290009 C275.593876,332.231009 276.173876,333.331009 276.472876,334.591009 L276.812876,337.181009 L276.472876,339.771009 C276.142876,340.540009 275.812876,341.321009 275.492876,342.091009 L274.599354,343.301701 C273.875254,344.267454 273.759309,344.277676 272.002876,345.581009 C270.883876,346.290009 269.673876,346.681009 268.383876,346.731009 C267.522876,346.971009 266.662876,346.971009 265.793876,346.731009 C264.923876,346.731009 264.102876,346.511009 263.343876,346.071009 C262.522876,345.841009 261.803876,345.421009 261.192876,344.821009 C260.133876,344.131009 259.303876,343.221009 258.692876,342.091009 C258.362876,341.321009 258.033876,340.540009 257.713876,339.771009 L257.362876,337.181009 L257.713876,334.591009 L257.732876,334.511009 C258.192876,332.891009 259.013876,331.481009 260.192876,330.290009 L262.133876,328.790009 C262.892876,328.301009 263.682876,328.051009 264.502876,327.801009 Z M731.313476,329.741209 C734.082476,328.980209 737.123476,329.780209 739.152476,331.811209 C741.183476,333.841209 741.983476,336.870209 741.223476,339.641209 C740.473476,342.341209 738.303476,344.530209 735.593476,345.261209 C734.783476,345.480209 733.963476,345.601209 733.133476,345.561209 C731.742476,345.551209 730.443476,345.200209 729.233476,344.501209 L727.673476,343.290209 C726.912476,342.591209 726.383476,341.761209 726.072476,340.801209 C725.582476,339.881209 725.362476,338.891209 725.402476,337.821209 L725.393476,337.631209 C725.362476,337.251209 725.412476,336.870209 725.533476,336.501209 C725.533476,336.110209 725.593476,335.730209 725.693476,335.360209 C726.423476,332.661209 728.623476,330.480209 731.313476,329.741209 Z M134.153276,302.661709 C135.043276,302.630709 135.873276,302.810709 136.643276,303.220709 C137.453276,303.480709 138.143276,303.920709 138.723276,304.560709 C139.363276,305.140709 139.803276,305.840709 140.063276,306.640709 C140.473276,307.411709 140.653276,308.241709 140.623276,309.130709 C140.623276,310.300709 140.323276,311.390709 139.743276,312.390709 C139.403276,312.831709 139.063276,313.270709 138.723276,313.700709 C137.923276,314.510709 136.973276,315.060709 135.873276,315.370709 L135.233276,315.590709 C134.293276,315.930709 133.373276,315.950709 132.393276,315.821709 C131.363276,315.680709 130.412276,315.400709 129.573276,314.760709 C128.752276,314.280709 128.103276,313.630709 127.623276,312.810709 L127.073276,311.510709 C126.953276,311.071709 126.903276,310.411709 126.873276,309.950709 C126.873276,309.880709 126.873276,309.821709 126.863276,309.750709 C126.863276,309.360709 126.983276,308.411709 127.082276,308.020709 C127.303276,307.200709 127.752276,306.420709 128.263276,305.760709 C128.703276,305.071709 129.303276,304.530709 130.043276,304.130709 L130.109151,304.080709 L130.183276,304.030709 C130.412276,303.870709 130.653276,303.710709 130.893276,303.539709 C131.893276,302.960709 132.983276,302.661709 134.153276,302.661709 Z M650.543676,295.560709 C652.143676,295.560709 653.633676,295.970709 655.013676,296.770709 C655.062676,296.789709 655.112676,296.810709 655.152676,296.831709 C656.473676,297.610709 657.522676,298.661709 658.303676,299.980709 C659.103676,301.350709 659.502676,302.831709 659.502676,304.411709 C659.502676,306.000709 659.103676,307.470709 658.303676,308.840709 C657.522676,310.161709 656.473676,311.210709 655.152676,311.991709 C655.112676,312.020709 655.062676,312.039709 655.013676,312.060709 C653.633676,312.860709 652.143676,313.260709 650.543676,313.270709 C648.953676,313.260709 647.463676,312.860709 646.082676,312.060709 C643.383676,310.480709 641.692676,307.530709 641.692676,304.411709 C641.692676,301.289709 643.383676,298.340709 646.082676,296.770709 C647.463676,295.970709 648.953676,295.560709 650.543676,295.560709 Z M235.261368,283.997295 L235.533676,283.991609 C236.593676,283.950609 237.582676,284.170609 238.492676,284.661609 C239.442676,284.970609 240.272676,285.501609 240.973676,286.251609 L242.433676,287.470609 L242.857379,287.813868 C242.927231,287.872165 242.996009,287.931276 243.062676,287.991609 C244.043676,288.980609 244.713676,290.140609 245.093676,291.480609 C245.213676,292.251609 245.312676,293.010609 245.393676,293.780609 C245.612676,295.780609 244.433676,297.831609 243.133676,299.251609 C242.433676,300.001609 241.602676,300.530609 240.643676,300.850609 C239.723676,301.331609 238.723676,301.550609 237.662676,301.510609 C235.492676,301.321609 233.433676,300.860609 231.873676,299.180609 C231.692676,298.980609 231.522676,298.770609 231.343676,298.560609 L230.093676,297.120609 C229.143676,296.161609 228.482676,295.030609 228.123676,293.730609 C228.022676,293.040609 227.933676,292.360609 227.843676,291.680609 C227.752676,289.630609 228.752676,287.710609 230.093676,286.251609 C231.331771,284.899228 233.431544,284.072924 235.261368,283.997295 Z M184.783876,262.940609 C195.182876,262.940609 195.162876,279.071609 184.783876,279.071609 C174.392876,279.071609 174.412876,262.940609 184.783876,262.940609 Z M707.664661,240.325168 L707.992576,240.331009 C709.713576,240.341009 711.322576,240.771009 712.813576,241.641009 L714.752576,243.131009 C715.933576,244.331009 716.752576,245.731009 717.213576,247.351009 C717.322576,248.200009 717.433576,249.051009 717.553576,249.891009 C717.603576,251.211009 717.322576,252.441009 716.723576,253.581009 C716.343576,254.761009 715.683576,255.790009 714.752576,256.661009 C713.883576,257.591009 712.862576,258.251009 711.673576,258.631009 C710.533576,259.231009 709.303576,259.511009 707.992576,259.461009 C706.263576,259.450009 704.652576,259.021009 703.162576,258.151009 C702.513576,257.651009 701.873576,257.151009 701.223576,256.661009 C700.134345,255.553317 699.35186,254.27521 698.883985,252.810959 L698.773576,252.441009 L698.423576,249.891009 C698.373576,248.581009 698.652576,247.351009 699.252576,246.211009 C699.633576,245.021009 700.293576,244.001009 701.223576,243.131009 C702.093576,242.200009 703.123576,241.540009 704.303576,241.161009 C705.347659,240.611009 706.469048,240.329058 707.664661,240.325168 Z M660.822876,210.131309 C661.752876,210.100309 662.612876,210.290309 663.423876,210.711309 C664.252876,210.980309 664.972876,211.450309 665.582876,212.100309 C666.873876,213.131309 667.662876,215.190309 667.662876,216.860309 C667.662876,218.530309 666.873876,220.591309 665.582876,221.620309 C664.742876,222.450309 663.752876,223.030309 662.612876,223.350309 L660.822876,223.591309 C659.082876,223.671309 657.312876,222.761309 656.072876,221.620309 C655.822876,221.391309 655.582876,221.161309 655.332876,220.940309 C654.203876,219.900309 653.713876,218.350309 653.642876,216.860309 C653.612876,216.071309 653.783876,215.331309 654.142876,214.641309 C654.373876,213.921309 654.772876,213.310309 655.332876,212.780309 C655.582876,212.560309 655.822876,212.331309 656.072876,212.100309 C657.423876,210.850309 659.002876,210.221309 660.822876,210.131309 Z M957.603176,156.341009 C964.174176,148.337009 960.348176,142.640009 950.473176,144.620009 C933.463176,146.921009 917.454176,157.671009 902.473176,165.380009 C886.122176,174.016009 869.271176,181.139009 852.592176,189.254009 C859.474176,193.478009 864.592176,200.093009 868.502176,207.641009 C876.307176,201.714009 886.284176,198.880009 896.023176,198.511009 C913.692176,181.589009 942.953176,177.714009 957.603176,156.341009 Z M181.284276,182.911809 C183.066009,182.920209 184.735369,183.338902 186.299673,184.175206 L186.633276,184.360809 L188.773276,186.020809 C189.813276,186.980809 190.543276,188.119809 190.973276,189.430809 C191.633276,190.690809 191.933276,192.060809 191.883276,193.520809 C191.933276,194.980809 191.633276,196.340809 190.973276,197.600809 C190.543276,198.920809 189.813276,200.050809 188.773276,201.010809 C188.183276,201.780809 187.423276,202.380809 186.513276,202.821809 C185.662276,203.170809 184.823276,203.530809 183.973276,203.890809 C183.023276,204.190809 181.923276,204.230809 180.893276,204.280809 C179.023276,204.270809 177.284276,203.800809 175.662276,202.860809 L173.563276,201.241809 C172.553276,200.300809 171.832276,199.190809 171.412276,197.900809 C170.817359,196.765059 170.515769,195.552004 170.515769,194.256251 L170.523276,193.900809 C170.523276,193.821809 170.523276,193.730809 170.534276,193.640809 C170.653276,192.700809 170.784276,191.760809 170.912276,190.821809 C171.243276,189.440809 171.873276,188.230809 172.813276,187.210809 C173.053276,186.730809 173.373276,186.340809 173.784276,186.020809 C175.103276,184.700809 176.662276,183.800809 178.463276,183.289809 C179.403276,183.170809 180.343276,183.039809 181.284276,182.911809 Z M645.582776,156.420809 C646.932776,156.420809 648.182776,156.760809 649.343776,157.430809 C649.852776,157.821809 650.352776,158.210809 650.852776,158.600809 C651.783776,159.530809 652.423776,160.630809 652.772776,161.890809 L653.043776,163.869809 C653.072776,164.900809 652.862776,165.850809 652.392776,166.741809 C652.093776,167.660809 651.582776,168.460809 650.852776,169.140809 C650.182776,169.869809 649.383776,170.380809 648.453776,170.680809 C647.572776,171.150809 646.612776,171.360809 645.582776,171.321809 C644.242776,171.321809 642.982776,170.980809 641.822776,170.300809 C641.322776,169.920809 640.812776,169.530809 640.312776,169.140809 C639.469442,168.288309 638.861387,167.292962 638.496311,166.16247 L638.402776,165.850809 L638.133776,163.869809 C638.093776,162.840809 638.303776,161.890809 638.772776,161.000809 C639.072776,160.071809 639.593776,159.270809 640.312776,158.600809 C640.992776,157.869809 641.793776,157.360809 642.713776,157.060809 C643.513876,156.637809 644.371486,156.425409 645.278587,156.416319 L645.582776,156.420809 Z M239.734254,145.58537 L240.083076,145.590509 C242.073076,145.600509 243.923076,146.100509 245.643076,147.100509 C246.383076,147.671509 247.124076,148.241509 247.863076,148.821509 C249.233076,150.190509 250.173076,151.810509 250.704076,153.680509 L251.093076,156.600509 C251.153076,158.120509 250.833076,159.530509 250.143076,160.840509 C249.704076,162.211509 248.943076,163.390509 247.863076,164.390509 C246.874076,165.461509 245.693076,166.220509 244.323076,166.661509 C243.013076,167.350509 241.603076,167.671509 240.083076,167.610509 C238.093076,167.610509 236.243076,167.110509 234.523076,166.110509 C233.784076,165.540509 233.044076,164.961509 232.294076,164.390509 C230.933076,163.010509 229.993076,161.390509 229.463076,159.530509 L229.073076,156.600509 C229.013076,155.090509 229.333076,153.671509 230.023076,152.360509 C230.463076,151.001509 231.223076,149.810509 232.294076,148.821509 C233.294076,147.741509 234.473076,146.980509 235.843076,146.540509 C237.052306,145.903586 238.346744,145.59045 239.734254,145.58537 Z M610.013676,118.091309 C610.923676,117.850309 611.832676,117.850309 612.742676,118.091309 C614.102676,118.150309 615.373676,118.560309 616.553676,119.310309 L618.623676,120.911309 C618.652676,120.940309 618.683676,120.971309 618.713676,121.011309 C619.963676,122.270309 620.832676,123.761309 621.312676,125.471309 L621.673676,128.161309 C621.723676,129.551309 621.433676,130.850309 620.803676,132.051309 C620.427842,133.205392 619.807488,134.209066 618.952626,135.076965 L618.623676,135.400309 C617.692676,136.400309 616.602676,137.110309 615.332676,137.520309 C614.533676,137.991309 613.662676,138.221309 612.742676,138.221309 C611.383676,138.530309 610.013676,138.471309 608.652676,138.040309 C607.843676,137.690309 607.022676,137.350309 606.203676,137.011309 L605.942676,136.860309 C602.852676,135.171309 600.942676,131.631309 600.942676,128.161309 C600.942676,124.690309 602.852676,121.140309 605.942676,119.450309 C606.033676,119.411309 606.112676,119.360309 606.203676,119.310309 C607.383676,118.560309 608.652676,118.150309 610.013676,118.091309 Z" id="Ink" fill="#000"/></g></g><g id="Head" transform="translate(372.000000, 180.000000) scale(0.9978902953586498 1)"><g id="Head/Bangs" stroke="none" stroke-width="1" fill="none" fill-rule="evenodd"><path d="M431.629706,424.843986 C427.665706,418.982035 418.120706,376.442123 412.023706,369.899143 C412.483706,344.768912 419.43072,257.761904 399.58782,218.65 C403.76182,214.429198 414.853706,178.074468 412.023706,164.331066 C421.371706,135.549031 361.318706,89.8356357 338.463706,77.4827888 C232.242706,20.524077 78.3207063,83.3968248 30.0137063,188.911954 C0.984706316,252.456885 0.449706316,323.603191 -2.83229368,391.978213 C-3.22029368,406.613929 -4.56529368,421.363641 -4.55029368,435.981667 C-2.45129368,448.826859 7.73356322,461.907954 0.0125632248,472.589186 C-8.51643678,478.488481 -25.7542937,492.859796 -18.0792937,501.00953 C-13.5812937,504.754693 -6.39629368,502.581889 -1.51529368,506.182592 C0.969706316,507.573147 2.51970632,510.619593 5.42570632,511.083439 C31.9717063,510.075164 50.704178,509.988803 77.332178,508.91272 C88.989178,508.531423 106.739461,513.461631 120.119706,503.64618 C166.857567,529.641806 147.307822,491.92686 156.758822,465.074896 C185.538822,474.805834 242.868706,505.836673 273.545706,506.839052 C298.474706,509.919893 321.785706,495.402104 346.293706,498.707007 C376.740706,510.018166 412.422706,512.532958 440.311706,493.395381 C447.271706,488.382503 455.015041,494.189347 463.787041,488.776501 C480.836041,480.622836 440.233706,433.888982 431.629706,424.843986 Z" id="Skin" fill="#ffdbb4"/><path d="M30.0137063,188.911954 C78.3207063,83.3968248 232.242706,20.524077 338.463706,77.4827888 C361.318706,89.8356357 421.371706,135.549031 412.023706,164.331066 C414.163096,174.720639 408.346299,198.032308 403.576648,210.614674 C381.429062,226.983072 316.757737,223.585669 209.566625,200.423232 L205.451619,199.528895 L168.84803,221.218376 L153.812609,277.71671 C143.717724,287.704854 135.560532,299.899028 129.341035,314.299231 C119.252248,303.218202 106.729595,298.384943 91.7730757,299.799457 C77.185358,306.008486 66.4437224,312.773885 59.5481688,320.095655 C52.7905264,327.27099 52.6553735,343.358253 59.1427103,368.357445 L59.5481688,369.899143 L91.7730757,379.932345 L106.726898,379.932345 L147.812609,430.143425 L153.811808,481.795209 C152.461584,504.40661 157.564008,524.472723 120.119706,503.64618 C106.739461,513.461631 88.989178,508.531423 77.332178,508.91272 C50.704178,509.988803 31.9717063,510.075164 5.42570632,511.083439 C2.51970632,510.619593 0.969706316,507.573147 -1.51529368,506.182592 C-6.39629368,502.581889 -13.5812937,504.754693 -18.0792937,501.00953 C-25.7542937,492.859796 -8.51643678,478.488481 0.0125632248,472.589186 C7.73356322,461.907954 -2.45129368,448.826859 -4.55029368,435.981667 C-4.56529368,421.363641 -3.22029368,406.613929 -2.83229368,391.978213 L-2.54348708,385.817258 C0.507450916,319.341253 1.85557632,250.550537 30.0137063,188.911954 Z M403.067285,393.495082 L412.424639,358.054598 L412.217543,363.38545 C412.126617,365.862936 412.057577,368.048774 412.023706,369.899143 C418.120706,376.442123 427.665706,418.982035 431.629706,424.843986 L432.488041,425.757737 C442.61796,436.658292 480.324571,480.867446 463.787041,488.776501 C455.015041,494.189347 447.271706,488.382503 440.311706,493.395381 C412.422706,512.532958 376.740706,510.018166 346.293706,498.707007 C342.724265,498.225668 339.180215,498.122386 335.65286,498.287731 L334.199293,493.735957 L367.517112,465.074896 L403.067285,393.495082 Z" id="hair" fill="#D6B370"/><path d="M396.8226,215.3125 C396.4446,213.1415 399.4356,211.5225 400.5926,213.7225 C408.9976,229.7035 412.3646,248.2115 415.3416,265.8635 C418.3486,283.7015 420.3356,301.6135 420.4456,319.7215 C420.5296,333.6505 419.2646,347.7405 416.8896,361.6795 L417.1786,362.6715 L417.1786,362.6715 C417.711933,364.4935 418.250156,366.314167 418.794156,368.1335 L419.6146,370.8615 C421.2006,376.0995 422.7026,381.3615 424.3316,386.5865 C427.7326,397.4915 431.3136,408.4275 435.6996,418.9805 C439.9796,429.2785 445.1846,439.2095 451.3716,448.4915 C457.3346,457.4395 466.7976,465.0055 470.9986,474.9435 C472.4626,478.4065 470.2976,482.9845 466.2536,482.4315 C465.9906,482.7485 465.5896,482.9785 465.0456,483.0265 C461.9056,483.3005 458.9626,483.0395 455.8296,482.7455 C454.0806,482.5815 454.0836,480.1905 455.8296,480.0265 C457.1606,479.9015 458.4566,479.7915 459.7516,479.7165 C450.7916,474.4075 444.3996,464.0405 439.2886,455.5535 C432.7206,444.6495 427.7596,432.7355 423.7156,420.6875 C419.5626,408.3175 416.6216,395.6895 414.2586,382.8675 C413.9876,381.3915 413.7296,379.9145 413.4816,378.4355 C410.4956,391.1285 406.6506,403.5895 402.0936,415.5655 L401.455025,417.232433 C390.94979,444.465706 376.72164,471.96086 353.0566,489.9615 C351.9826,490.7775 350.8856,491.5525 349.7796,492.3105 L351.125881,493.082281 C352.46585,493.847375 353.78585,494.58125 355.0766,495.1835 C359.8586,497.4145 365.0496,499.1155 370.1846,500.3205 C380.7906,502.8115 391.9286,502.0975 402.7486,502.4445 C406.2976,502.5585 408.3166,507.8795 404.6886,509.6075 C392.7376,515.2985 379.8296,514.0905 367.4936,510.0865 C361.3896,508.1035 355.6616,505.3285 350.3626,501.7055 C348.1716,500.2085 345.6276,498.3605 343.4796,496.2245 C319.8126,509.4665 290.3966,510.9485 264.0546,506.2125 C250.3656,503.7505 237.1006,499.2555 225.4296,491.5665 C214.2036,484.1725 206.2016,474.8105 200.4886,462.6815 C199.9816,461.6065 201.3906,460.2675 202.2556,461.3185 C220.2006,483.1135 251.0826,492.2075 278.2506,493.9375 C292.7466,494.8615 307.5756,494.0935 321.5126,489.7565 C334.7336,485.6405 346.0776,478.0965 355.5496,468.0635 C374.7486,447.7265 386.2526,420.0605 394.5146,393.7315 C403.5026,365.0885 407.7826,334.9525 408.6656,304.9765 C409.1126,289.7895 408.5496,274.4745 406.1646,259.4555 C403.7986,244.5605 399.4076,230.1445 396.8226,215.3125 Z M127.7717,86.2818 C129.0427,85.6358 129.9377,87.3168 128.8597,88.1438 C106.4827,105.3048 86.4427,127.0648 70.2227,150.0958 C40.3097,192.5728 21.1257,241.7268 12.2917,292.8028 C7.0757,322.9658 5.7137,353.5858 6.2347,384.1508 C6.4411,396.2924 7.13454,408.39688 7.905932,420.5052 L8.77677612,433.92717 C9.18117059,440.18044 9.51890069,446.380496 9.25782111,452.664174 L9.1867,454.1158 C8.7727,461.4278 9.4917,468.7988 7.6577,475.9318 C6.7167,479.5898 1.5577,480.1658 -0.3103,476.9728 C-0.6763,476.3478 -1.0183,475.7028 -1.3503,475.0518 C-5.7283,482.1918 -11.3983,488.5748 -17.6893,494.2768 C-14.6823,493.6368 -11.6463,493.2288 -8.5293,493.6018 C-3.5883,494.1938 0.8437,496.1018 3.9797,499.4458 C7.0927,498.0428 10.2937,497.0768 13.9747,497.0568 C16.6857,497.0428 18.7187,500.2478 17.1717,502.6288 C14.0857,507.3808 9.7797,510.0448 4.8867,512.6778 C1.41905294,514.544467 -2.71948993,512.948042 -3.99993146,509.257721 L-4.0733,509.0338 C-5.5143,504.3658 -13.1783,505.1198 -16.7943,505.8418 L-17.858457,506.059087 C-24.5893875,507.459612 -31.1622,509.2525 -38.0193,507.4038 C-42.4423,506.2108 -43.5983,499.5528 -39.3343,497.3428 C-25.8643,490.3628 -14.5563,480.9868 -2.9353,471.5728 C-5.5013,465.2818 -6.9583,458.2528 -8.6383,451.8558 C-11.0033,442.8518 -11.6943,433.1638 -12.5483,423.9148 C-14.1713,406.3298 -14.7903,388.5538 -14.6163,370.8998 C-14.0273,311.2718 -3.8293,251.4588 22.2197,197.4638 C33.6317,173.8108 48.6237,151.9238 66.3447,132.5508 C83.9607,113.2918 104.5357,98.0838 127.7717,86.2818 Z M106.9166,378.2956 C106.2256,377.3376 107.5746,376.0706 108.5206,376.6916 C129.0016,390.1446 143.2146,410.5726 152.3856,433.0136 C161.4636,455.2306 167.0376,482.4436 158.0846,505.6116 C156.6596,509.3016 149.8346,510.6716 149.1356,505.6116 C146.0146,483.0156 145.5296,460.3876 138.6666,438.4196 C131.8626,416.6426 120.2206,396.7006 106.9166,378.2956 Z M91.0362,451.6525 C91.1482,451.2535 91.8002,451.3225 91.7722,451.7525 C91.2592,459.7205 90.9112,467.7855 89.9092,475.7095 C89.4222,479.5605 88.7782,483.3865 88.2302,487.2285 C87.6682,491.1685 87.7532,495.1465 85.4622,498.5115 C82.4262,502.9725 74.3602,501.7175 74.6312,495.5785 C74.8182,491.3435 76.7642,488.6255 78.5872,484.9085 C79.7565333,482.525167 80.7756444,480.061833 81.7580148,477.587241 L83.2182,473.8755 C86.1202,466.5145 88.8972,459.2775 91.0362,451.6525 Z M54.3614,430.5451 C54.4854,429.9181 55.4964,430.0691 55.4664,430.6941 C54.9194,441.9721 53.6474,453.1231 51.6554,464.2361 C50.74715,469.301475 49.6880719,474.338522 48.5679352,479.361309 L48.0844,481.5131 C46.8864,486.8031 46.1134,493.0221 43.4294,497.7481 C40.7474,502.4711 34.3794,499.0411 35.2044,494.2801 C36.1684,488.7221 39.5794,483.1311 41.5624,477.7931 C43.3924,472.8651 44.9924,467.8501 46.4874,462.8111 C49.6344,452.2041 52.2154,441.3981 54.3614,430.5451 Z M122.657681,461.8551 L122.8961,461.6105 C123.8281,460.5975 125.2181,461.2725 125.6631,462.3415 C127.4851,466.7225 126.5731,471.8885 126.4431,476.5395 L126.418944,477.553759 C126.321989,482.265242 126.3895,486.678167 124.2531,491.0275 C121.6591,496.3085 114.8241,493.0285 114.2951,488.3305 C113.7171,483.2035 116.1421,478.1845 117.7081,473.3825 C118.7031,470.3305 119.4281,467.1565 120.9411,464.3865 C119.6471,464.6095 118.3551,465.0565 117.1721,465.3795 C116.6421,465.5225 116.4421,464.7445 116.9481,464.5645 C118.90415,463.87195 121.111997,463.351777 122.657681,461.8551 L122.657681,461.8551 Z M395.3165,477.4021 C394.6915,476.7031 395.4705,475.7721 396.2815,476.1501 C406.0215,480.6991 415.1315,483.6581 425.8785,484.6271 C430.5355,485.0471 430.5645,492.3631 425.8785,491.9391 C414.6625,490.9291 402.9075,485.9001 395.3165,477.4021 Z M52.6412,323.7087 C61.2162,304.4197 88.3442,287.3087 106.5352,305.2467 C106.8762,305.5817 106.5292,306.3127 106.0342,306.1077 C94.7192,301.4187 80.8672,307.3827 73.0362,315.9127 C66.8232,322.6787 63.0902,331.3667 62.3492,340.5237 C61.6082,349.6887 63.7992,359.2547 69.8862,366.3437 C73.0792,370.0627 77.3912,373.5827 82.4652,374.0297 C87.5882,374.4807 91.8582,370.8727 96.7012,369.8927 C100.3522,369.1547 103.1082,371.4457 103.4662,375.0447 C104.2552,382.9877 96.3472,388.3187 89.4922,389.6137 C82.1182,391.0057 74.5922,389.4847 68.2382,385.4887 C47.7162,372.5827 43.2892,344.7477 52.6412,323.7087 Z M245.1865,134.6464 C248.9155,131.0824 255.2585,134.6254 253.8825,139.7094 C250.9565,150.5294 244.7375,159.6744 237.8475,168.3544 C231.2185,176.7054 224.1165,184.7304 216.5045,192.1994 C208.9425,199.6194 200.7265,206.4854 192.0915,212.6184 L189.490857,214.460488 C183.370984,218.774525 176.888875,223.137275 170.0385,226.2444 C168.3845,240.4944 165.1485,254.5544 160.2525,268.0154 C155.5375,280.9774 149.5375,293.5044 142.2675,305.2274 L141.223628,306.906358 C134.54305,317.612813 126.50985,329.5783 115.1735,335.4474 C114.8335,335.6244 114.4925,335.7324 114.1565,335.7954 C116.6925,337.4864 118.8355,339.6134 120.1095,342.6694 C121.5055,346.0154 118.5875,349.1724 115.7905,350.2774 C109.8755,352.6144 104.1055,348.6584 98.7885,344.4384 C98.5635,344.9444 98.3515,345.4554 98.1695,345.9704 C96.9805,349.3404 96.6305,352.7844 93.5645,355.0204 C92.1075,356.0834 90.3125,355.1324 89.3955,353.9284 C86.3895,349.9784 89.5015,344.5974 92.1445,341.3694 C92.5105,340.9234 92.8885,340.4994 93.2775,340.0924 C92.1605,339.2714 91.0705,338.5434 90.0145,337.9844 C83.8055,334.6964 74.6015,334.1134 71.0265,341.3924 C70.7525,341.9514 69.8914991,341.6624 69.8914991,341.0844 C69.9005,332.1434 79.0595,327.2874 87.0075,326.6274 C92.8145588,326.145518 98.4311678,328.182002 103.658071,330.553376 L104.6335,331.0014 C106.5785,331.9044 108.5825,332.7564 110.5005,333.7094 C110.1885,332.8864 110.1935,331.9184 110.6845,330.9584 C116.6955,319.2194 127.0175,309.6734 134.4615,298.8014 C141.8435,288.0154 148.1815,276.4724 153.2405,264.4194 C158.1505,252.7204 161.9975,240.6544 164.6875,228.3474 C163.8015,228.5304 162.8025,227.7414 162.8655,226.8164 C163.0155,224.5784 164.1105,222.5624 166.0335,221.7034 C168.1515,210.1274 169.2325,198.3554 169.1695,186.4884 C169.1645,185.5684 170.4975,185.6014 170.5755,186.4884 C171.5115,197.0394 171.5875,207.6934 170.8005,218.2854 C175.8025,213.6834 181.0775,209.3084 185.8935,204.5844 C193.1405,197.4764 200.1515,190.1784 206.9145,182.6094 C213.8145,174.8874 220.3365,166.8814 226.3005,158.4104 L229.421637,153.967988 C234.220399,147.157667 239.149821,140.418579 245.1865,134.6464 Z M235.777,58.6204 C276.933,56.0514 320.887,61.1094 357.855,80.4284 C378.158,91.0374 393.851,107.0724 405.064,127.0274 C411.759,138.9434 416.838,152.1384 418.762,165.7044 C420.738,179.6434 418.418,192.0724 409.518,203.1524 C405.983,207.5524 400.029,202.6374 400.9,198.1354 C406.228,170.5914 397.586,143.3774 382.259,120.5744 C360.018,87.4844 321.177,72.7854 283.36,66.2284 C264.78,63.0084 245.935,61.6624 227.085,62.3174 C212.714,62.8174 197.972,64.1564 184.334,68.9914 C183.759,69.1954 183.53,68.2994 184.084,68.0884 C200.352,61.8754 218.512,59.6984 235.777,58.6204 Z M296.815,120.9033 C298.934,119.5603 301.526,120.9383 302.254,123.1173 C304.822,130.7993 299.44,140.9483 295.84,147.5963 C291.766,155.1193 286.527,162.1533 281.117,168.7603 C270.294,181.9743 256.069,193.0003 240.459,199.9303 C239.503,200.3553 238.389,199.2013 239.266,198.3853 C251.344,187.1383 262.295,175.0803 271.775,161.5533 C276.433,154.9063 280.318,147.8943 284.028,140.6913 C287.348,134.2453 290.47,124.9253 296.815,120.9033 Z M366.0327,129.9528 C367.3867,125.2248 375.0987,126.0298 374.7797,131.1368 C373.9547,144.3298 367.7307,157.5728 360.9677,168.7538 C354.0037,180.2668 345.1847,190.5268 335.0757,199.3878 C334.5777,199.8248 333.8957,199.1518 334.3467,198.6588 C343.0687,189.1108 350.1137,178.2348 355.3307,166.3988 C360.5417,154.5798 362.5087,142.2478 366.0327,129.9528 Z M327.7033,127.8167 C329.1783,123.7057 336.2383,124.0107 335.8053,128.9137 C334.6153,142.3917 326.7053,156.5167 319.3793,167.6487 C311.6053,179.4597 301.6823,189.8647 290.5923,198.6037 C290.1773,198.9307 289.5903,198.3887 289.9953,198.0067 C299.9563,188.6217 308.0343,177.7807 314.4293,165.6887 C317.6933,159.5187 320.4313,153.0937 322.5933,146.4567 C324.5933,140.3167 325.5323,133.8687 327.7033,127.8167 Z" id="Ink" fill="#000"/></g></g><g id="Face" transform="translate(531.000000, 366.000000) scale(1 1)" fill="#000"><g id="Face/Smile Big" stroke="none" stroke-width="1" fill="none" fill-rule="evenodd"><path d="M79.1996019,197.798966 C90.1214942,191.222404 130.944848,196.042976 163.01327,197.798966 C188.478595,199.193385 206.667356,196.429949 212.488767,200.348155 C225.641067,209.200546 219.252652,252.006116 196.589222,257.86012 C173.925792,263.714125 89.9129827,271.890526 75.4275085,257.86012 C60.9420343,243.829714 59.6047058,209.597931 79.1996019,197.798966 Z" id="teeth" fill="#FFF"/><path d="M93.3467129,186.476493 C110.488788,184.396013 127.104995,189.644043 143.862898,192.289481 C152.710839,193.685435 161.569756,194.727668 170.523469,195.115267 C172.32459,195.193982 174.126708,195.239817 175.928826,195.276684 C176.096465,193.690417 176.984552,192.233683 178.908408,191.360838 C182.851913,189.573299 186.008114,188.767213 190.337788,188.93959 C194.301251,189.096024 198.278683,189.503551 202.181276,190.217969 C209.268011,191.517272 216.386677,194.465615 221.570511,199.588099 C233.567668,211.441255 231.741602,230.480436 222.47157,243.39077 C203.319435,270.068282 168.364112,271.306425 138.426282,270.958393 L135.66356,270.922255 C108.404278,270.532663 69.4042864,274.596972 57.019963,243.583075 C52.465773,232.178299 53.0984103,218.959081 58.6743992,208.020619 C65.3250733,194.973778 79.3249167,188.178341 93.3467129,186.476493 Z M178.495298,230.894938 L178.250824,230.904902 C165.682896,231.389151 153.116964,231.72992 140.542051,231.952117 C140.918241,235.181444 141.302413,238.411767 141.741468,241.63412 C142.085726,244.169954 142.454931,246.702799 142.839103,249.232654 C143.001753,250.303783 143.598468,251.966772 143.429831,253.027936 L143.368962,253.44742 L143.368962,253.44742 C144.014571,253.739364 144.600309,254.209664 145.03637,254.892197 C145.188043,255.128344 145.297807,255.366483 145.407571,255.603626 C155.170541,255.680348 165.676909,255.491033 175.629471,253.716447 L175.649428,253.500229 L175.649428,253.500229 C175.830039,252.228824 176.358899,251.372918 177.061386,250.786039 C177.76088,246.731694 177.697017,242.411311 177.967435,238.38885 C178.136071,235.889883 178.318678,233.392909 178.495298,230.894938 Z M130.93774,232.123497 C121.87903,232.277607 112.816379,232.396289 103.759597,232.285698 L99.6481393,232.22214 L99.6481393,232.22214 C100.516269,236.880303 101.461234,241.522523 102.246542,246.211574 C103.065777,251.098909 98.7640436,254.205679 95.0410632,254.080133 C95.4591626,254.148884 95.8762641,254.219628 96.2943635,254.278416 C107.926308,255.92347 120.004291,255.487047 131.808863,255.474094 C131.173731,251.767293 131.431054,247.584788 131.336033,244.49078 L131.317921,244.011527 C131.13731,240.046857 131.010583,236.085177 130.93774,232.123497 Z M69.4062821,231.268587 C69.720605,233.690832 70.3322874,236.061264 71.2473164,238.268286 C75.1139873,247.592582 83.9788918,251.943854 93.3586871,253.776231 C91.7311928,253.214262 90.4389764,251.864142 90.1126792,249.551502 C89.299431,243.801286 89.0070608,237.955417 88.9851081,232.116522 C82.448189,232.055742 75.8673645,231.916246 69.4062821,231.268587 Z M212.584867,229.277783 C207.930891,230.375814 202.522541,229.872633 197.956377,230.079884 C193.678592,230.274182 189.398811,230.443569 185.121025,230.616943 C185.322591,233.537386 185.519168,236.456834 185.732708,239.375285 C186.008114,243.147649 186.034059,247.134239 186.756502,250.890661 C195.365957,247.952282 203.08034,243.240314 208.867873,235.705549 C210.309767,233.828335 211.600986,231.625298 212.584867,229.277783 Z M91.3799494,201.775194 C83.6326376,203.609563 76.3004317,207.484557 72.3599198,214.573932 C70.020958,218.780726 68.9921741,223.766703 69.1897485,228.679944 C75.7376439,227.917699 82.3982965,227.628744 89.0270178,227.389608 C89.0489705,226.195923 89.0771321,225.003566 89.1129808,223.813719 L89.2151053,220.764114 C89.3957906,214.947692 89.4865796,207.643706 91.3799494,201.775194 Z M131.479572,202.48463 L128.069104,202.101567 C118.596243,201.022247 109.128468,199.889225 99.6551242,200.538664 C98.2840775,200.633321 96.892076,200.782781 95.4970809,200.987043 C97.1714741,207.029203 97.0307772,214.125552 97.7302705,220.106932 C98.000688,222.419573 98.3419529,224.713282 98.7201382,226.998024 L100.363598,226.921301 L100.363598,226.921301 C110.528702,226.370293 120.703784,226.031517 130.876871,225.627976 C130.876122,223.71788 130.8866,221.806663 130.917143,219.894746 L130.954703,217.982611 C131.070454,213.099262 130.755133,207.598146 131.479572,202.48463 Z M179.049105,201.709432 C169.127476,203.310644 158.873564,203.651412 149.127558,203.663369 C145.234942,203.668351 141.344323,203.429215 137.455699,203.084462 C137.709153,205.154977 137.84087,207.249407 138.031459,209.291027 C138.415432,213.416914 138.854327,217.536423 139.331283,221.652107 L139.756743,225.25333 L139.756743,225.25333 C152.260808,224.686379 164.763876,224.073594 177.264948,223.438888 L179.029148,223.344231 L179.029148,223.344231 L179.523638,216.423284 C179.860246,211.808262 180.23056,207.194273 180.753433,202.600212 L180.361278,202.458723 L180.361278,202.458723 C179.900271,202.269408 179.463213,202.008351 179.049105,201.709432 Z M183.357823,203.427223 C183.904645,209.952636 184.206994,216.504952 184.609128,223.041325 L192.850339,222.601065 C194.223751,222.526187 195.597126,222.449797 196.970501,222.370749 C202.310997,222.062862 209.173215,220.445708 214.452843,221.954255 C214.855974,217.154604 213.48393,212.478506 209.152261,209.254161 C201.547641,203.590632 191.864499,205.607342 183.357823,203.427223 Z M155.2009,145.0937 C167.4729,138.0657 198.2639,130.8827 200.2139,152.9677 C201.11069,163.130663 193.55511,171.551452 184.732334,175.308984 L184.4009,175.4477 C176.1259,178.8497 161.4589,182.6917 154.2979,175.3147 C148.3379,169.1747 156.2429,158.1657 163.6489,163.1957 C167.454921,165.779721 175.466095,163.875752 179.713009,162.646215 L179.9789,162.5687 C184.5619,161.2217 190.6719,156.9107 188.7769,151.2677 C187.0999,146.2757 179.9639,145.3637 175.4949,145.2017 C168.8239,144.9627 162.3319,146.5117 155.7219,147.0157 C154.6749,147.0957 154.3519,145.5797 155.2009,145.0937 Z M206.0359,109.581 C222.6919,108.801 233.0529,126.987 229.2229,141.888 C228.5609,144.459 225.6849,146.983 222.9089,146.694 L222.209444,146.629632 C221.8541,146.59548 221.4971,146.5506 221.1689,146.46 C218.5329,145.73 216.1699,142.988 216.3619,140.146 L216.412906,139.317884 C216.801522,132.278753 216.038672,124.168709 207.6729,122.464 C200.5779,121.018 196.6169,127.847 196.5329,134.133 C196.5169,135.249 195.2629,136.028 194.2759,135.428 C189.1469,132.307 188.2589,126.098 190.2179,120.751 C192.7009,113.976 198.9149,109.914 206.0359,109.581 Z M82.4329,113.4814 C94.5539,109.4374 107.6309,115.8984 113.4999,126.6144 C115.5589,127.2104 117.6149,128.7974 117.3289,131.2274 C116.9159,134.7234 116.2939,136.9274 113.8699,139.5784 C110.078488,143.725503 102.977604,141.605092 101.401739,136.499971 L101.3349,136.2694 C99.5449,129.6704 92.2809,125.3164 85.6639,127.6264 C77.9339,130.3244 78.1579,138.4884 72.7359,143.2444 C72.0989,143.8034 71.3349,143.8924 70.5709,143.5234 C64.8119,140.7404 65.8469,132.3644 67.8999,127.5704 C70.5929,121.2794 75.8269,115.6844 82.4329,113.4814 Z M65.9254,76.6741 C75.7474,66.6521 101.3594,56.9541 108.0784,75.4611 C109.3584,78.9861 106.6334,83.7391 102.9634,84.4701 C96.9534,85.6661 91.6214,83.0571 85.6514,83.5251 C80.8184,83.9061 75.7774,85.5211 71.9134,88.5151 C61.2114,96.8071 58.8574,110.8321 51.4004,121.3861 C51.0374,121.9001 50.3324,121.6841 50.2654,121.0781 C48.5674,105.7131 55.1674,87.6501 65.9254,76.6741 Z M194.0206,66.8082 C200.5386,64.5062 207.9196,64.7032 214.4716,66.7452 C221.0716,68.8032 227.1306,72.7112 231.7986,77.8172 C233.9166,80.1352 235.8766,82.6932 237.4486,85.4162 C238.2836,86.8592 239.1616,89.8402 240.1106,91.6152 C245.245093,94.5796058 247.439689,101.334701 242.842821,106.140464 L242.6356,106.3512 L242.0206,106.9612 C239.5496,109.4072 235.8236,110.4672 232.4506,109.4902 C224.9026,107.3062 223.9856,101.3612 221.3726,95.0512 C219.6466,90.8832 216.6896,87.1952 213.1046,84.4862 C204.6316,78.0862 190.7386,76.0472 180.5376,79.0632 C179.9946,79.2242 179.3566,78.5322 179.7436,78.0302 C181.6766,75.5262 182.7906,73.4712 185.3786,71.4512 C188.0056,69.4012 190.8726,67.9202 194.0206,66.8082 Z" id="Ink" fill="#000"/></g></g><g id="Beard" transform="translate(494.999934, 517.999659) scale(1 1)" fill="#000"><g id="Beard/None" stroke="none" stroke-width="1" fill="none" fill-rule="evenodd" fill-opacity="0"/></g><g id="Mask" transform="translate(400.000000, 480.000000) scale(1 1)" fill="#000"><g id="Mask/None" stroke="none" stroke-width="1" fill="none" fill-rule="evenodd" fill-opacity="0"/></g><g id="Accessories" transform="translate(419.000000, 421.000000) scale(1 1)" fill="#000"><g id="Accessories/None" stroke="none" stroke-width="1" fill="none" fill-rule="evenodd" fill-opacity="0"/></g></g></svg>