<svg viewBox="165.0270270270271 229.95000000000005 786.7567567567567 1130.5875" xmlns="http://www.w3.org/2000/svg" overflow="visible" xmlns:xlink="http://www.w3.org/1999/xlink" width="786.7567567567567px" height="1130.5875px"><g id="Master/Character/Bust" stroke="none" stroke-width="1" fill="none" fill-rule="evenodd"><g id="Body" transform="translate(147.000000, 639.000000) scale(1 1)"><g id="Body/Striped Tee" stroke="none" stroke-width="1" fill="none" fill-rule="evenodd"><path d="M47.4683166,592.465545 C44.4743166,619.911545 37.6923166,650.145545 50.6203166,676.040545 C42.4783166,676.405545 49.0833166,678.760545 53.4773166,679.570545 C55.9863166,681.512545 59.3583166,682.281545 62.5293166,682.011545 C78.9933166,685.491545 95.9893166,686.752545 112.706317,688.721545 C321.424317,706.057545 531.541317,701.453545 740.649317,693.983545 C747.450317,693.688545 752.013317,688.748545 752.534317,682.094545 C760.198317,584.172545 764.012317,485.947545 763.817317,387.726545 C760.412317,353.209545 786.501317,366.678545 772.584317,321.194545 C761.396317,273.219545 744.837317,226.522545 723.721317,182.026545 C709.125317,153.071545 695.372317,122.604545 673.125317,98.5935452 C666.095317,97.6225452 660.110317,90.6395452 654.169317,86.7395452 C648.152317,85.5675452 643.692317,80.4585452 637.594317,78.8875452 C625.973317,75.8645452 599.967317,69.4355452 590.070317,77.1675452 C589.679317,77.0605452 589.283317,76.9695452 588.892317,76.8585452 C586.955317,79.0065452 584.294317,77.3955452 582.849317,75.4655452 C577.904317,71.6265452 556.289913,71.2317705 553.836913,65.3397705 C541.048913,53.7397705 537.627417,29.3264475 537.627417,15.0437452 C532.845417,9.67074525 532.514317,10.6685452 526.023317,7.82854525 C519.659317,-0.198454755 511.971317,-7.19045475 503.390317,-12.7024548 C455.099317,-44.4104548 385.022317,-10.9984548 373.717317,44.1145452 C355.846317,58.2645452 337.451317,72.6385452 315.562317,80.0115452 C304.880317,74.5165452 292.711317,72.7625452 281.374317,72.7515452 C272.923317,72.4445452 261.245317,67.5575452 255.753317,76.4515452 C163.356317,106.698545 107.592317,194.669545 67.9403166,278.022545 C62.3823166,289.890545 55.7333166,302.316545 57.4343166,315.837545 C58.6033166,332.030545 76.1773166,341.668545 72.8563166,358.829545 C68.0293166,406.035545 62.5383166,453.193545 57.5133166,500.385545 C54.1643166,531.078545 50.8163166,561.772545 47.4683166,592.465545 Z" id="Skin" fill="#ffdbb4"/><path d="M255.753317,76.4515452 C261.245317,67.5575452 272.923317,72.4445452 281.374317,72.7515452 C292.711317,72.7625452 304.880317,74.5165452 315.562317,80.0115452 C315.99872,79.8645488 316.433735,79.7147696 316.867385,79.5622649 L317.500789,80.9675466 L270.994417,87.5197452 L294.446647,130.053196 C349.670607,181.717695 411.058804,204.679403 478.611238,198.938319 C545.488147,193.254645 591.448731,157.542449 616.492989,91.8017292 L617.245504,89.8003947 L585.434407,80.9675466 L585.433513,77.5945598 C586.59429,78.082 587.848439,78.0161341 588.892317,76.8585452 C589.283317,76.9695452 589.679317,77.0605452 590.070317,77.1675452 C599.967317,69.4355452 625.973317,75.8645452 637.594317,78.8875452 C643.692317,80.4585452 648.152317,85.5675452 654.169317,86.7395452 C660.110317,90.6395452 666.095317,97.6225452 673.125317,98.5935452 C695.372317,122.604545 709.125317,153.071545 723.721317,182.026545 C744.837317,226.522545 761.396317,273.219545 772.584317,321.194545 C781.491197,350.304305 774.011619,355.266916 768.364592,364.115796 L767.899003,364.186399 C760.24452,365.376185 753.116741,367.054634 746.515666,369.221745 C732.420616,373.849103 718.542941,379.697911 704.882641,386.76817 L703.307417,387.58939 L720.589928,694.69061 L709.799162,695.062308 C533.536874,701.079849 356.642354,704.397122 180.555863,693.605687 L197.026417,401.352403 L59.9959338,325.302726 C58.6488535,322.349839 57.6798189,319.238244 57.4343166,315.837545 C55.7333166,302.316545 62.3823166,289.890545 67.9403166,278.022545 C107.592317,194.669545 163.356317,106.698545 255.753317,76.4515452 Z" id="Top" fill="#78E185"/><path d="M723.417417,367.271745 C717.443417,369.434745 709.069417,371.542745 704.797417,376.429745 C704.305417,371.875745 703.807417,367.322745 703.307417,362.768745 C715.825417,362.471745 728.370417,362.363745 740.895417,362.013745 C734.983417,363.459745 729.140417,365.200745 723.417417,367.271745 M695.914417,653.719745 C691.606417,653.759745 687.284417,654.059745 682.979417,654.227745 C674.687417,654.548745 666.395417,654.865745 658.102417,655.176745 C641.185417,655.810745 624.268417,656.421745 607.349417,657.010745 C573.845417,658.175745 540.337417,659.250745 506.826417,660.237745 C439.805417,662.208745 372.750417,663.402745 305.738417,665.656745 C287.147417,666.281745 268.557417,666.767745 249.983417,667.779745 C240.358417,668.303745 230.688417,668.754745 221.109417,669.869745 C213.028417,670.809745 205.062417,672.395745 197.026417,673.577745 C197.565417,663.106745 198.070417,652.633745 198.595417,642.163745 C199.092417,632.257745 199.556417,622.350745 200.017417,612.442745 C231.386417,614.083745 262.792417,614.746745 294.203417,615.026745 C327.429417,615.323745 360.645417,616.147745 393.873417,616.211745 C459.654417,616.342745 525.441417,615.514745 591.220417,614.854745 C609.824417,614.666745 628.430417,614.480745 647.035417,614.293745 C656.337417,614.200745 665.640417,614.106745 674.942417,614.012745 C679.586417,613.966745 684.257417,614.065745 688.896417,613.873745 C693.848417,613.667745 696.855417,612.259745 700.449417,608.927745 C702.366417,607.150745 702.446417,603.531745 700.449417,601.768745 C697.565417,599.221745 694.888417,597.267745 690.890417,596.981745 C686.964417,596.700745 682.867417,597.086745 678.929417,597.138745 C670.291417,597.251745 661.653417,597.366745 653.015417,597.479745 C636.403417,597.698745 619.792417,597.916745 603.180417,598.134745 C569.956417,598.571745 536.732417,599.018745 503.510417,599.524745 C470.950417,600.021745 438.387417,600.391745 405.833417,601.209745 C372.594417,602.046745 339.394417,603.557745 306.163417,604.625745 C270.791417,605.761745 235.437417,607.118745 200.145417,609.772745 C200.993417,591.407745 201.774417,573.038745 202.509417,554.667745 C272.584417,558.481745 342.707417,561.196745 412.899417,561.315745 C486.027417,561.440745 559.151417,560.190745 632.252417,558.282745 C642.553417,558.012745 652.854417,557.740745 663.153417,557.417745 C668.469417,557.250745 673.785417,557.096745 679.101417,556.904745 C683.009417,556.762745 687.025417,556.595745 690.558417,554.726745 C697.530417,551.038745 698.733417,540.269745 690.461417,537.323745 C685.939417,535.713745 681.142417,537.287745 680.042417,541.364745 C679.704417,541.397745 679.382417,541.424745 679.101417,541.435745 C675.114417,541.585745 671.126417,541.696745 667.140417,541.822745 C658.501417,542.096745 649.863417,542.377745 641.224417,542.648745 C625.275417,543.147745 609.325417,543.608745 593.374417,544.030745 C560.808417,544.893745 528.238417,545.596745 495.665417,546.139745 C431.175417,547.213745 366.690417,548.206745 302.208417,549.680745 C269.002417,550.440745 235.806417,551.425745 202.604417,552.267745 C203.397417,532.298745 204.146417,512.329745 204.821417,492.358745 C204.900417,490.018745 204.986417,487.676745 205.071417,485.335745 C209.829417,486.381745 214.701417,486.960745 219.548417,487.646745 C227.959417,488.836745 236.396417,489.717745 244.843417,490.608745 C260.759417,492.287745 276.727417,493.317745 292.702417,494.199745 C325.271417,495.995745 357.849417,497.262745 390.452417,498.255745 C454.945417,500.219745 519.518417,500.647745 584.037417,500.426745 C619.072417,500.307745 654.320417,500.768745 689.338417,499.241745 C691.496417,499.831745 693.720417,499.770745 695.871417,499.067745 C697.637417,530.287745 699.502417,561.500745 701.335417,592.716745 C702.572417,613.777745 703.663417,634.909745 705.182417,655.977745 C702.215417,654.516745 699.484417,653.688745 695.914417,653.719745 M88.7824166,336.541745 C82.6384166,333.535745 75.8624166,330.792745 70.4384166,326.534745 C64.5094166,321.878745 63.0534166,316.412745 64.8754166,309.106745 C65.0114166,308.560745 65.1714166,308.017745 65.3134166,307.473745 C109.004417,307.580745 152.584417,305.657745 196.256417,304.620745 C240.626417,303.567745 284.980417,302.682745 329.362417,302.432745 C417.873417,301.934745 506.373417,303.930745 594.842417,306.415745 C626.703417,307.309745 658.563417,308.191745 690.425417,309.061745 C689.698417,316.829745 689.978417,324.788745 689.813417,332.501745 C689.668417,339.276745 689.706417,346.061745 689.807417,352.845745 C673.139417,352.804745 656.475417,352.444745 639.805417,352.256745 C598.536417,351.791745 557.289417,352.976745 516.030417,353.920745 C433.515417,355.808745 350.978417,357.293745 268.479417,359.778745 C246.072417,360.452745 223.521417,360.807745 201.011417,361.766745 C200.237417,358.106745 199.378417,354.464745 198.409417,350.846745 C196.869417,345.098745 195.131417,339.190745 190.526417,335.197745 C190.305417,335.004745 189.999417,335.088745 189.900417,335.362745 C188.151417,340.209745 188.593417,345.144745 189.105417,350.223745 C189.510417,354.235745 189.784417,358.258745 189.987417,362.286745 C175.990417,363.022745 162.022417,364.057745 148.127417,365.608745 C144.154417,363.645745 140.179417,361.686745 136.198417,359.737745 C120.395417,352.000745 104.587417,344.273745 88.7824166,336.541745 M596.013417,480.869745 C563.414417,481.132745 530.813417,481.160745 498.215417,480.951745 C433.688417,480.537745 369.182417,478.950745 304.669417,477.668745 C286.714417,477.313745 268.783417,476.960745 250.825417,476.959745 C241.528417,476.959745 232.200417,477.021745 222.913417,477.424745 C217.068417,477.678745 211.142417,477.715745 205.324417,478.417745 C206.026417,459.622745 206.757417,440.808745 206.734417,422.004745 C268.280417,431.325745 330.487417,433.885745 392.641417,435.719745 C455.610417,437.577745 518.594417,438.540745 581.590417,438.632745 C599.493417,438.659745 617.396417,438.619745 635.298417,438.513745 C643.917417,438.463745 652.537417,438.397745 661.156417,438.316745 C665.789417,438.272745 670.450417,438.366745 675.079417,438.171745 C679.974417,437.965745 682.931417,436.805745 686.350417,433.323745 C688.100417,431.542745 688.189417,428.468745 686.350417,426.694745 C680.247417,420.807745 673.067417,422.085745 665.134417,422.183745 C657.178417,422.282745 649.222417,422.367745 641.265417,422.439745 C625.353417,422.584745 609.439417,422.676745 593.525417,422.717745 C562.362417,422.796745 531.198417,422.676745 500.036417,422.358745 C437.056417,421.714745 374.090417,420.314745 311.125417,418.839745 C276.315417,418.024745 241.512417,418.248745 206.730417,419.936745 C206.717417,416.814745 206.688417,413.691745 206.627417,410.569745 C206.398417,398.745745 205.246417,386.921745 203.444417,375.228745 C220.490417,375.169745 237.535417,374.805745 254.504417,374.587745 C295.767417,374.058745 337.021417,373.227745 378.279417,372.399745 C419.205417,371.579745 460.131417,370.758745 501.057417,369.937745 C541.957417,369.117745 582.983417,369.058745 623.834417,366.850745 C645.880417,365.658745 667.934417,364.038745 689.997417,363.187745 C690.040417,365.212745 690.083417,367.238745 690.126417,369.262745 C690.657417,394.107745 691.628417,418.928745 692.881417,443.747745 C693.483417,455.672745 694.118417,467.597745 694.771417,479.520745 C694.455417,479.489745 694.132417,479.470745 693.800417,479.467745 C661.227417,479.251745 628.592417,480.605745 596.013417,480.869745 M80.1774166,265.097745 C83.9094166,255.495745 87.9634166,245.958745 92.3454166,236.550745 C110.949417,241.801745 130.794417,244.510745 149.994417,246.313745 C170.434417,248.234745 190.914417,249.313745 211.438417,249.732745 C251.900417,250.558745 292.362417,248.639745 332.781417,246.969745 C415.917417,243.536745 499.045417,241.029745 582.259417,240.868745 C605.498417,240.822745 628.736417,240.930745 651.973417,241.192745 C663.591417,241.323745 675.209417,241.480745 686.826417,241.679745 C692.801417,241.782745 698.775417,241.895745 704.750417,242.018745 C707.395417,242.072745 710.072417,242.268745 712.715417,242.188745 C716.250417,242.081745 718.832417,241.018745 722.113417,239.739745 C725.880417,238.272745 728.102417,231.974745 723.401417,229.887745 C718.705417,227.801745 714.937417,226.579745 709.728417,226.466745 C704.086417,226.345745 698.443417,226.233745 692.801417,226.129745 C682.511417,225.941745 672.221417,225.783745 661.931417,225.655745 C641.019417,225.394745 620.104417,225.284745 599.190417,225.287745 C558.025417,225.292745 516.860417,225.779745 475.707417,226.747745 C393.087417,228.690745 310.652417,234.449745 228.062417,236.920745 C205.298417,237.602745 182.491417,237.735745 159.726417,237.052745 C137.676417,236.391745 115.673417,234.535745 93.6504166,233.754745 C101.257417,217.718745 109.864417,202.101745 119.576417,187.252745 C156.289417,188.542745 192.923417,187.588745 229.644417,186.470745 C248.913417,185.883745 268.182417,185.288745 287.449417,184.627745 C297.083417,184.297745 306.717417,183.967745 316.351417,183.637745 C321.002417,183.477745 325.653417,183.318745 330.304417,183.159745 C335.314417,182.987745 340.587417,183.311745 345.453417,181.994745 C346.334417,181.755745 347.034417,181.245745 347.561417,180.595745 C360.513417,187.258745 374.212417,192.514745 388.299417,196.409745 C418.877417,204.864745 451.765417,208.036745 483.390417,205.434745 C508.770417,203.346745 534.063417,197.064745 556.377417,184.764745 C606.770417,189.403745 657.869417,187.223745 708.369417,186.893745 C713.194417,186.862745 715.201417,182.442745 714.394417,178.796745 C730.601417,213.723745 741.337417,251.588745 751.386417,288.418745 C757.630417,311.307745 763.184417,334.339745 768.471417,357.454745 C768.251417,357.473745 768.032417,357.493745 767.813417,357.514745 C768.426417,354.982745 767.048417,351.997745 763.581417,351.917745 C743.143417,351.448745 722.639417,352.622745 702.193417,352.811745 C701.618417,347.697745 701.043417,342.582745 700.437417,337.470745 C699.609417,330.506745 698.623417,323.559745 697.780417,316.596745 C697.475417,314.071745 697.191417,311.633745 696.844417,309.235745 C713.032417,309.675745 729.219417,310.120745 745.407417,310.547745 C755.913417,310.825745 755.894417,294.555745 745.407417,294.235745 C656.451417,291.511745 567.491417,288.759745 478.505417,287.249745 C389.465417,285.737745 300.118417,284.805745 211.146417,289.370745 C162.661417,291.856745 114.296417,295.181745 66.4144166,303.383745 C70.1334166,290.405745 75.3214166,277.591745 80.1774166,265.097745 M155.896417,141.471745 C157.507417,142.679745 158.023417,143.441745 160.431417,143.864745 C163.042417,144.321745 165.727417,144.467745 168.363417,144.725745 C174.003417,145.277745 179.657417,145.483745 185.316417,145.751745 C196.616417,146.288745 207.915417,146.856745 219.223417,147.200745 C241.670417,147.881745 264.598417,148.846745 287.035417,147.848745 C292.524417,147.604745 295.021417,143.078745 294.522417,138.954745 C298.730417,144.165745 303.331417,149.057745 308.231417,153.517745 C316.109417,160.686745 324.613417,167.041745 333.578417,172.649745 C327.762417,172.862745 321.840417,173.591745 316.351417,173.827745 C307.049417,174.225745 297.747417,174.624745 288.445417,175.024745 C268.843417,175.866745 249.243417,176.770745 229.644417,177.686745 C193.371417,179.381745 157.222417,181.491745 121.087417,184.951745 C131.407417,169.442745 142.967417,154.813745 155.896417,141.471745 M746.266417,216.804745 C730.940417,174.736745 711.181417,131.037745 675.623417,102.143745 C657.346417,87.2917452 636.984417,77.0177452 613.924417,72.1507452 C613.216417,72.0007452 612.934417,73.0087452 613.625417,73.2357452 C653.503417,86.3187452 683.014417,120.936745 702.977417,156.414745 C706.594417,162.843745 709.946417,169.426745 713.116417,176.108745 C712.084417,174.850745 710.505417,174.013745 708.369417,174.049745 C661.213417,174.841745 613.502417,174.042745 566.452417,178.649745 C567.653417,177.849745 568.854417,177.050745 570.032417,176.209745 C582.885417,167.049745 594.450417,155.841745 604.010417,143.147745 C609.768417,144.607745 615.830417,144.963745 621.705417,145.522745 C629.546417,146.267745 637.441417,146.608745 645.307417,147.031745 C653.161417,147.452745 661.045417,147.492745 668.908417,147.682745 C674.312417,147.813745 684.875417,148.710745 684.881417,140.444745 C684.887417,132.169745 674.313417,133.045745 668.908417,133.153745 C661.044417,133.308745 653.164417,133.331745 645.307417,133.700745 C637.775417,134.052745 630.198417,134.337745 622.688417,135.011745 C618.107417,135.422745 613.394417,135.692745 608.788417,136.420745 C616.283417,125.237745 622.250417,113.056745 626.233417,100.208745 C626.634417,98.9157452 626.766417,97.7077452 626.700417,96.5887452 C628.390417,94.8057452 629.468417,92.3627452 629.468417,90.1247452 C629.468417,84.8027452 625.321417,81.6847452 620.474417,81.1297452 C601.290417,78.9367452 580.154417,75.8117452 564.694417,63.1987452 C557.717417,57.5067452 552.105417,50.7777452 546.823417,43.5367452 C540.888417,35.3977452 538.663417,25.1437452 538.640417,15.1807452 C538.639417,14.6217452 537.712417,14.4527452 537.627417,15.0437452 C534.722417,35.2427452 538.912417,58.3007452 553.409417,73.4347452 C567.643417,88.2937452 586.978417,93.8597452 606.599417,97.1107452 C598.509417,120.217745 585.156417,140.514745 566.409417,156.475745 C545.519417,174.260745 519.075417,183.772745 492.115417,187.362745 C463.029417,191.235745 432.544417,189.352745 403.941417,183.030745 C376.387417,176.938745 349.433417,166.044745 327.007417,148.659745 C315.693417,139.887745 305.285417,129.547745 296.216417,118.481745 C288.731417,109.348745 282.992417,99.1637452 276.567417,89.3797452 C300.538417,95.9517452 329.520417,86.9737452 349.599417,74.2917452 C361.426417,66.8237452 371.787417,57.4997452 380.299417,46.4077452 C384.497417,40.9367452 388.232417,35.1617452 391.312417,28.9867452 C392.914417,25.7747452 394.354417,22.4707452 395.679417,19.1357452 C396.498417,17.0757452 397.301417,14.9597452 397.301417,12.6947452 C397.296417,11.0267452 396.876417,9.47274525 396.040417,8.03274525 C394.322417,6.20974525 393.980417,5.68174525 395.014417,6.44574525 C393.327417,2.99174525 388.450417,2.11474525 385.330417,3.90674525 C384.167417,4.57574525 381.432417,5.87074525 380.087417,8.03274525 C379.178417,9.49474525 378.689417,11.2427452 378.107417,12.8467452 C377.188417,15.3787452 376.262417,17.8817452 375.108417,20.3197452 C372.428417,25.9837452 369.214417,31.3897452 365.548417,36.4707452 C358.847417,45.7587452 350.234417,54.1577452 340.852417,60.7127452 C331.003417,67.5937452 320.388417,73.2187452 308.875417,76.7317452 C296.715417,80.4407452 284.679417,81.5487452 272.133417,82.9077452 C271.999417,82.7217452 271.869417,82.5347452 271.735417,82.3497452 C271.493417,82.0157452 270.970417,82.1237452 270.949417,82.5627452 C270.939417,82.7727452 270.944417,82.9817452 270.938417,83.1917452 C269.149417,84.0307452 269.001417,86.5517452 270.994417,87.5197452 C271.733417,99.1247452 276.741417,110.553745 282.198417,120.596745 C284.471417,124.779745 287.039417,128.832745 289.821417,132.747745 C288.998417,132.433745 288.073417,132.234745 287.035417,132.194745 C264.590417,131.334745 241.668417,132.442745 219.223417,133.263745 C208.246417,133.665745 197.281417,134.280745 186.313417,134.868745 C180.660417,135.170745 174.993417,135.363745 169.360417,135.948745 C166.543417,136.241745 163.709417,136.471745 160.907417,136.893745 C160.704417,136.924745 160.515417,136.956745 160.337417,136.988745 C167.269417,130.161745 174.576417,123.694745 182.290417,117.660745 C207.596417,97.8647452 236.660417,81.7357452 267.670417,72.9637452 C267.964417,72.8807452 267.921417,72.3777452 267.596417,72.4117452 C205.918417,78.7187452 154.541417,117.585745 118.601417,166.386745 C98.6594166,193.465745 83.5344166,223.442745 70.5194166,254.353745 C63.9594166,269.934745 57.7524166,285.792745 52.5544166,301.885745 C49.9124166,310.063745 48.7214166,318.738745 52.5054166,326.762745 C55.4074166,332.918745 60.7624166,337.493745 66.3754166,341.127745 C66.7484166,341.370745 67.1324166,341.594745 67.5094166,341.831745 C61.7714166,361.821745 57.9274166,382.333745 54.2394166,402.783745 C50.2334166,424.999745 46.7384166,447.307745 43.7364166,469.680745 C37.7364166,514.401745 33.1404166,559.215745 31.1334166,604.305745 C30.5784166,616.776745 30.2074166,629.256745 30.0454166,641.739745 C29.9644166,647.983745 30,654.226745 30.0854166,660.470745 C30.1824166,667.457745 29.2364166,675.342745 32.7934166,681.578745 C37.5464166,689.910745 46.7774166,687.042745 50.8374166,681.344745 C50.8964166,681.421745 50.9574166,681.500745 51.0174166,681.578745 C51.3854166,680.854745 51.6934166,680.131745 51.9564166,679.409745 C52.3934166,678.448745 52.6784166,677.444745 52.7824166,676.420745 C53.5474166,672.550745 53.2594166,668.620745 53.2284166,664.415745 C53.1834166,658.499745 53.2174166,652.583745 53.2344166,646.667745 C53.2674166,635.498745 53.3944166,624.333745 53.7124166,613.166745 C54.3494166,590.840745 55.5934166,568.533745 57.2944166,546.262745 C60.6744166,502.022745 65.6604166,457.985745 69.9274166,413.832745 C72.0994166,391.351745 74.7194166,368.812745 75.1714166,346.211745 C80.4384166,348.984745 85.8734166,351.497745 91.1304166,354.173745 C100.884417,359.138745 110.637417,364.103745 120.390417,369.068745 C129.849417,373.883745 139.322417,378.668745 148.799417,383.450745 C158.355417,388.270745 167.847417,394.644745 178.598417,395.830745 C184.345417,396.463745 186.425417,388.721745 183.039417,385.107745 C178.617417,380.385745 172.745417,377.451745 166.842417,374.703745 C174.685417,374.990745 182.538417,375.144745 190.395417,375.204745 C190.503417,385.090745 190.154417,394.997745 189.658417,404.861745 C188.438417,429.055745 186.742417,453.206745 185.136417,477.377745 C181.798417,527.620745 178.567417,577.890745 176.046417,628.180745 C175.429417,640.499745 174.811417,652.815745 174.193417,665.132745 C173.893417,671.120745 173.476417,677.116745 173.306417,683.109745 C173.116417,689.833745 173.281417,698.261745 179.504417,702.413745 C183.900417,705.344745 188.631417,703.963745 191.931417,699.931745 C196.344417,694.540745 196.337417,686.729745 196.692417,680.113745 C196.774417,678.584745 196.847417,677.055745 196.926417,675.526745 C203.666417,676.399745 210.357417,677.606745 217.126417,678.266745 C225.394417,679.072745 233.714417,679.547745 242.018417,679.760745 C258.951417,680.196745 275.857417,680.352745 292.795417,680.352745 C326.315417,680.353745 359.832417,679.780745 393.347417,679.239745 C460.379417,678.157745 527.403417,676.280745 594.412417,674.200745 C612.989417,673.623745 631.565417,673.018745 650.141417,672.387745 C659.760417,672.059745 669.379417,671.725745 678.999417,671.383745 C688.104417,671.059745 698.051417,672.237745 706.065417,667.510745 C706.297417,670.387745 706.533417,673.265745 706.786417,676.139745 C707.267417,681.586745 711.096417,686.265745 716.911417,686.265745 C722.375417,686.265745 727.071417,681.631745 727.036417,676.139745 C724.995417,626.456745 720.578417,576.769745 717.079417,527.170745 C713.866417,481.612745 710.854417,435.991745 706.259417,390.542745 C707.563417,391.385745 709.156417,391.907745 711.035417,391.915745 C717.038417,391.940745 723.030417,388.217745 728.646417,386.238745 C734.313417,384.242745 740.073417,382.514745 745.911417,381.097745 C749.367417,380.258745 752.837417,379.555745 756.318417,378.956745 C755.897417,386.067745 756.005417,393.241745 755.873417,400.326745 C755.670417,411.217745 755.332417,422.104745 755.067417,432.993745 C754.546417,454.448745 754.361417,475.904745 753.951417,497.360745 C753.125417,540.614745 751.765417,583.845745 749.453417,627.046745 C748.818417,638.917745 748.104417,650.784745 747.311417,662.645745 C746.893417,668.905745 746.453417,675.165745 745.990417,681.421745 C745.537417,687.571745 744.477417,694.106745 746.792417,700.001745 C746.866417,699.958745 746.939417,699.917745 747.012417,699.874745 C748.627417,704.957155 755.726417,707.385745 759.080417,701.608745 C764.307417,692.602745 763.102417,679.695745 763.702417,669.563745 C764.347417,658.692745 764.925417,647.816745 765.437417,636.937745 C766.461417,615.176745 767.171417,593.409745 767.583417,571.627745 C768.407417,528.056745 768.267417,484.422745 765.603417,440.915745 C764.874417,429.019745 763.854417,417.145745 762.807417,405.275745 C762.022417,396.377745 761.589417,387.236745 760.201417,378.333745 C766.989417,377.332745 773.830417,376.751745 780.737417,376.580745 C787.422417,376.413745 791.733417,370.384745 790.316417,364.003745 C779.219417,314.020745 763.781417,264.884745 746.266417,216.804745" id="Ink" fill="#000"/></g></g><g id="Head" transform="translate(372.000000, 180.000000) scale(0.9978902953586498 1)"><g id="Head/Beanie" stroke="none" stroke-width="1" fill="none" fill-rule="evenodd"><path d="M244.801076,58.7061513 C289.572611,58.7061513 343.290355,80.4107214 347.857576,80.8448128 L347.980873,80.851412 C350.383805,80.851412 359.773072,88.0046317 376.148674,102.311071 L358.412048,136.905077 L359.847401,138.275654 C366.716004,144.860995 372.579732,150.86334 377.20818,155.594994 C414.999829,194.229324 421.792237,345.918858 412.88601,398.818005 C403.979783,451.717153 387.483712,503.479944 310.685218,503.479944 C233.886725,503.479944 148.446655,457.302629 135.285147,442.922462 C126.510808,433.335685 116.654935,428.742788 105.717528,429.143771 C105.268005,428.576557 104.822108,428.011003 104.379837,427.447111 L102.770605,427.219146 C87.633459,425.026858 76.7873358,422.076066 70.2326472,418.367754 C57.4294952,411.124377 43.3572802,373.045104 43.3572802,364.656723 C43.3572802,356.352227 22.3445065,295.939883 21.924251,289.546864 L21.9178621,289.36978 C21.9178621,284.025444 -5.53321454,259.457893 -5.53321454,251.655721 C-5.53321454,243.853549 -11.0664291,244.32691 -5.53321454,216.833266 L-3.92565876,208.756436 C1.96255037,179.483802 13.4873849,131.012555 57.4294952,109.950337 C105.717528,86.8050433 199.577304,58.7061513 244.801076,58.7061513 Z" id="Skin" fill="#ffdbb4"/><path d="M244.793497,59 C289.565032,59 343.282776,80.70457 347.849997,81.1386614 L347.973294,81.1452607 C350.376226,81.1452607 359.765493,88.2984803 376.141095,102.60492 L372.160288,110.364039 C284.009622,112.095217 223.337123,119.259615 190.142792,131.857234 C151.660133,146.461831 127.502474,201.947011 117.669814,298.312773 C104.224511,304.680309 90.7792072,313.061256 77.3339036,323.455616 C63.8886,333.849976 60.4852098,339.218683 67.123733,339.561738 C66.5453697,361.837211 68.3278576,377.392951 72.4711966,386.228956 C76.6145355,395.064961 90.9559204,400.264905 115.495351,401.828787 L115.495351,401.828787 L121.729532,422.705783 L120.867295,432.381225 C116.069485,430.224255 111.017036,429.243053 105.709949,429.43762 C105.260426,428.870406 104.814529,428.304852 104.372258,427.74096 L102.763026,427.512994 C87.62588,425.320707 76.7797568,422.369915 70.2250682,418.661603 C57.4219162,411.418226 43.3497012,373.338952 43.3497012,364.950572 C43.3497012,356.646075 22.3369275,296.233732 21.9166721,289.840712 L21.9102831,289.663629 C21.9102831,284.319293 -5.54079354,259.751741 -5.54079354,251.949569 C-5.54079354,244.147397 -11.0740081,244.620759 -5.54079354,217.127114 L-3.93323776,209.050285 C1.95497137,179.777651 13.4798059,131.306403 57.4219162,110.244186 C105.709949,87.098892 199.569725,59 244.793497,59 Z" id="hat" fill="#9DDADB"/><path d="M49.9759,108.863 C74.05864,83.3012 210.780353,43.763174 279.951662,52.1442952 L282.0269,52.413 C287.5469,53.113 292.9869,54.173 298.3559,55.613 C315.7099,59.666 333.6359,65.803 347.9749,76.054 C359.9459,84.44 397.7089,98.135 386.5789,120.073 C390.7059,127.892 392.2459,137.552 389.4569,145.253 C389.1059,147.913 388.2859,150.363 387.2369,152.903 C396.0539,165.914 403.0349,180.628 408.6859,194.623 C418.5609,229.844 424.7059,266.498 425.6059,302.433 C428.5999,370.705 421.1139,452.256 361.6519,496.404 C325.7309,524.379 269.4629,525.319 229.0959,490.633 C226.8049,487.922 216.0319,480.606 219.6269,479.323 C220.6969,480.453 221.7969,481.553 222.9169,482.633 C222.8659,482.513 222.8559,482.393 222.8769,482.263 L221.823473,481.309028 C219.839749,479.473835 217.269834,476.812131 220.1969,477.333 C220.3259,477.483 220.4669,477.613 220.6059,477.763 C221.225837,478.134875 221.694181,478.457271 222.05859,478.741515 L222.246041,478.891534 L222.188128,478.831293 C220.502038,477.033357 219.491192,475.199546 222.012175,476.370731 L222.3459,476.533 C223.4669,477.713 224.6059,478.843 225.7659,479.943 C225.7469,479.813 225.7659,479.683 225.8369,479.543 L224.75535,478.498176 C223.699588,477.46362 223.860724,477.459206 224.3769,476.623 C222.1329,473.478 226.3219,475.346 226.6159,476.573 C229.2369,475.953 231.5379,480.873 233.2259,481.473 C307.2249,538.363 414.6119,487.884 412.8729,329.359 L412.846346,326.257389 C412.337744,275.567908 408.07202,223.46856 387.1059,177.583 C385.0669,173.163 382.7859,168.863 380.2769,164.703 C378.5469,161.583 376.6969,158.543 374.7069,155.583 C369.1359,155.133 363.6359,154.113 358.2169,152.533 C356.3559,152.063 354.5159,151.543 352.6769,150.933 C325.7969,152.399 299.5159,153.994 272.5609,155.506 L264.141372,156.030389 C241.307275,157.49837 217.69246,159.84959 199.2659,173.973 C181.1859,186.831 181.1039,212.186 165.6269,226.303 C143.5569,241.282 143.3959,254.789 139.1459,276.863 C139.4609,293.503 150.9989,317.68 129.8259,324.683 C133.3979,329.776 128.4189,327.329 128.0269,325.543 C127.9869,325.553 127.9469,325.563 127.9169,325.563 C131.0999,331.48 126.4209,327.754 126.0069,325.853 C125.7569,325.783 125.5069,325.603 125.2569,325.353 C128.4639,330.537 123.2799,326.907 123.5869,325.963 C117.3899,316.438 104.6359,314.959 95.6459,317.483 C95.5359,317.823 95.1369,317.853 94.8869,317.673 C56.6599,325.957 66.5229,405.093 105.6969,397.443 C107.3739,397.101 107.3339,397.906 107.6669,397.983 C106.7619,395.607 109.3129,396.574 109.2859,397.073 L109.441338,397.065453 C109.564505,397.054593 109.514122,397.041111 109.6059,397.073 C108.7309,392.214 113.6549,399.254 113.2659,399.543 C113.4169,399.453 113.5869,399.403 113.7369,399.383 L113.567399,398.921749 C112.750208,396.744712 112.820264,397.649576 112.8259,396.403 C112.2119,394.862 112.1669,395.536 112.3109,394.532 C114.4689,392.86 115.1059,397.932 115.8259,398.303 C114.5919,396.583 115.5729,395.178 116.7369,396.112 C125.5599,414.67 136.9569,432.107 151.6859,445.843 C153.2969,447.113 154.9269,448.363 156.6159,449.543 C162.8809,455 172.4909,458.509 178.3559,463.343 C178.3559,463.423 178.3169,463.523 178.2569,463.623 L178.39115,463.74425 L178.39115,463.74425 L178.5269,463.873 L180.5669,464.853 C181.1669,465.363 181.7069,465.933 182.1859,466.563 C182.6969,467.153 183.1459,467.803 183.5269,468.493 C183.7169,469.333 183.2969,469.683 182.4969,469.323 C182.1459,469.203 181.7969,469.063 181.4469,468.933 C181.4669,468.963 181.4759,468.983 181.4969,469.003 C181.61165,469.176571 182.388451,470.977375 181.493354,470.684363 L181.3869,470.643 C180.8959,470.463 180.4069,470.263 179.9269,470.073 C180.4969,470.783 181.0159,471.553 181.4759,472.203 C181.9669,472.713 182.2659,473.313 182.3869,473.993 C182.3659,474.373 182.1569,474.533 181.7769,474.483 C181.1969,474.293 180.6269,474.093 180.0559,473.883 L180.218285,474.192775 C180.621712,474.986299 181.195061,476.317194 180.1769,475.873 C179.3059,475.603 178.4669,475.293 177.6269,474.953 C177.5559,475.093 177.4169,475.143 177.1369,475.013 C174.4669,474.063 171.8869,472.903 169.4169,471.533 C167.2469,469.953 165.0559,468.403 162.8769,466.833 C160.8259,465.603 158.8459,464.233 156.9569,462.693 C144.3109,454.525 133.2399,444.149 124.4569,432.593 C109.7679,445.314 80.3989,433.161 62.2319,423.203 C46.1629,414.303 39.8469,397.847 38.2139,380.105 C34.8189,356.219 15.2989,348.043 16.6569,295.633 C16.6269,295.643 16.5959,295.643 16.5559,295.643 C15.8459,295.433 15.1569,295.153 14.5069,294.793 C13.8369,294.473 13.2069,294.093 12.6159,293.633 L11.8859,292.623 L11.8859,292.623 C11.5069,292.413 11.1669,292.193 10.9069,291.973 L10.7720626,292.146894 C10.3452333,292.661965 10.63215,291.887 10.6569,291.733 L9.38875352,290.0084 C6.38188437,285.903078 3.083025,281.29675 0.3959,277.613 L0.311258601,277.762679 C0.250471429,277.875653 0.218328571,277.957286 0.2469,277.993 C-6.1481,268.805 -12.1621,257.707 -13.8331,246.963 C-15.8061,238.687 -15.0351,230.159 -13.3141,222.493 C-5.9351,195.648 18.2369,134.9 49.9759,108.863 Z M223.523686,480.116032 L223.122951,479.759136 L223.475308,480.200613 C223.659955,480.42876 223.84899,480.63382 224.1569,480.843 C224.1369,480.773 224.1369,480.703 224.1459,480.623 C223.941698,480.467121 223.732905,480.296655 223.523686,480.116032 Z M279.6459,65.633 C232.7379,61.6 186.6009,71.934 141.8389,84.443 L138.751029,85.3305184 C113.298885,92.5930675 86.385913,99.1281948 64.8769,114.673 C34.8259,137.69 19.3079,174.306 5.7659,208.113 C-6.0591,233.231 -0.0141,261.554 17.8059,279.093 C19.6599,261.664 22.8209,244.745 27.7609,227.962 C28.7919,225.34 28.0119,224.481 30.2339,224.139 C33.5899,269.367 17.0609,302.783 49.7709,356.385 C63.9639,381.677 47.5339,400.183 87.6139,413.492 L88.6985408,413.90645 C97.0486222,417.057302 106.167483,419.544417 114.3459,417.783 L113.613193,416.591163 C112.865939,415.363801 112.639181,414.768 113.7259,414.243 C113.6969,414.183 113.6569,414.123 113.6159,414.053 C112.7369,412.393 111.8869,410.713 111.0759,409.013 C110.7469,409.123 110.4169,409.203 110.0759,409.293 C110.2969,409.703 110.3259,410.113 109.7069,410.253 C107.5033,411.009 105.240464,411.312022 102.924085,411.170197 L102.4269,411.133 C99.8099,410.973 98.1609,410.496 96.6859,410.053 C96.1969,409.973 95.7069,409.893 95.2259,409.793 C90.4809,408.741 85.4579,406.065 82.2069,403.413 C45.1489,382.365 48.9789,310.716 94.6569,303.943 C95.5939,258.831 117.0509,182.723 152.6609,139.736 C184.8489,100.195 272.7229,83.057 333.8589,89.1 C334.7499,89.395 335.6409,89.693 336.5319,89.994 C345.9639,90.832 354.9529,95.034 364.3919,96.986 C357.6149,91.907 349.9269,88.524 342.0079,85.649 C326.2299,75.998 308.1419,70.776 290.6669,67.093 C287.0469,66.203 283.3769,65.713 279.6459,65.633 Z M92.5662,340.1829 C95.0222,338.8489 94.7412,340.1369 95.3062,339.7629 C112.9722,338.3219 132.0212,353.7889 141.8962,366.6829 C141.1162,367.4929 139.0062,365.0929 138.6362,364.7129 C138.5862,364.7629 138.5262,364.8029 138.4662,364.8229 L138.741174,365.210988 C142.74361,370.954718 134.809221,364.195942 134.0662,362.8029 C133.9362,362.8729 133.8062,362.9129 133.6562,362.8829 C134.2852,363.4999 136.2062,365.1089 136.5362,366.2529 L137.045494,366.676733 C141.847898,370.78921 141.449332,373.882812 135.9972,368.0429 C136.1262,368.3129 136.1762,368.5629 136.0862,368.7629 L136.27393,368.888003 C138.954977,370.761539 141.159882,375.984218 135.5562,370.6229 C136.1392,374.5389 130.0032,366.9699 129.8062,367.0229 C119.1882,358.6879 103.5552,350.5819 90.2362,349.4929 L89.77779,349.440232 C87.3337388,349.126208 86.1782,348.401043 87.0362,346.8029 C84.0262,346.0869 84.7312,344.6049 86.1562,344.6529 C84.0332,343.2569 85.9442,341.9219 87.1762,342.4429 C86.3292,340.0979 89.7262,341.6599 90.0362,341.3329 C91.7992,338.6139 92.2742,340.8819 92.5662,340.1829 Z M55.5363,194.8329 C64.0213,191.7249 89.0843,201.0289 87.0793,213.3509 C85.8853,216.1799 81.9513,217.8009 79.1863,216.2039 L75.5774719,213.780141 C69.2971698,209.574177 63.6330368,205.886111 56.8903,202.2179 C53.2203,200.3969 51.6403,196.5309 55.5363,194.8329 Z M103.8112,176.5217 L100.534261,174.389194 C82.8503248,162.815592 57.8511,145.27882 102.1862,163.4227 C107.2392,165.5897 113.9532,166.8717 116.7102,171.6837 C121.0412,180.5527 109.6432,181.1487 103.8112,176.5217 Z M105.7984,124.5927 C104.3794,119.2077 122.0364,125.5267 127.1764,127.1927 L127.959291,127.488387 C132.959307,129.351465 138.6908,131.0798 141.6814,135.3947 C145.1854,141.3567 138.0934,142.5917 133.7004,139.8987 C124.6934,134.0127 114.8184,129.5717 105.7984,124.5927 Z M150.6987,99.5078 C140.76009,88.65443 167.358628,99.0515882 171.342946,101.937672 L171.4567,102.0228 C174.4297,104.1158 173.8267,108.6238 171.0337,109.9478 C163.0867,110.0988 157.2387,103.4748 150.6987,99.5078 Z M195.9247,87.6166 C180.1247,76.2616 200.9377,81.6626 208.1667,86.1126 C213.0937,90.4576 208.0187,97.7926 195.9247,87.6166 Z" id="Ink" fill="#000"/></g></g><g id="Face" transform="translate(531.000000, 366.000000) scale(1 1)" fill="#000"><g id="Face/Smile Teeth Gap" stroke="none" stroke-width="1" fill="none" fill-rule="evenodd"><path d="M97.7845492,210.375972 C114.535353,199.151206 199.315158,201.347449 207.139671,209.95871 C214.964185,218.56997 233.048485,243.147851 194.312305,255.218642 C155.576125,267.289433 107.626245,263.059951 95.1338032,248.283406 L94.3973783,247.40024 C82.5844002,233.030888 81.3687614,221.376242 97.7845492,210.375972 Z" id="teeth" fill="#FFF"/><path d="M170.814304,144.367155 C178.365682,148.9572 189.871664,159.660291 181.748119,171.039573 C172.185929,181.073062 158.418535,169.568982 151.634201,164.366134 C145.343449,160.333898 138.275437,170.704507 144.112,175.412823 C193.135736,211.708059 213.030606,145.567387 174.633685,138.970386 C170.406047,138.243425 168.835891,142.947174 170.814304,144.367155 Z M102.5879,56.8305 L104.465271,56.501905 L105.42752,56.3387999 C111.05159,55.4089332 117.7185,54.7869836 121.6029,59.2015 C123.7819,61.6775 124.5319,66.2795 121.6029,68.6495 C116.4509,72.8195 110.7549,71.2035 104.5809,71.5565 C99.4929,71.8485 94.6029,72.6905 89.7019,74.0915 C78.9499,77.1645 70.1889,82.7745 61.0059,88.9345 C59.8009,89.7425 58.5709,88.2015 59.1459,87.0745 C64.4469,76.6915 74.7199,68.1625 85.0099,62.9635 C90.5019,60.1885 96.5119,57.8865 102.5879,56.8305 Z M152.3251,200.2709 C168.7571,201.4639 204.3671,193.6199 219.1531,205.3859 C274.8801,274.9729 53.9501,292.8639 77.8101,215.8769 C93.0071,190.9839 127.9621,200.9889 152.3251,200.2709 Z M149.5081,242.2799 C145.4441,241.9489 140.5121,245.1679 139.3191,247.6549 C138.1261,250.1429 138.5871,255.3999 138.6231,256.3109 C145.7281,257.0269 152.8951,257.1359 160.0201,256.6689 C158.1691,250.5459 158.1091,243.2069 149.5081,242.2799 Z M182.3141,252.5519 C181.1721,244.9519 175.7361,243.1519 171.3361,244.2929 C166.8351,245.4589 164.1931,250.6399 164.4791,255.2529 C164.4981,255.5709 164.3141,255.8409 164.1931,256.0969 C170.3111,255.3739 176.3721,254.1839 182.3141,252.5519 Z M131.9201,243.6559 C129.3581,239.7579 123.2361,237.8769 119.3151,238.5639 C112.9121,239.9119 112.1541,248.0479 112.1541,249.7059 C118.0571,251.9559 124.3241,253.4499 130.3161,254.6399 C131.5191,254.8779 132.7251,255.0909 133.9331,255.2919 L134.011748,254.304092 C134.15754,252.1871 134.2657,247.2239 131.9201,243.6559 Z M204.3491,243.0129 C197.7841,232.8559 183.6721,240.1279 184.8381,251.2239 C186.0921,250.8289 187.3401,250.4159 188.5821,249.9829 C193.7401,248.1849 199.3981,246.0479 204.3491,243.0129 Z M152.6641,208.0169 C143.8321,207.2219 136.5871,207.4899 130.8271,208.5579 L130.652379,210.482006 C130.015019,217.153056 129.192942,223.71197 132.6961,226.3959 C135.5411,228.5759 144.9841,228.3679 151.3161,226.7899 C152.8801,226.3959 154.9131,212.5599 152.6641,208.0169 Z M166.3211,207.2219 C164.905471,213.79653 164.239607,221.779589 167.081976,224.150651 C170.083082,226.654129 179.744529,226.314877 182.27115,224.647162 C184.482348,223.187644 184.425998,216.473745 183.6051,208.9359 C178.7121,207.7829 170.1921,207.2219 166.3211,207.2219 Z M126.9211,208.6239 L124.0291,208.6499 L122.392162,208.671764 C118.252917,208.745333 113.787276,208.983724 109.5661,209.9049 C101.17981,228.02784 131.80542,231.15623 127.075335,209.29405 L126.9211,208.6239 Z M187.5011,209.0609 L187.447712,210.087554 C187.196335,215.178372 187.36295,221.882059 190.183224,223.691942 C194.333161,226.355124 202.125997,225.841302 206.347453,213.522759 C204.950453,209.847759 190.1341,209.3299 187.5011,209.0609 Z M106.2238,101.0002 C107.996997,101.0002 109.692946,101.602067 111.237462,102.715752 C112.757587,103.81185 114.13373,105.411583 115.279905,107.406824 C117.448889,111.182554 118.8048,116.395834 118.8048,122.1602 C118.8048,127.924566 117.448889,133.137846 115.279905,136.913576 C114.13373,138.908817 112.757587,140.50855 111.237462,141.604648 C109.692946,142.718333 107.996997,143.3202 106.2238,143.3202 C104.450603,143.3202 102.754654,142.718333 101.210138,141.604648 C99.6900132,140.50855 98.3138701,138.908817 97.1676955,136.913576 C94.9987108,133.137846 93.6428,127.924566 93.6428,122.1602 C93.6428,116.395834 94.9987108,111.182554 97.1676955,107.406824 C98.3138701,105.411583 99.6900132,103.81185 101.210138,102.715752 C102.754654,101.602067 104.450603,101.0002 106.2238,101.0002 Z M218.464,101.0002 C220.237197,101.0002 221.933146,101.602067 223.477662,102.715752 C224.997787,103.81185 226.37393,105.411583 227.520105,107.406824 C229.689089,111.182554 231.045,116.395834 231.045,122.1602 C231.045,127.924566 229.689089,133.137846 227.520105,136.913576 C226.37393,138.908817 224.997787,140.50855 223.477662,141.604648 C221.933146,142.718333 220.237197,143.3202 218.464,143.3202 C216.690803,143.3202 214.994854,142.718333 213.450338,141.604648 C211.930213,140.50855 210.55407,138.908817 209.407895,136.913576 C207.238911,133.137846 205.883,127.924566 205.883,122.1602 C205.883,116.395834 207.238911,111.182554 209.407895,107.406824 C210.55407,105.411583 211.930213,103.81185 213.450338,102.715752 C214.994854,101.602067 216.690803,101.0002 218.464,101.0002 Z M203.192876,52.1793876 L204.629806,52.4734684 L205.583101,52.6756041 C221.082639,56.0094915 240.733069,62.5816831 247.988459,77.6308459 C248.270623,79.8027272 247.97249,80.2682047 247.730054,80.5723213 L247.649336,80.6735209 C247.449568,80.9332186 247.290169,81.2912104 246.348782,81.5868073 C246.087547,81.5245653 245.823712,81.4586426 245.557082,81.3887687 C242.162766,80.499243 239.477205,79.2737961 236.877298,78.0022488 L234.058339,76.6134493 C230.787784,75.0098309 227.488352,73.4645766 223.991711,72.3238115 C216.52958,69.8898666 208.854137,68.1753043 201.059777,67.259767 C199.37041,67.0615005 197.743655,66.4913394 196.460262,65.5141761 C195.242065,64.5866523 194.311441,63.3024737 193.887128,61.5955207 C193.33722,59.3864508 193.495251,57.7140037 194.680513,55.7210991 C195.571756,54.2244705 196.846982,53.1871113 198.311265,52.5914244 C199.804038,51.9841473 201.503545,51.840982 203.192876,52.1793876 Z" id="Ink" fill="#000"/></g></g><g id="Beard" transform="translate(494.999934, 517.999659) scale(1 1)" fill="#000"><g id="Beard/None" stroke="none" stroke-width="1" fill="none" fill-rule="evenodd" fill-opacity="0"/></g><g id="Mask" transform="translate(400.000000, 480.000000) scale(1 1)" fill="#000"><g id="Mask/None" stroke="none" stroke-width="1" fill="none" fill-rule="evenodd" fill-opacity="0"/></g><g id="Accessories" transform="translate(419.000000, 421.000000) scale(1 1)" fill="#000"><g id="Accessories/None" stroke="none" stroke-width="1" fill="none" fill-rule="evenodd" fill-opacity="0"/></g></g></svg>