<svg viewBox="145.83783783783792 191.625 1036.2162162162163 1168.9125000000001" xmlns="http://www.w3.org/2000/svg" overflow="visible" xmlns:xlink="http://www.w3.org/1999/xlink" width="1036.2162162162163px" height="1168.9125000000001px"><g id="Master/Character/Bust" stroke="none" stroke-width="1" fill="none" fill-rule="evenodd"><g id="Body" transform="translate(147.000000, 639.000000) scale(1 1)"><g id="Body/Macbook" stroke="none" stroke-width="1" fill="none" fill-rule="evenodd"><path d="M996.081905,209.472139 C981.802496,210.874139 967.523087,212.274139 953.243677,213.676139 C884.855668,218.901139 816.494687,229.813139 748.630206,236.362139 C746.940501,233.612139 743.633163,234.065139 741.625137,235.976139 C734.853304,235.383139 727.263645,230.207139 721.129455,235.591139 C720.930254,235.563139 720.731053,235.530139 720.52985,235.511139 C709.607829,214.548139 702.058211,192.189139 694.730817,169.800139 C690.054098,156.035139 683.761748,142.710139 672.134015,133.468139 C652.289991,119.693139 606.82211,91.7601393 583.520597,92.9341393 C583.134207,88.7621393 581.189244,84.4621393 577.996022,81.6841393 C585.034124,69.6851393 556.892727,61.8561393 554.907724,63.2471393 C556.180008,23.1591393 537.322979,-11.6548607 495.743022,-19.6378607 C458.492433,-27.3998607 405.509969,-28.7038607 385.475753,10.2251393 C383.273531,9.97713926 360.762449,9.85993926 358.584251,10.1039393 C355.197834,5.81493926 318.008321,46.4570207 333.250702,60.6060207 C196.978192,120.888021 119.493355,113.695139 81.7752946,283.164139 C76.6761492,299.084139 76.3047744,316.505139 70.9203411,332.070139 C51.7640108,376.801139 36.226332,424.432139 32.35943,473.104139 C23.0200057,475.497139 21.9459219,491.964139 32.763838,494.346139 C36.8960077,495.257139 40.3514946,496.501139 43.364535,498.860139 C41.0091582,538.746139 50.6558926,629.860139 56.7340259,629.579139 C69.127532,669.022139 124.40912,680.153955 163.546613,666.292955 C156.799805,678.985955 163.546613,686.966717 163.546613,693.748626 C304.373719,699.076626 458.353293,696.008139 599.141359,703.315139 C617.150532,703.059139 636.092646,707.738139 653.85557,705.045139 C664.688502,702.448139 664.70652,685.415139 653.718432,683.309139 L701.731222,672.881011 C700.658139,672.476011 721.522366,658.598251 737.291278,632.665251 C751.969089,603.655251 741.979495,568.637451 748.630206,537.081451 C800.574622,532.833451 853.377905,531.017139 904.753747,522.220139 C911.758816,543.179139 942.082415,518.113139 951.721141,508.030139 C951.709129,508.014139 951.697117,507.999139 951.685105,507.983139 C956.349812,506.707139 960.090587,502.335139 960.215713,497.159139 C963.487014,492.485139 964.173707,485.897139 961.036541,481.380139 C975.41505,398.412139 997.335169,313.700139 1005.25816,229.952139 C1008.05899,229.332139 1010.69665,228.104139 1012.93291,226.212139 L1012.75173,226.031139 C1016.54055,221.807139 1017.27729,214.516139 1010.96092,210.927139 C1005.86578,208.029139 1001.61148,208.928139 996.081905,209.472139 Z" id="Skin" fill="#ffdbb4"/><path d="M453,520 L464,527 L554,556 L609,563 L654,556 L654,633 L663,705 C659,712.333333 621,712.333333 549,705 C503.101885,700.325192 335.356095,698.057214 297.164029,697.059228 L295,697 C250.120339,695.705482 205.787005,695.705482 162,697 L162,670 L287,608 L399,545 L453,520 Z M389.229039,3.93187748 L397.494804,10.1039393 L379.447912,39.7540495 L467.360804,110.864719 L467.360804,167.663759 L495.19331,193.988358 L511.102162,167.663759 L533.51913,137.85242 L549.450017,89.5283855 L544.02577,57.6917655 L554.934063,56.6640801 C554.986839,58.839968 554.977914,61.0355276 554.907724,63.2471393 C556.892727,61.8561393 585.034124,69.6851393 577.996022,81.6841393 C581.189244,84.4621393 583.134207,88.7621393 583.520597,92.9341393 C606.82211,91.7601393 652.289991,119.693139 672.134015,133.468139 C683.761748,142.710139 690.054098,156.035139 694.730817,169.800139 L695.831986,173.158094 L696.968868,176.605259 L698.114318,180.049759 C704.442543,198.985147 711.275651,217.749246 720.52985,235.511139 C720.731053,235.530139 720.930254,235.563139 721.129455,235.591139 C727.263645,230.207139 734.853304,235.383139 741.625137,235.976139 C743.586465,234.109581 746.787374,233.633998 748.509731,236.175454 L748.630206,236.362139 L664.258946,252.983022 L608.598321,448.227022 L560.125689,408.880909 L534.107599,412.75018 L465.398657,437.531463 L385.485804,458.28915 L203.05544,508.584205 L179.823549,508.584205 L44.6389945,475.938893 L32.4560261,471.917566 C36.4791435,423.658066 51.9197085,376.437577 70.9203411,332.070139 C76.3047744,316.505139 76.6761492,299.084139 81.7752946,283.164139 C119.493355,113.695139 196.978192,120.888021 333.250702,60.6060207 C318.008321,46.4570207 355.197834,5.81493926 358.584251,10.1039393 L358.797717,10.0854223 L359.259233,10.0607179 L359.853859,10.0399668 C365.170087,9.88537935 383.499595,10.0025971 385.475753,10.2251393 C386.622027,7.9977854 387.876162,5.90214021 389.229039,3.93187748 Z" id="Top" fill="#FFCF77"/><path d="M1009.5673,215.400439 L1007.05419,229.405148 C1006.45692,229.600743 1005.84923,229.766376 1005.23366,229.902639 C1004.44383,238.251388 1003.51489,246.609717 1002.46819,254.974943 L986.887304,341.814439 C984.199909,357.177659 981.648737,372.573587 979.116221,387.974936 L975.760285,404.518035 L973.681958,414.799826 C969.195412,437.066278 964.836896,459.260163 961.012041,481.330639 C961.58932,482.161826 962.03712,483.063138 962.363164,484.009746 L962.068822,485.253748 L961.86417,486.083221 L961.654796,486.902578 C958.637009,498.503245 953.385982,509.752684 941.011304,513.166439 C931.677018,515.740118 921.435202,515.973372 911.79669,516.989191 L910.728304,517.105439 L742.069304,536.072439 C721.690104,538.363639 701.320504,540.723959 680.952824,543.109367 L663.296131,545.180245 C638.685891,548.030098 613.934117,550.272846 589.686304,555.431439 C588.795304,555.621439 588.057304,555.977439 587.455304,556.445439 C592.338304,537.962439 597.012304,519.503439 601.248304,500.833439 C606.016304,479.820439 610.541304,458.766439 615.641304,437.829439 C625.915304,395.649439 637.432304,353.746439 650.040304,312.203439 C652.686137,303.484273 655.393082,294.782467 658.159401,286.100916 L660.100474,280.032364 L661.594595,275.196489 C663.906373,267.823046 666.767142,260.24462 673.546304,256.177439 C681.479804,251.417144 692.298546,250.627996 701.29655,248.981745 L707.389716,247.837189 C716.506082,246.136356 725.634137,244.500106 734.773304,242.928439 C778.529304,235.402439 822.533304,229.365439 866.699304,224.830439 C912.657369,220.110762 958.775579,217.04405 1004.94971,215.54511 L1009.5673,215.400439 Z M590.949904,504.943499 L591.380304,504.979439 L585.080304,555.340439 C584.073304,554.635439 582.794304,554.203439 581.233304,554.207439 C560.568554,554.268283 540.759606,547.663726 521.599628,540.402895 L518.681926,539.291011 L510.547256,536.164407 C502.278424,532.996279 493.965304,529.898039 485.497304,527.328439 L482.074178,526.295406 L480.33417,525.781569 C473.922744,523.909931 467.178359,522.208583 460.509226,521.785155 L459.600304,521.735439 L461.542304,520.716439 C461.826304,520.567439 462.075304,520.400439 462.296304,520.220439 C465.967304,520.492439 469.645304,520.418439 473.517304,519.720439 C480.799304,518.409439 487.880304,515.876439 494.382304,512.349439 L497.286269,510.7755 L498.475038,510.144805 L499.260383,509.737656 L500.041373,509.342696 C505.62568,506.558985 510.965379,504.816014 518.016304,506.298439 C526.020498,507.983278 533.034785,512.296941 540.250062,515.942258 L541.530594,516.579866 L542.391527,516.995852 L543.269247,517.408691 L544.157467,517.814515 C553.914592,522.205009 569.442947,526.94347 573.184304,513.677439 C574.687304,508.347439 573.510304,503.356439 570.902304,498.980439 C575.762304,498.559787 584.444539,504.289737 590.949904,504.943499 Z M833.827501,339.015658 L833.945078,339.619889 C835.324774,347.047446 831.864808,354.152618 826.629004,359.332439 C822.334004,363.580439 814.733004,365.941439 812.580004,372.052439 C811.354004,375.529439 812.658004,378.826439 815.176004,381.125439 L814.596054,381.411865 L814.029082,381.701674 L813.47555,381.994352 L812.935839,382.289421 L812.410252,382.586431 C803.85624,387.500608 796.89004,395.492469 804.605004,405.145439 C813.35683,416.096102 831.643938,416.450921 844.528224,415.594112 L845.396196,415.533361 C857.889502,414.596564 872.688651,410.40011 879.463004,398.864439 C882.570004,393.572439 882.228004,387.172439 877.897004,382.643439 C875.284004,379.911439 870.623004,377.105439 866.349004,376.773439 C866.536004,374.365439 866.249004,372.039439 865.402004,370.076439 C863.570004,365.833439 858.695004,362.976439 853.993004,362.873439 C854.373746,353.863794 847.157484,344.970541 841.844065,337.767983 L841.301578,337.028987 L840.775004,336.302439 C838.337096,332.910439 833.120695,334.810762 833.827501,339.015658 Z M840.957004,348.605439 L845.798004,366.739439 L845.714867,366.888591 C844.00965,370.126721 848.479703,373.802494 851.131083,371.081688 L851.398019,370.794002 C854.544754,367.544072 859.374928,371.912651 859.435004,375.371439 C859.521004,380.240722 856.351156,384.005498 852.574441,386.492599 L852.309998,386.664043 L851.61369,387.096633 C848.514242,389.144993 850.860754,393.427606 854.268004,392.906439 C858.484004,392.261439 861.939004,388.917439 864.069004,384.742439 C866.345004,385.394439 868.935004,385.315439 871.332004,386.656439 C877.372134,390.034491 873.898303,395.944119 869.965036,399.515887 L869.80535,399.659395 L869.485004,399.938439 C862.268778,406.0921 852.443851,408.229709 843.182656,408.687854 L842.649004,408.712439 C833.294004,409.112439 821.106004,409.246439 813.088004,403.744439 C808.098004,400.320439 806.653004,395.464439 810.876004,390.865439 C813.264004,388.266439 815.675004,385.644439 818.157004,383.110439 C821.872004,384.883439 825.190004,384.164439 828.989004,382.486439 C829.476004,382.270439 829.206004,381.525439 828.729004,381.525439 C826.633004,381.523439 818.942004,377.632439 818.568004,375.146439 C818.222446,372.845439 822.476905,370.905564 824.545736,369.793862 L824.845859,369.629428 L825.106004,369.478439 C827.270004,368.167439 829.307004,366.641439 831.169004,364.927439 C835.894798,360.577263 839.327169,355.12113 840.826083,349.1497 L840.957004,348.605439 Z" id="Computer" fill="#FFF"/><path d="M388.071804,1.18393926 C392.314804,-9.47906074 406.657804,-5.33406074 405.058804,5.86793926 C404.101804,12.5779393 400.426804,19.6649393 397.125804,25.5459393 C394.437804,30.3329393 391.371804,35.0049393 387.214804,38.5929393 C394.614804,45.4969393 402.295804,52.1489393 410.171804,58.4649393 C418.765804,65.3559393 427.802804,71.7079393 437.143804,77.5459393 C445.334804,82.6659393 453.895804,87.2019393 461.616804,93.0439393 C468.795804,98.4749393 475.335804,105.006939 478.663804,113.533939 C482.209022,122.614285 480.668325,131.991781 478.057701,141.065997 L477.757804,142.091939 C475.090804,151.081939 470.473804,161.918939 476.875804,170.388939 C480.134804,174.700939 484.872804,177.754939 488.963804,181.201939 C492.599804,184.265939 496.012804,187.597939 499.142804,191.176939 C505.967804,198.978939 511.518804,207.757939 515.021804,217.539939 L515.335067,218.428623 C518.337571,227.088035 520.531904,237.696106 516.474804,246.197939 C515.310804,248.634939 511.556804,247.842939 510.904804,245.469939 C509.430804,240.093939 509.507804,234.463939 508.271804,229.011939 C506.985804,223.341939 504.845804,217.959939 502.050804,212.867939 C496.642962,203.017176 489.319089,194.602725 480.666283,187.488889 L478.076053,185.382482 C471.325873,179.842857 465.12394,173.966041 463.753804,164.797939 C462.287804,154.988939 466.217804,145.644939 468.744804,136.360939 C470.505804,129.890939 471.080804,123.688939 469.177804,117.841939 C466.852804,121.636939 463.680804,125.238939 461.171804,128.451939 C456.174804,134.852939 451.130804,141.214939 446.099804,147.588939 C440.941804,154.124939 435.910804,160.763939 431.119804,167.574939 C428.976804,170.621939 426.856804,173.686939 424.743804,176.754939 C423.154804,179.060939 420.938804,181.364939 419.206804,183.716939 C419.627804,184.974939 419.595804,186.424939 418.832804,187.454939 C409.647804,199.864939 396.580804,173.970939 393.172804,167.428939 C386.232804,154.105939 381.067804,139.951939 374.104804,126.631939 C366.889804,112.823939 358.673804,99.3839393 349.516804,86.7779393 C343.977804,79.1529393 337.769804,71.9909393 332.702804,64.1239393 C320.765804,74.9479393 305.057804,82.2039393 290.629804,88.7839393 C274.777423,96.0125107 258.308262,101.917726 242.05506,108.188388 L237.253971,110.053126 C209.249222,120.982528 180.560105,132.989789 157.282804,152.402939 C129.929804,175.215939 113.747804,207.011939 101.700804,239.937939 C87.832804,277.842939 76.359804,316.770939 65.664804,355.673939 C60.191804,375.578939 54.998804,395.573939 50.116804,415.632939 C45.814804,433.304939 42.248804,451.152939 37.268804,468.642939 C47.368804,468.285939 58.887804,472.195939 67.510804,473.324939 C106.809804,478.468939 145.579804,486.668939 182.682804,500.865939 C187.265804,502.619939 188.591804,507.196939 187.593804,510.906939 C190.236804,510.160939 192.877804,509.404939 195.520804,508.662939 C192.625145,504.226121 194.007208,496.293776 194.234863,491.376062 L194.248804,491.037939 C194.482804,484.484939 195.193804,477.924939 195.654804,471.383939 C196.53265,458.915016 197.67549,446.537265 199.195012,434.139785 L199.582804,431.039939 C201.304804,417.551939 202.577804,403.984939 204.456804,390.519939 L204.678804,388.978939 C203.777804,385.533939 202.728804,382.130939 201.627804,378.742939 C198.693804,369.717939 194.552804,361.222939 190.923804,352.481939 C190.495804,351.452939 191.961804,350.861939 192.646804,351.478939 C198.792804,357.007939 203.674804,364.021939 207.596804,371.357939 C207.664804,371.011939 207.724804,370.664939 207.795804,370.318939 L208.243344,368.116142 C209.346961,362.744094 210.689349,357.09197 213.984804,352.734939 C214.335804,352.271939 215.029804,352.174939 215.361804,352.734939 C218.515804,358.071939 218.868804,364.830939 219.353804,370.903939 C219.902804,377.773939 219.971804,384.730939 219.874804,391.619939 C219.685804,405.082939 218.736804,418.583939 217.980804,432.024939 C217.239157,445.23341 215.782659,458.273576 213.905608,471.352197 L213.548804,473.804939 C212.631221,480.030023 211.880012,486.332411 210.669732,492.514921 L210.327804,494.197939 C209.680804,497.263939 209.282804,501.586939 207.994804,505.177939 C241.132804,495.934939 274.321804,486.902939 307.573804,478.029939 C331.606804,471.615939 355.664804,465.297939 379.712804,458.939939 C380.981804,456.652939 382.561804,454.516939 384.533804,452.607939 C391.030804,446.315939 399.640804,443.508939 407.537804,448.351939 C408.179804,448.746939 408.233804,449.752939 407.537804,450.133939 C406.024804,450.960939 404.508804,451.808939 403.019804,452.692939 L417.459804,448.781939 C428.252804,445.856939 439.174804,442.201939 450.221804,440.162939 C470.568804,430.121939 492.452804,422.853939 513.886804,415.670939 L516.412565,414.8166 C527.387299,411.075021 538.739018,406.886368 550.077804,404.811939 C558.378804,403.293939 568.122804,405.125939 571.460804,413.629939 C575.686804,416.414939 579.662804,419.687939 583.499804,422.906939 C586.273804,425.232939 588.932804,427.705939 591.636804,430.113939 L592.135299,430.55156 C594.345863,432.469539 596.097011,433.754077 596.639804,436.806939 C596.919804,438.383939 595.917804,440.515939 593.972804,440.306939 C588.021804,439.669939 583.182804,432.771939 579.146804,428.652939 C576.028804,425.468939 572.885804,422.176939 570.039804,418.677939 C568.380804,419.580939 566.106804,419.418939 565.050804,417.418939 C559.574804,407.049939 544.573804,414.234939 536.273804,416.693939 L524.383868,420.213171 C518.439284,421.975299 512.497004,423.746139 506.564804,425.547939 C490.260804,430.498939 474.036804,436.039939 457.584804,440.586939 C459.056804,442.204939 458.853804,445.082939 456.057804,446.177939 C443.179804,451.230939 429.051804,453.843939 415.672804,457.310939 C407.225804,459.501939 398.783804,461.705939 390.344804,463.922939 C388.897804,466.266939 387.856804,468.918939 387.418804,472.005939 C385.808355,483.35647 388.914341,496.452513 391.939857,507.430601 L392.395606,509.068544 C394.882684,517.894774 398.541716,528.714606 406.156804,534.287939 C408.015804,535.646939 410.382804,536.592939 412.768804,536.806939 C427.675804,529.133939 442.581804,521.461939 457.496804,513.803939 C460.259804,512.384939 462.812804,514.305939 463.432804,516.589939 C468.691804,515.726939 473.938804,514.366939 478.717804,512.744939 C486.747804,510.017939 493.017804,504.816939 500.545804,501.219939 C515.111884,494.261859 529.9867,502.808778 543.028306,509.306647 L546.034069,510.783952 C551.882418,513.621497 564.049511,519.072677 566.855804,511.311939 C569.569804,503.803939 560.988804,495.779939 555.446804,492.400939 C548.840804,488.371939 541.148804,486.215939 533.682804,484.419939 C529.419804,483.393939 525.104804,482.556939 520.763804,481.945939 C515.839804,481.252939 510.753804,481.356939 506.012804,479.759939 C503.656804,478.967939 503.294804,475.225939 506.012804,474.607939 C513.310891,472.947048 522.021438,474.758723 529.63727,476.610074 L533.617804,477.590939 C541.290804,479.473939 549.037804,481.836939 556.026804,485.592939 C561.108804,488.324939 566.472804,492.474939 569.976804,497.554939 C573.019727,494.728324 576.80696,494.823886 580.752034,495.872232 L582.89332,496.467476 C586.429192,497.447347 589.295233,498.121796 592.735804,497.442939 C593.195804,494.939939 593.661804,492.435939 594.160804,489.931939 C599.063804,465.317939 604.440804,440.797939 610.373804,416.408939 C620.607675,374.341197 632.449558,332.735162 645.79976,291.555487 L647.139804,287.438939 C650.218804,278.019939 652.696804,267.757939 657.660804,259.104939 C662.355804,250.922939 669.877804,246.209939 678.814804,243.713939 C688.956804,240.881939 699.613804,239.399939 709.959804,237.486939 C712.267804,237.060939 714.581804,236.655939 716.891804,236.236939 C714.939637,232.712273 713.482517,228.711291 712.169996,225.640838 L711.939804,225.108939 C709.120104,218.680239 706.587144,212.135709 704.141178,205.556268 L702.3115,200.609995 C697.895182,188.699199 693.336161,176.984011 687.126804,165.843939 C680.590804,154.119939 671.919804,144.534939 661.110804,136.601939 C639.072804,120.425939 612.509804,112.174939 591.134804,94.8879393 C590.258804,94.1799393 591.381804,92.9689393 592.270804,93.4169393 C606.703804,100.668939 622.284804,105.599939 637.296804,111.503939 L640.258158,112.672373 C652.12352,117.376034 664.17365,122.496555 674.443804,130.111939 C685.893804,138.603939 694.911804,149.149939 701.689804,161.690939 C708.369804,174.052939 712.642804,187.889939 717.355804,201.093939 L718.616328,204.612202 C720.517316,209.887906 722.480804,215.147848 724.730804,220.281939 C726.516804,224.357939 729.849804,229.010939 731.364804,233.666939 C735.509804,232.947939 739.653804,232.226939 743.802804,231.533939 C833.669804,216.529939 924.540804,207.713939 1015.6138,205.134939 C1019.1768,205.033939 1021.0198,208.433939 1020.4948,211.541939 C1011.7548,263.222939 1003.9878,315.080939 995.465804,366.800939 C991.745804,389.373939 987.951804,411.929939 984.068804,434.474939 C982.101804,445.896939 979.827804,457.274939 977.964804,468.713939 C976.460804,477.951939 975.368804,487.261939 972.786804,496.285939 C970.470804,504.376939 966.916804,512.178939 961.079804,518.351939 C954.787804,525.005939 946.005804,528.226939 937.165804,529.748939 C914.724804,533.610939 891.706804,535.187939 869.083804,537.760939 L748.636804,551.463939 C750.396942,567.46256 750.528485,583.212277 749.720894,599.397149 L749.260632,608.232502 C748.884367,615.339127 748.434554,622.456439 747.413804,629.489939 C746.133804,638.312939 742.097804,645.783939 736.152804,652.373939 C730.693804,658.425939 724.061804,663.589939 717.610804,668.537939 C710.914804,673.675939 703.995804,678.634939 696.122804,681.811939 L695.100929,682.21752 C688.194063,684.914176 675.237493,689.090005 665.796804,687.563939 C667.030804,693.746939 669.418804,700.394939 667.301804,706.512939 C666.319804,709.353939 662.604804,710.770939 660.328804,708.353939 C655.819804,703.562939 655.467804,697.234939 654.399804,690.984939 C653.288804,684.480939 652.330804,677.953939 651.479804,671.410939 C649.833804,658.759939 648.552804,645.992939 648.161804,633.234939 C647.759804,620.132939 647.914804,607.012939 648.620804,593.924939 C648.983804,587.203939 649.433804,580.486939 650.286804,573.808939 C650.650804,570.960939 651.022804,568.110939 651.447804,565.269939 C651.602804,564.233939 651.774804,563.202939 651.959804,562.173939 L641.148985,563.393634 C624.572281,565.24423 607.987697,566.915368 591.293804,567.174939 C589.316804,567.204939 587.795804,566.304939 586.801804,564.993939 C585.742804,566.718939 583.898804,567.952939 581.257804,567.942939 C557.944804,567.855939 536.234804,560.232939 515.030804,551.248939 C504.342804,546.718939 493.820804,541.814939 483.116804,537.323939 C473.125804,533.131939 462.444804,530.140939 452.694804,525.418939 L427.074804,538.856939 C426.886804,539.517939 426.645804,540.142939 426.389804,540.665939 C424.721804,544.070939 421.432804,545.917939 418.073804,547.308939 C414.849804,548.646939 411.510804,549.062939 408.257804,548.724939 C388.827554,558.906939 369.392804,569.079377 349.945117,579.227908 L330.492804,589.367939 C291.736804,609.546939 253.133804,630.056939 214.133804,649.761939 L211.262616,651.207286 C197.791866,657.961939 183.327004,664.808873 168.377804,669.917939 C168.111804,673.701939 168.279804,677.381939 168.596804,681.386939 L168.673114,682.259395 C169.118828,686.99223 170.07451,692.922527 166.277804,696.291939 C164.302804,698.043939 160.774804,698.050939 159.431804,695.408939 C156.994804,690.617939 159.182804,683.064939 159.954804,677.859939 C160.228804,676.008939 160.562804,674.105939 161.056804,672.259939 C143.918804,677.361939 126.261804,679.835939 108.821804,676.970939 C91.841804,674.183939 78.690804,663.486939 68.088804,650.402939 C56.899804,636.595939 48.948804,620.504939 44.682804,603.255939 C39.827804,583.627939 39.510804,563.357939 39.624804,543.252939 C39.745804,521.843939 40.537804,500.328939 43.141804,479.063939 C40.288804,478.392939 37.124804,477.812939 34.241804,478.012939 C32.813804,480.297939 30.043804,481.259939 27.540804,480.962939 C22.097804,486.965939 35.903804,493.100939 40.315804,494.636939 C41.847804,495.170939 41.683804,497.658939 39.916804,497.583939 L38.8037812,497.531033 C31.9864196,497.168346 24.9431661,496.00437 20.934804,489.668939 C17.722804,484.590939 18.687804,478.574939 22.516804,474.433939 C25.045804,450.521939 31.091804,427.236939 36.718804,403.910939 C42.240804,381.015939 48.381804,358.267939 54.890804,335.634939 L57.8088287,325.504852 C68.0571273,290.016283 78.7691518,254.241374 92.905804,220.162939 C99.964804,203.146939 108.096804,186.443939 119.119804,171.606939 C129.394804,157.775939 141.525804,145.940939 155.469804,135.832939 C181.464819,116.987219 211.967279,105.600189 241.937238,94.7513706 L243.278804,94.2659393 C258.809804,88.6479393 274.302804,82.9629393 289.656804,76.8759393 C303.235804,71.4929393 316.244804,64.6679393 329.759804,59.2039393 C329.320804,58.4069393 328.896804,57.6009393 328.488804,56.7859393 L328.238952,56.9960874 C328.196248,57.0300504 328.152471,57.0629393 328.106804,57.0939393 C326.747804,58.0359393 324.746804,57.5729393 323.626804,56.5159393 C320.464375,53.5319189 321.53502,50.2194466 323.645922,47.1247781 L323.920804,46.7309393 C326.502804,43.1139393 328.805804,39.2899393 331.188804,35.5419393 L332.681058,33.1980764 C336.681014,26.9364578 340.884471,20.6330504 346.217804,15.4579393 C348.687804,13.0599393 351.391804,11.2659393 354.256804,9.92893926 C354.011804,9.41093926 356.159804,8.35193926 356.768804,8.88493926 C365.845804,5.56293926 376.288804,6.25893926 386.184804,7.17493926 M742.808804,552.125939 L730.188804,553.560939 C716.304804,555.140739 702.415404,556.668339 688.524276,558.181107 L658.351804,561.459939 C658.274804,563.179939 658.065804,564.861939 658.027804,566.160939 C657.830804,572.857939 657.683804,579.557939 657.544804,586.256939 C657.265804,599.684939 657.571804,613.125939 658.455804,626.527939 C659.312679,639.514189 660.441136,652.502197 662.19466,665.400502 L662.553804,667.978939 L662.761804,669.334939 C664.192804,669.472939 665.598804,670.152939 666.767804,671.549939 C669.319804,674.596939 678.560804,671.634939 682.169804,670.350939 C688.104804,668.238939 693.693804,664.670939 698.850804,661.092939 C703.887039,657.599292 708.421904,653.525438 712.779711,649.234038 L716.345256,645.707655 C719.892058,642.183131 723.442701,638.428388 725.615804,633.994939 C728.562804,627.982939 728.943804,620.602939 729.807804,614.054939 C730.871804,606.000939 732.138804,597.947939 733.477804,589.933939 M376.453804,467.583939 L375.144804,467.927939 C327.593804,480.562939 280.113804,493.570939 232.416804,505.647939 C208.812804,511.625939 185.096804,517.168939 161.463804,523.031939 L157.63756,523.988893 C138.993648,528.700979 120.125919,534.372157 105.848804,547.894939 C105.321804,548.392939 104.556804,547.627939 105.052804,547.098939 C120.439804,530.718939 142.323804,523.784939 163.335804,517.773939 C167.219804,516.662939 171.108804,515.577939 174.993804,514.472939 C146.417804,504.285939 117.390804,495.422939 87.693804,489.101939 C80.046804,487.473939 72.310804,486.278939 64.669804,484.644939 C59.340904,483.504639 54.136744,481.856469 48.864139,480.489207 L44.716804,479.445939 L44.6617244,492.553564 C44.592702,511.118629 44.6256611,529.668558 45.572804,548.230939 L45.7520966,551.669504 C46.8571586,572.326817 48.5820672,593.413045 55.912804,612.890939 C61.869804,628.718939 71.364804,643.629939 83.781804,655.158939 C90.064804,660.991939 96.819804,665.532939 105.169804,667.774939 C112.922804,669.855939 121.045804,670.099939 129.015804,669.544939 C167.244804,666.877939 201.274804,646.110939 234.482804,628.916939 C288.799804,600.793939 343.122804,572.684939 397.494804,544.669939 C396.024804,543.664939 394.640804,542.506939 393.381804,541.205939 C386.090804,533.675939 382.244804,523.367939 379.718804,513.384939 C377.029804,502.758939 375.421804,491.369939 375.234804,480.399939 M445.636904,555.526039 C446.116904,555.268039 446.672904,555.591039 446.694904,556.133039 C446.862904,560.285729 444.567969,564.381553 442.853264,568.122586 L442.671904,568.522039 C440.588904,573.156039 438.307904,577.728039 435.948904,582.228039 C431.233904,591.219039 426.333904,600.114039 421.219904,608.883039 C410.935904,626.524039 399.507904,643.422039 385.999904,658.782039 C382.948904,662.252039 377.930904,657.803039 379.888904,654.067039 C389.328904,636.057039 400.333904,619.052039 411.661904,602.195039 C417.332904,593.755039 422.999904,585.307039 428.726904,576.905039 C431.116071,573.399206 433.535793,569.905873 436.020793,566.465549 L437.519904,564.408039 M1009.5918,215.449939 C961.874804,216.890939 914.213804,220.002939 866.723804,224.879939 C822.557804,229.414939 778.553804,235.451939 734.797804,242.977939 C725.658637,244.549606 716.530582,246.185856 707.414216,247.886689 L701.945804,248.914939 C692.827804,250.642939 681.688804,251.355939 673.570804,256.226939 C665.011804,261.361939 662.698804,272.093939 659.850804,280.943939 C656.502804,291.351939 653.239804,301.789939 650.064804,312.252939 C637.456804,353.795939 625.939804,395.698939 615.665804,437.878939 C610.565804,458.815939 606.040804,479.869939 601.272804,500.882939 C597.036804,519.552939 592.362804,538.011939 587.479804,556.494939 C588.081804,556.026939 588.819804,555.670939 589.710804,555.480939 C613.958617,550.322346 638.710391,548.079598 663.320631,545.229745 L665.701804,544.951939 C691.160804,541.957939 716.619804,538.985939 742.093804,536.121939 L910.752804,517.154939 C920.699804,516.036939 931.355804,515.884939 941.035804,513.215939 C957.493564,508.675799 961.351158,490.276065 964.112452,475.622812 L964.195804,475.179939 C972.520804,430.906939 979.147804,386.248939 986.911804,341.863939 M591.404804,505.028939 C584.856804,504.596939 575.894804,498.599939 570.926804,499.029939 C573.534804,503.405939 574.711804,508.396939 573.208804,513.726939 C569.025804,528.558939 550.108804,520.884939 540.996804,516.353939 C533.525804,512.636939 526.311804,508.088939 518.040804,506.347939 C508.670804,504.377939 502.322804,508.103939 494.406804,512.398939 C487.904804,515.925939 480.823804,518.458939 473.541804,519.769939 C469.669804,520.467939 465.991804,520.541939 462.320804,520.269939 C462.099804,520.449939 461.850804,520.616939 461.566804,520.765939 L459.624804,521.784939 C468.405804,522.186939 477.349804,524.896939 485.521804,527.377939 C493.989804,529.947539 502.302924,533.045779 510.571756,536.213907 L518.706426,539.340511 C538.77185,547.024343 559.542304,554.320877 581.257804,554.256939 C582.818804,554.252939 584.097804,554.684939 585.104804,555.389939 M554.769104,458.554939 C561.238104,457.763939 567.209104,458.611939 572.378104,462.822939 C578.612104,467.900939 582.800104,476.322939 591.762104,476.875939 C594.375104,477.036939 594.982104,480.710939 592.385104,481.478939 C585.714104,483.453939 580.313104,479.844939 575.768104,475.158939 L572.712291,471.966226 C568.220823,467.315488 564.078415,463.72007 556.457104,463.997939 C548.295104,464.295939 540.119104,466.181939 532.010104,467.140939 C522.824104,468.226939 513.640104,469.152939 504.425104,469.951939 C503.997104,469.988939 503.924104,469.314939 504.325104,469.215939 L514.646308,466.647281 M548.524704,432.108739 L549.59161,432.001959 C558.985363,431.089822 567.576286,431.05443 575.965704,436.107739 L577.574784,437.080793 C585.1387,441.678148 593.371571,447.094406 598.101704,454.537739 C598.875704,455.756739 597.596704,457.189739 596.301704,456.879739 C587.210704,454.697739 580.564704,448.027739 572.919704,443.035739 C564.339704,437.433739 555.476704,438.357739 545.693704,439.227739 C536.221704,440.070739 526.754704,441.228739 517.375704,442.807739 C508.562704,444.289739 499.721704,446.629739 490.819704,447.375739 L490.821704,447.357739 C489.804704,447.355739 489.224704,445.828739 490.261704,445.310739 C499.295704,440.799739 509.758704,438.664739 519.585704,436.603739 M833.889504,339.263939 C832.981504,334.920939 838.323504,332.906939 840.799504,336.351939 L841.326078,337.078487 C846.675277,344.406852 854.411375,353.602617 854.017504,362.922939 C858.719504,363.025939 863.594504,365.882939 865.426504,370.125939 C866.273504,372.088939 866.560504,374.414939 866.373504,376.822939 C870.647504,377.154939 875.308504,379.960939 877.921504,382.692939 C882.252504,387.221939 882.594504,393.621939 879.487504,398.913939 C872.713151,410.44961 857.914002,414.646064 845.420696,415.582861 L844.975504,415.614939 C832.071504,416.506939 813.477504,416.265939 804.629504,405.194939 C796.094504,394.515939 805.527504,385.869939 815.200504,381.174939 C812.682504,378.875939 811.378504,375.578939 812.604504,372.101939 C814.757504,365.990939 822.358504,363.629939 826.653504,359.381939 C831.889308,354.202118 835.349274,347.096946 833.969578,339.669389 M840.981504,348.654939 C839.558504,354.838939 836.062504,360.494939 831.193504,364.976939 C829.331504,366.690939 827.294504,368.216939 825.130504,369.527939 L824.870359,369.678928 C822.949857,370.757052 818.229225,372.776939 818.592504,375.195939 C818.966504,377.681939 826.657504,381.572939 828.753504,381.574939 C829.230504,381.574939 829.500504,382.319939 829.013504,382.535939 C825.214504,384.213939 821.896504,384.932939 818.181504,383.159939 C815.699504,385.693939 813.288504,388.315939 810.900504,390.914939 C806.677504,395.513939 808.122504,400.369939 813.112504,403.793939 C821.130504,409.295939 833.318504,409.161939 842.673504,408.761939 C852.089504,408.359939 862.154504,406.259939 869.509504,399.987939 L869.82985,399.708895 C873.827178,396.153801 877.478257,390.129641 871.356504,386.705939 C868.959504,385.364939 866.369504,385.443939 864.093504,384.791939 C861.963504,388.966939 858.508504,392.310939 854.292504,392.955939 C850.885254,393.477106 848.538742,389.194493 851.63819,387.146133 L852.334498,386.713543 C856.226461,384.229506 859.547504,380.403461 859.459504,375.420939 C859.399428,371.962151 854.569254,367.593572 851.422519,370.843502 L851.278504,370.998939 C848.6454,373.966969 844.007506,370.226817 845.739367,366.938091 L845.822504,366.788939 M226.862202,176.675539 C226.850504,175.932539 227.895504,175.654539 228.260504,176.297539 C234.372504,187.050539 237.567504,200.231539 240.823504,212.078539 C244.233504,224.488539 246.986504,237.024539 249.459504,249.652539 C254.468504,275.223539 257.137504,300.647539 257.318734,326.709539 C257.343504,330.430539 251.281504,331.420539 250.688504,327.607539 C246.751504,302.256539 242.979504,276.879539 239.012504,251.535539 C237.016504,238.788539 234.693504,226.090539 232.470504,213.381539 M287.370504,195.405039 C286.920504,193.922039 289.078504,193.426039 289.630504,194.782039 C301.896504,224.891039 306.050504,259.013039 298.175504,290.778039 C296.970504,295.637039 289.853504,293.532039 290.762504,288.734039 M445.587904,168.651239 C445.525904,167.541239 446.966904,167.366239 447.509904,168.130239 C453.321904,176.319239 455.732904,187.286239 465.929904,191.518239 C471.020904,193.631239 476.749904,193.263239 481.247904,196.832239 C484.254904,199.219239 486.560904,202.987239 484.303904,206.602239 C483.575904,207.770239 481.537904,208.355239 480.549904,207.086239 C479.107904,205.237239 478.344904,203.023239 476.385904,201.637239 C473.622904,199.682239 469.896904,199.561239 466.728904,198.642239 C462.630904,197.454239 459.018904,195.375239 456.060904,192.286239 M542.686104,32.0673393 C543.285104,31.7623393 543.860104,31.9573393 544.243104,32.4753393 C544.790104,33.2133393 544.723104,33.9313393 544.053104,34.4373393 C544.948104,36.2663393 546.005104,40.8483393 546.156104,41.5153393 C546.768104,44.2193393 547.419104,46.9073393 548.100104,49.5933393 C549.474104,55.0103393 550.678104,60.4693393 552.053104,65.8883393 C553.511104,71.6323393 555.248104,77.3153393 557.181104,82.9163393 C557.305771,83.2790059 557.442882,83.6492282 557.586808,84.0249319 L557.807104,84.5923393 L557.861104,84.5063393 C558.254104,83.8853393 559.072104,84.3193393 558.975104,84.9753393 C558.885104,85.5733393 558.764104,86.1683393 558.662104,86.7663393 L558.864655,87.3020656 C560.129079,90.7052293 560.995004,94.2893893 558.675104,97.2923393 C557.807104,98.4153393 556.852104,99.0803393 555.662104,99.2783393 C553.754104,105.568339 551.360104,111.741339 548.797104,117.669339 L548.045911,119.400576 C544.275795,128.050753 540.254917,136.587277 534.252104,143.951339 C527.698104,151.991339 518.683104,157.481339 512.974104,166.291339 C510.318104,170.389339 508.470104,174.698339 506.970104,179.326339 L506.405835,181.083016 C505.341145,184.356425 504.112771,187.529218 501.042104,189.449339 C500.062104,190.061339 498.594104,189.866339 497.804104,189.031339 C491.507104,182.370339 498.099104,169.932339 501.896104,163.483339 C507.174104,154.515339 514.813104,148.778339 522.462104,142.012339 C530.707104,134.719339 535.966104,124.963339 541.053104,115.352339 C544.169104,109.464339 547.177104,103.449339 550.344104,97.5353393 C547.035369,94.6109569 545.976229,88.8020434 544.855246,84.7643896 L544.753104,84.4023393 C542.900104,77.9363393 541.428104,71.3023393 540.498104,64.6393393 C539.603045,58.232751 539.22973,51.9182874 539.466532,45.4758497 L539.534868,43.834728 M554.988404,62.5591393 C554.257404,61.5571393 555.467404,60.4221393 556.470404,60.6311393 C562.568611,61.8921048 568.530713,65.5833771 574.00388,68.5681847 L574.588404,68.8851393 C578.957404,71.2411393 583.353404,74.1271393 585.647404,78.7041393 C588.142434,83.6786847 587.936888,89.4083009 587.59662,94.8143072 L587.564404,95.3201393 C587.147404,101.803139 587.080404,108.539139 585.708404,114.905139 C585.006404,118.163139 582.055404,119.081139 579.532404,118.311139 C576.530404,127.790139 568.097404,134.774139 561.937404,142.254139 C554.083404,151.790139 555.561404,164.665139 556.382404,176.150139 C556.714404,180.800139 550.930404,182.122139 547.951404,179.641139 L541.086145,173.938917 C539.942848,172.987139 538.801071,172.033473 537.662404,171.076139 C536.687071,170.255473 535.720626,169.428584 534.762182,168.591324 L533.330404,167.327139 C532.695404,166.759139 529.894404,163.630139 529.075404,163.500139 C527.091671,163.184806 522.378722,168.41282 520.765763,170.052547 L520.561404,170.257139 C517.525404,173.234139 514.782404,176.437139 512.227404,179.834139 C511.757404,180.458139 510.838404,179.940139 511.174404,179.219139 C513.463779,174.315077 516.12581,169.626346 519.286566,165.237817 L519.925404,164.364139 C522.028404,161.530139 524.851404,156.526139 528.563404,155.689139 C533.095967,154.667868 537.621818,159.213201 540.919588,161.735934 L541.128404,161.894139 C542.697404,163.071139 544.248404,164.269139 545.796404,165.475139 C545.634404,156.924139 546.714404,148.284139 551.129404,140.915139 C554.242404,135.718139 558.906404,131.869139 562.897404,127.403139 C567.340404,122.430139 569.660404,116.318139 573.682404,111.139139 C574.200404,110.473139 574.914404,110.114139 575.687404,110.000139 C575.841949,105.836503 576.455173,101.631544 576.929027,97.5129867 L577.066404,96.2801393 C577.545404,91.8051393 578.677404,86.3391393 576.486404,82.1481393 C574.416771,78.1896393 569.668085,75.395457 566.15162,72.7096392 L563.280367,70.4824487 M357.073804,15.2409393 C355.237804,16.3029393 353.521804,17.6239393 351.964804,19.2749393 C347.063804,24.4739393 343.559804,30.9439393 340.149804,37.1679393 C338.313804,40.5199393 336.543804,43.9089393 334.692804,47.2529393 C333.887804,48.7079393 333.059804,50.1469393 332.222804,51.5839393 C331.835804,52.2459393 330.685804,53.5619393 330.115804,54.3729393 C330.749156,55.2603563 331.40399,56.1341511 332.071961,56.9984954 C332.326817,57.3282752 349.907564,76.47963 356.035804,83.9749393 C365.419804,95.4559393 373.807804,107.582939 380.978804,120.562939 C388.000804,133.273939 393.346804,146.731939 399.851804,159.688939 C403.107804,166.175939 406.743804,172.616939 411.378804,178.230939 C411.557804,178.449939 411.746804,178.656939 411.929804,178.872939 C413.698742,174.094096 418.231492,168.9774 420.457732,166.039378 L420.665804,165.761939 C425.714804,158.955939 431.046804,152.354939 436.494804,145.865939 C441.470804,139.940606 446.573224,134.143273 451.799254,128.441632 L453.764804,126.307939 C457.405804,122.374939 462.030804,116.489939 467.360804,113.679939 C466.789804,112.661939 466.128804,111.654939 465.368804,110.660939 C460.374804,104.135189 453.315401,99.3992309 446.349619,95.1259155 L441.832264,92.378016 C424.804352,82.0012314 408.041706,71.1435246 393.258804,57.6609393 C385.437804,50.5269393 377.724804,43.0539393 371.150804,34.7329393 L368.825863,31.7908223 M385.485804,10.1039393 C377.511804,10.7729393 368.900804,10.6139393 361.531804,13.2119393 C368.082804,19.4049393 374.309804,26.0919393 380.706804,32.3889393 C381.275804,28.1299393 382.439804,23.9229393 383.425804,19.7699393" id="Ink" fill="#000"/></g></g><g id="Head" transform="translate(372.000000, 180.000000) scale(0.9978902953586498 1)"><g id="Head/Short 4" stroke="none" stroke-width="1" fill="none" fill-rule="evenodd"><path d="M430.4052,143.8453 C430.0692,131.8873 412.6762,126.9223 407.6512,138.7653 C407.3392,139.0823 407.0002,139.3873 406.6822,139.6603 C408.2552,138.3113 404.9662,140.5433 404.4312,140.8193 C403.9732,141.0553 403.5052,141.2683 403.0382,141.4883 C399.8062,111.1943 388.8342,78.5363 360.4822,63.3303 C320.9382,44.1543 275.2452,40.4113 231.8622,42.3163 C209.8852,43.6203 184.5072,47.1343 164.9822,36.0163 C158.8982,32.5523 154.0212,27.0993 147.1462,24.9583 C125.4432,19.0873 115.5992,41.3733 118.5552,59.7003 C109.2982,59.7733 100.1152,64.8983 96.1202,73.3363 C93.7742,78.3303 93.8152,83.7193 91.7922,88.7313 C85.5852,101.4413 76.7042,110.5773 81.7252,125.9873 C72.8942,136.0363 77.9292,151.2493 85.0552,160.8703 C88.5742,165.8743 92.7652,170.6783 95.3432,176.2793 C97.8452,181.6423 94.0682,188.0023 91.9662,193.0863 C76.4262,229.9353 77.3142,270.5163 85.6762,308.9523 C68.8962,316.2333 63.8602,338.9933 74.8022,353.3243 C78.5672,358.3903 83.1602,360.2703 88.3692,363.3873 C94.9612,367.0153 89.5772,381.5473 91.6882,388.5653 C94.5562,405.6983 110.1562,416.2493 125.5812,405.1233 C135.3692,403.6423 143.2642,432.1213 150.3722,439.2693 C154.7512,445.0293 159.6132,450.2013 164.8992,454.9743 C180.6492,495.4993 261.3552,516.0493 301.2572,513.7033 C343.0422,509.3283 371.2312,473.8423 394.7032,442.3483 C406.7562,425.5673 414.5952,406.7853 417.4462,386.3003 C420.3102,365.7123 419.0572,345.0873 417.1212,324.4743 C413.0542,280.6783 406.6382,217.5823 402.4952,173.3133 C417.4672,172.0803 430.8592,159.3333 430.4052,143.8453 L430.4052,143.8453 Z" id="Skin" fill="#ffdbb4"/><path d="M131.908202,30.7870427 C134.816487,27.9182136 139.580941,30.8618171 142.732278,33.1669643 L143.429296,33.6846516 L145.427021,35.2029658 C149.955358,38.6943513 154.193327,42.4883552 159.085202,45.5080427 C164.424202,48.8060427 170.222202,51.4280427 176.111202,53.5780427 C187.531202,57.7470427 199.816202,59.6180427 211.923202,60.2090427 C261.459202,62.6270427 319.114202,36.6000427 364.073202,67.6800427 C374.730202,75.0470427 382.085202,85.8190427 385.880202,98.1390427 C390.160202,112.032043 388.694202,126.420043 392.196202,140.361043 C393.716108,146.412007 404.186635,147.251786 405.356409,140.601733 L405.433016,140.086615 L406.350204,139.512029 L406.712049,139.296167 C407.084119,139.082212 407.253421,139.020833 406.931432,139.321849 L406.86032,139.386 L407.002624,139.262617 C407.111513,139.165246 407.220957,139.065061 407.32918,138.962802 L407.648402,138.650543 C409.880353,133.390245 414.552343,131.445937 419.0859,131.957545 L418.958002,132.270343 L417.608299,135.748648 L417.178456,136.840362 C415.590878,140.824425 413.843281,144.596297 410.824002,148.010343 C406.551002,152.841343 401.237002,156.778343 395.250002,159.202343 C394.019002,159.700343 394.204002,161.369343 395.562002,161.504343 C408.936253,162.83558 424.001155,154.710547 430.290721,142.39588 C430.352075,142.829929 430.389606,143.275165 430.402402,143.730543 C430.446377,145.230726 430.360448,146.705192 430.155762,148.14597 C429.41164,148.422956 428.690136,148.833609 428.021002,149.389543 C423.678002,152.998543 421.545002,158.897543 417.461002,162.924543 C413.181002,167.144543 407.928002,171.057543 402.224002,173.017543 C402.134002,173.048543 402.060002,173.093543 401.994002,173.143543 C401.564002,171.511543 401.109002,169.888543 400.589002,168.290543 C400.385002,167.662543 399.548002,167.819543 399.485002,168.440543 C399.370373,169.549012 383.680805,158.388121 371.597364,160.191235 C348.881065,163.581005 343.635841,176.843559 310.997236,174.885243 C295.067662,173.929468 261.426742,159.007096 231.997236,157.885243 C205.299339,156.867518 157.585559,172.104763 144.997236,180.885243 C138.453073,185.449861 156.932609,200.522527 153.585408,207.375132 C144.090457,226.813806 147.937116,252.528473 138.009446,267.899212 L137.62577,268.477905 C131.267862,277.820026 135.236999,302.678733 132.760704,310.342205 C128.289819,324.178404 120.886418,318.118456 122.004202,319.973043 C122.358202,320.559043 123.304202,320.179043 123.118202,319.503043 C120.066202,308.404043 111.713202,300.024043 101.093202,296.966043 C101.553202,294.335043 100.717202,291.032043 99.0812018,288.874043 L98.411065,285.751119 L97.7935806,282.82778 C96.371108,276.008834 95.09779,269.195704 94.4122018,262.190043 C93.3852018,251.684043 93.3492018,241.100043 94.0242018,230.568043 C94.909388,216.729477 97.7598506,203.396848 100.893985,190.07337 L101.230794,188.645867 L103.695202,178.286043 C109.855202,180.038043 116.175202,181.145043 122.318202,181.694043 C129.470202,182.332043 136.551202,182.273043 143.577202,181.708043 C149.804202,198.623043 149.567202,217.884043 141.872202,234.404043 C132.869202,253.729043 110.803202,272.188043 116.860202,295.623043 C119.501522,305.838853 134.953729,303.753428 135.319757,293.438142 L135.326202,293.123043 C135.383952,282.930626 138.849028,274.537244 143.426072,265.776941 L144.056891,264.579876 L145.102625,262.626976 C150.582359,252.379695 155.221821,242.267709 156.764202,230.610043 C159.004202,213.675043 155.494202,196.188043 147.107202,181.382043 C176.982202,178.266043 205.897202,166.439043 235.067202,160.085043 L236.405059,159.79897 L237.748997,159.522444 C259.298803,155.17671 283.050202,154.663763 302.586202,166.009043 C302.959202,166.225043 303.254202,165.684043 302.917202,165.442043 C274.561202,144.991043 237.837202,147.894043 205.322202,155.101043 L203.448959,155.521061 L201.60945,155.942064 C171.534575,162.88802 140.026606,173.090466 109.284202,164.103043 C101.293202,161.767043 93.5382018,157.930043 87.2822018,152.373043 L86.7591117,151.904952 C84.1143619,149.517418 81.0942643,146.427418 80.5852018,142.803043 C80.4062018,141.527043 80.4622018,140.653043 81.2152018,139.643043 C81.9992018,138.591043 83.3692018,138.596043 82.5812018,138.216043 C91.7891918,142.654213 99.6828677,129.901429 91.034357,124.376235 L90.4232943,123.999276 C79.3574738,116.988751 84.885815,101.034356 97.5803356,101.108853 L98.2293152,101.12055 C105.418946,101.142028 107.62215,92.6501802 103.7552,87.6795089 L103.384155,87.2155804 C96.2285196,78.0001862 108.272961,66.8843391 117.64407,72.0941536 L118.157066,72.3889456 C122.605363,74.849074 127.282219,72.1101444 128.965202,67.7660427 C132.575712,58.444681 130.728112,48.820623 130.514728,39.1732494 L130.503202,38.5440427 L130.487774,37.4945799 L130.485225,36.6658183 L130.493068,36.1165227 C130.539786,34.0832226 130.803004,31.8775599 131.908202,30.7870427 Z M402.333002,174.470543 L402.423002,174.490543 L402.6155,174.49927 L402.790673,176.376599 L402.566101,175.422805 L402.333002,174.470543 Z M95.1304018,175.717864 L94.9142859,175.277207 L95.6142018,175.559043 L95.2769065,176.031381 L95.1304018,175.717864 Z M291.285602,122.077543 C290.540602,121.865543 290.003602,123.024543 290.743602,123.362543 C309.138602,131.776543 323.090602,145.204543 333.980602,162.030543 C335.012602,163.623543 336.569602,164.090543 338.361602,163.812543 C339.241352,163.676043 339.735227,163.249293 340.204774,162.663918 L340.321863,162.514345 L340.679602,162.030543 C341.456602,160.964543 341.353602,159.191543 340.679602,158.114543 C329.625602,140.461543 311.126602,127.743543 291.285602,122.077543 Z M335.071811,116.566442 C334.262968,116.569231 333.832277,117.807118 334.450402,118.333243 C339.732402,122.829243 344.890402,127.812243 348.641402,133.694243 C350.463402,136.549243 351.985402,139.593243 353.087402,142.799243 C354.288402,146.297243 354.677402,149.923243 356.392402,153.231243 C359.266402,158.775243 366.968402,155.678243 367.355402,150.261243 C367.940402,142.090243 361.115402,132.902243 355.707402,127.334243 C350.220015,121.683652 343.489138,117.786555 335.722909,116.648176 L335.179402,116.573243 L335.071811,116.566442 Z M132.312802,110.169943 C130.057802,109.599943 128.213802,112.477943 129.986802,114.165943 C139.724752,123.442709 152.885685,127.745514 165.989569,129.624479 L166.655802,129.717943 C178.924802,131.399943 196.768802,132.353943 206.019802,122.374943 C207.978802,120.261943 207.364802,116.211943 204.220802,115.558943 C199.915052,114.664193 195.495114,114.994005 191.12763,115.532083 L189.881348,115.690609 L186.783802,116.101943 C180.665802,116.900943 174.524802,117.387943 168.348802,117.206943 C155.983802,116.842943 144.205802,113.180943 132.312802,110.169943 Z M346.603902,80.6516427 C345.307902,80.1506427 343.937902,81.9326427 344.751902,83.0616427 C348.482902,88.2356427 352.953902,92.7606427 356.774902,97.8556427 C360.608902,102.966643 363.810902,108.337643 368.346902,112.884643 C370.780902,115.324643 374.925902,112.842643 374.065902,109.555643 C370.809902,97.1126427 358.422902,85.2196427 346.603902,80.6516427 Z M152.467102,86.2676427 C151.105102,85.7856427 150.151102,87.6716427 151.099102,88.6186427 C163.655102,101.154643 186.245102,107.720643 202.877102,100.479643 C206.620102,98.8496427 204.327102,93.6116427 200.960102,93.4046427 C192.637102,92.8916427 184.279102,93.8536427 175.999102,92.5876427 C167.915102,91.3506427 160.162102,88.9926427 152.467102,86.2676427 Z M173.574802,69.4640427 C171.775802,68.7150427 171.023802,71.3990427 172.345802,72.3770427 C179.449802,77.6290427 188.169802,79.9060427 196.862802,78.0150427 C199.693802,77.3990427 199.082802,72.8340427 196.177802,72.9510427 C188.313802,73.2650427 180.902802,72.5150427 173.574802,69.4640427 Z M231.859402,42.2015427 C242.623644,41.7288718 253.5301,41.6039151 264.449555,41.9761421 L259.60427,42.6193499 L256.373494,43.0408845 C243.987432,44.6383072 231.58269,45.9898084 219.077202,45.9350427 C210.625707,45.8981026 202.184713,45.2168886 193.931685,43.5508944 C206.573178,44.3132128 219.73394,42.921004 231.859402,42.2015427 Z" id="hair" fill="#ECDCBF"/><path d="M104.0175,117.5142 C104.0035,117.5762 104.0245,117.6232 104.0385,117.6892 C104.0415,117.6702 104.0445,117.6602 104.0495,117.6372 C104.0375,117.5872 104.0285,117.5542 104.0175,117.5142" id="Fill-4" fill="#4F66AF"/><path d="M104.0136,118.1509 C103.9586,118.0929 103.8806,118.0499 103.8026,117.9919 C103.8006,117.9939 103.7996,117.9959 103.7986,117.9979 C103.8716,118.0459 103.9416,118.1009 104.0136,118.1509" id="Fill-6" fill="#4F66AF"/><path d="M428.0238,149.5043 C432.9418,145.4183 440.6888,149.1803 439.0228,155.9073 C437.2098,163.2333 429.3578,168.2393 422.8758,171.2493 C416.2038,174.3463 409.7048,174.9433 402.4258,174.6053 L402.3358,174.5853 L402.3358,174.5853 C404.3568,182.6883 405.5028,191.1113 407.0488,199.2633 C409.0108,209.6053 410.9408,219.9523 412.8418,230.3043 C414.6808,240.3103 417.0058,250.3293 418.4188,260.3853 C419.8438,270.5363 421.2118,280.6943 422.6118,290.8483 C424.948164,307.807391 426.834114,324.844168 428.822619,341.851944 L429.770369,349.90228 C431.761701,366.942155 433.365055,384.002573 429.5908,400.9593 C426.0538,416.8513 418.0858,431.6753 408.8438,444.9413 C399.7928,457.9313 389.6818,470.4213 378.5828,481.7203 C357.1738,503.5113 330.7738,520.9643 299.8178,524.2013 C286.4888,525.5953 272.2528,524.0443 259.7218,519.1993 L258.889738,518.874237 C246.205085,513.866032 230.671241,505.291031 227.3698,491.2193 C225.3428,482.5873 234.2378,475.8483 242.0368,479.9443 C245.650244,481.842633 248.367254,484.011235 251.333521,486.730632 L251.8598,487.2163 C254.2838,489.4673 255.2168,490.1593 258.0138,491.9203 C263.7508,495.5293 268.0508,497.2373 274.5668,498.8773 C286.5808,501.8993 299.5468,501.4213 311.7428,497.8473 C337.6368,490.2593 357.7248,470.4593 374.9338,450.6063 C384.2778,439.8253 393.1468,428.5163 399.9868,415.9513 C407.1638,402.7683 410.4768,388.9273 410.2778,373.9273 C410.0528,357.0023 407.7138,340.0113 406.1788,323.1663 C404.6148,305.9933 403.1688,288.8263 401.8948,271.6293 C400.701388,255.502241 400.586011,239.302546 400.168884,223.125256 L400.0868,220.0923 C399.8418,211.5043 399.6718,202.9133 399.4768,194.3233 C399.2838,185.7583 398.6058,177.0843 399.4878,168.5553 C399.5508,167.9343 400.3878,167.7773 400.5918,168.4053 C401.1118,170.0033 401.5668,171.6263 401.9968,173.2583 C402.0628,173.2083 402.1368,173.1633 402.2268,173.1323 C407.9308,171.1723 413.1838,167.2593 417.4638,163.0393 C421.5478,159.0123 423.6808,153.1133 428.0238,149.5043 Z M115.947,29.5068 C119.53,14.7908 135.654,11.5038 147.577,18.5908 C153.312,21.9988 157.904,26.9138 163.261,30.8198 C168.587,34.7038 174.473,37.8228 180.684,40.0258 C193.023,44.4018 206.039,45.9928 219.08,46.0498 C250.82,46.1888 281.911,37.2688 313.698,38.2638 C338.294,39.0338 364.4,46.3028 382.241,64.0828 C391.852,73.6608 398.045,85.9748 401.367,99.0478 C402.919615,105.157646 404.07687,111.415753 404.989777,117.659308 L405.213,119.2198 C405.724,122.8688 406.544,126.7318 406.62,130.4198 C406.689,133.7318 405.851,137.1978 405.397,140.4758 C404.44,147.3858 393.737,146.5988 392.199,140.4758 C388.697,126.5348 390.163,112.1468 385.883,98.2538 C382.088,85.9338 374.733,75.1618 364.076,67.7948 C319.117,36.7148 261.462,62.7418 211.926,60.3238 C199.819,59.7328 187.534,57.8618 176.114,53.6928 C170.225,51.5428 164.427,48.9208 159.088,45.6228 C154.196125,42.6031125 149.958156,38.8091086 145.429819,35.3177231 L143.432094,33.799409 C140.327715,31.4638296 135.043,27.8122918 131.911,30.9018 C130.548069,32.2466276 130.465608,35.2873529 130.490572,37.6093372 L130.506,38.6588 C130.648,48.5168 132.657,58.3568 128.968,67.8808 C127.285017,72.2249017 122.608161,74.9638313 118.159864,72.5037029 L117.93,72.3718 C108.52104,66.77434 96.1590387,78.0218587 103.386953,87.3303378 L103.612,87.6118 C107.678588,92.5539647 105.510505,101.257051 98.2321134,101.235307 L97.97,101.2308 C85.00199,100.82589 79.2484961,117.032695 90.4260925,124.114034 L90.77,124.3258 C99.845,129.7568 91.885,142.8138 82.584,138.3308 C83.372,138.7108 82.002,138.7058 81.218,139.7578 C80.465,140.7678 80.409,141.6418 80.588,142.9178 C81.131,146.7838 84.531,150.0418 87.285,152.4878 C93.541,158.0448 101.296,161.8818 109.287,164.2178 C141.297,173.5758 174.137,162.1288 205.325,155.2158 C237.84,148.0088 274.564,145.1058 302.92,165.5568 C303.257,165.7988 302.962,166.3398 302.589,166.1238 C282.239,154.3058 257.315,155.3548 235.07,160.1998 C205.9,166.5538 176.985,178.3808 147.11,181.4968 C155.497,196.3028 159.007,213.7898 156.767,230.7248 C155.224619,242.382467 150.585158,252.494452 145.105423,262.741733 L144.05969,264.694634 C139.173873,273.892684 135.389375,282.582092 135.329,293.2378 C135.27,303.8248 119.531,306.0568 116.863,295.7378 C110.806,272.3028 132.872,253.8438 141.875,234.5188 C149.57,217.9988 149.807,198.7378 143.58,181.8228 C136.554,182.3878 129.473,182.4468 122.321,181.8088 C116.178,181.2598 109.858,180.1528 103.698,178.4008 L101.233592,188.760624 C97.96876,202.55992 94.9438,216.35 94.027,230.6828 C93.352,241.2148 93.388,251.7988 94.415,262.3048 C95.303,271.3788 97.177,280.1298 99.084,288.9888 C100.72,291.1468 101.556,294.4498 101.096,297.0808 C111.716,300.1388 120.069,308.5188 123.121,319.6178 C123.307,320.2938 122.361,320.6738 122.007,320.0878 C114.766,308.0738 96.12,303.6528 84.325,311.5898 C73.061,319.1678 68.618,334.4678 74.994,346.5798 C78.3477436,352.94821 83.3201723,357.423566 89.7318297,360.505385 L91.0209807,361.110777 C94.3809643,362.700729 97.4652143,364.433443 99.626,367.6268 C102.429114,371.768771 102.523508,376.147211 102.258601,380.880303 L102.144053,382.798489 C101.96696,385.97116 101.927,389.2369 102.872,392.2888 L103.086722,392.967113 C103.335975,393.728615 103.598,394.399578 104.053,395.1268 C104.189,395.3428 105.465,396.5948 105.881,397.0478 L106.405,397.2058 L106.405,397.2058 L106.991,397.2298 L106.991,397.2298 C107.641087,397.239843 108.495418,396.95811 108.215117,397.153368 L108.291422,397.109687 C108.538047,396.956109 108.764922,396.793718 108.956047,396.649265 L109.319,396.3658 C110.168,395.1388 111.232,394.1248 112.537,393.3518 L113.784,392.7968 L113.784,392.7968 C117.023,389.3768 122.573,391.1738 124.895,394.5808 C126.566,397.0308 127.465,399.5218 127.539,401.9788 C127.8,401.5598 128.38,401.3308 128.749,401.7998 L130.950621,404.605233 C139.373939,415.367974 147.65232,426.19792 157.224,436.0088 C162.497,441.4148 168.169,446.4948 174.098,451.1738 C179.16,455.1688 188.762,459.0128 188.909,466.2898 C188.955,468.6518 187.278,470.3248 185.226,471.1268 C178.547514,473.735341 170.294704,464.861643 165.470936,460.543736 L165.077,460.1948 C159.173,455.0238 153.785,449.3478 148.813,443.2778 C139.156,431.4868 131.081,417.9158 127.522,402.9868 C127.355,405.5918 126.237,408.1448 124.061,410.5538 C121.164,413.7598 117.199,416.0078 112.964,416.9338 C103.369,419.0308 94.001,415.5778 88.292,407.5828 C83.4666667,400.823613 82.0459162,391.89857 82.6684988,383.73295 L82.7451982,382.753113 C82.8326886,381.443457 82.9441765,379.040447 83.283,378.0178 L80.262,376.3588 L80.262,376.3588 C76.558,374.3878 73.125,371.8038 70.044,368.9638 C57.661,357.5478 51.448,338.9948 57.109,322.7598 C60.65,312.6038 68.091,303.7668 77.619,299.1738 C76.0264737,295.493274 75.493903,291.122565 74.8929802,287.255451 L74.792,286.6158 C73.773,280.2718 72.92,273.8478 72.595,267.4278 C71.987,255.4378 72.726,243.3358 74.61,231.4848 C77.67,212.2358 84.005,191.8218 95.617,175.6738 C86.758,172.1558 78.604,167.0628 72.31,159.9908 C65.733,152.6008 61.54,142.0208 66.626,132.6358 C67.922,130.2438 69.611,128.2328 71.552,126.6358 C68.186,120.2798 67.097,112.7678 69.174,105.5878 C71.656,97.0038 78.395,90.3088 86.536,87.1828 C84.559,79.0498 86.175,70.3018 92.216,63.5238 C98.208,56.7998 107.513,54.3508 116.125,55.8878 C116.592,47.2378 113.869,38.0378 115.947,29.5068 Z M91.792,333.2066 C99.688,329.3426 109.046,329.9566 116.933,333.6186 L117.467393,333.872262 C126.078332,338.047828 137.48298,347.803763 134.746,358.1796 C133.144,364.2476 126.402,366.3196 121.174,363.7006 C116.807,361.5116 115.811,357.5986 113.62,353.6676 C112.071,350.8876 110.156,348.7146 107.907,346.4796 C103.166,341.7706 97.841,338.2726 91.792,335.4736 C90.92,335.0696 90.95,333.6196 91.792,333.2066 Z M290.7464,123.4773 C290.0064,123.1393 290.5434,121.9803 291.2884,122.1923 C311.1294,127.8583 329.6284,140.5763 340.6824,158.2293 C341.3564,159.3063 341.4594,161.0793 340.6824,162.1453 L340.324661,162.629103 C339.817658,163.290909 339.317463,163.779425 338.3644,163.9273 C336.5724,164.2053 335.0154,163.7383 333.9834,162.1453 C323.0934,145.3193 309.1414,131.8913 290.7464,123.4773 Z M423.5718,126.8091 C425.2528,123.9621 429.7098,124.5351 430.5968,127.7271 L430.725173,128.0049 C431.204254,129.093104 430.986319,129.315841 430.0928,128.7001 C432.3048,130.5221 433.3058,133.2361 432.6298,136.1541 C428.9778,151.9141 411.1268,163.1681 395.5648,161.6191 C394.2068,161.4841 394.0218,159.8151 395.2528,159.3171 C401.2398,156.8931 406.5538,152.9561 410.8268,148.1251 C414.9798,143.4291 416.7268,138.0561 418.9608,132.3851 C419.7988,130.2561 421.1028,128.7231 422.9398,127.8861 C423.1828,127.5501 423.3948,127.1921 423.5718,126.8091 Z M335.074609,116.681199 L335.1822,116.688 C343.1782,117.721 350.0952,121.667 355.7102,127.449 C361.1182,133.017 367.9432,142.205 367.3582,150.376 C366.9712,155.793 359.2692,158.89 356.3952,153.346 C354.6802,150.038 354.2912,146.412 353.0902,142.914 C351.9882,139.708 350.4662,136.664 348.6442,133.809 C344.8932,127.927 339.7352,122.944 334.4532,118.448 C333.835075,117.921875 334.265766,116.683988 335.074609,116.681199 L335.074609,116.681199 Z M129.9896,114.2807 C128.2166,112.5927 130.0606,109.7147 132.3156,110.2847 C144.2086,113.2957 155.9866,116.9577 168.3516,117.3217 C174.5276,117.5027 180.6686,117.0157 186.7866,116.2167 L189.884147,115.805366 C194.654984,115.182691 199.507779,114.693736 204.2236,115.6737 C207.3676,116.3267 207.9816,120.3767 206.0226,122.4897 C196.7716,132.4687 178.9276,131.5147 166.6586,129.8327 C153.3356,128.0047 139.8926,123.7147 129.9896,114.2807 Z M344.7547,83.1764 C343.9407,82.0474 345.3107,80.2654 346.6067,80.7664 C358.4257,85.3344 370.8127,97.2274 374.0687,109.6704 C374.9287,112.9574 370.7837,115.4394 368.3497,112.9994 C363.8137,108.4524 360.6117,103.0814 356.7777,97.9704 C352.9567,92.8754 348.4857,88.3504 344.7547,83.1764 Z M151.1019,88.7334 C150.1539,87.7864 151.1079,85.9004 152.4699,86.3824 C160.1649,89.1074 167.9179,91.4654 176.0019,92.7024 C184.2819,93.9684 192.6399,93.0064 200.9629,93.5194 C204.3299,93.7264 206.6229,98.9644 202.8799,100.5944 C186.2479,107.8354 163.6579,101.2694 151.1019,88.7334 Z M172.3486,72.4918 C171.0266,71.5138 171.7786,68.8298 173.5776,69.5788 C180.9056,72.6298 188.3166,73.3798 196.1806,73.0658 C199.0856,72.9488 199.6966,77.5138 196.8656,78.1298 C188.1726,80.0208 179.4526,77.7438 172.3486,72.4918 Z" id="Ink" fill="#000"/></g></g><g id="Face" transform="translate(531.000000, 366.000000) scale(1 1)" fill="#000"><g id="Face/Smile" stroke="none" stroke-width="1" fill="none" fill-rule="evenodd"><path d="M146.586567,240.926554 C139.864291,238.184203 133.866322,233.609781 129.481228,227.766254 C127.956691,225.734803 127.561405,223.589624 127.881219,221.627583 C128.240828,219.421406 129.546036,217.4219 131.326046,216.080693 C133.111571,214.735331 135.345035,214.071832 137.504329,214.410065 C139.380629,214.703969 141.248396,215.731287 142.726594,217.861908 L143.035427,218.287981 C145.642441,221.814933 149.039621,224.708755 152.91047,226.573991 C156.641339,228.371775 160.813939,229.21087 165.131898,228.722919 C173.355732,227.793938 179.024012,223.346401 185.048774,217.30672 C185.795561,216.544195 186.542826,215.757766 187.293714,214.958678 C187.767915,214.234308 188.425986,213.768756 189.156624,213.524488 C189.967867,213.253272 190.885573,213.268617 191.726122,213.56195 C192.536835,213.844871 193.261572,214.380994 193.747527,215.094538 C194.209389,215.772704 194.47125,216.610486 194.386283,217.574143 C193.834826,223.833283 190.562474,229.419299 185.914235,233.805502 C180.751772,238.67694 173.908551,242.047034 167.465957,243.229031 C160.36811,244.531047 153.135593,243.598228 146.586567,240.926554 L146.586567,240.926554 Z M170.814304,144.367155 C178.365682,148.9572 189.871664,159.660291 181.748119,171.039573 C172.185929,181.073062 158.418535,169.568982 151.634201,164.366134 C145.343449,160.333898 138.275437,170.704507 144.112,175.412823 C193.135736,211.708059 213.030606,145.567387 174.633685,138.970386 C170.406047,138.243425 168.835891,142.947174 170.814304,144.367155 Z M82.9633,102.1464 C83.7976284,91.7901242 99.5703,89.4384 101.1393,99.6864 C102.5443,108.8664 100.8903,117.2994 96.7553,125.5644 C92.8043,133.4604 82.8737826,129.776544 82.1227826,122.586544 C81.1160984,112.948648 82.4443,108.588596 82.9633,102.1464 Z M203.027,97.5615 C205.226,94.6815 208.401,92.7155 212.205,93.8265 C224.09,97.2995 220.587,114.1725 216.413,122.3855 C214.145,126.8455 206.814,127.9765 203.501,124.0495 C198.101,117.6455 195.515,104.8565 202.38,98.5485 C202.566,98.2225 202.773,97.8935 203.027,97.5615 Z M96.5879,56.8305 L98.465271,56.501905 C104.27307,55.49746 111.4944,54.5323 115.6029,59.2015 C117.7819,61.6775 118.5319,66.2795 115.6029,68.6495 C110.4509,72.8195 104.7549,71.2035 98.5809,71.5565 C93.4929,71.8485 88.6029,72.6905 83.7019,74.0915 C72.9499,77.1645 64.1889,82.7745 55.0059,88.9345 C53.8009,89.7425 52.5709,88.2015 53.1459,87.0745 C58.4469,76.6915 68.7199,68.1625 79.0099,62.9635 C84.5019,60.1885 90.5119,57.8865 96.5879,56.8305 Z M192.192876,52.1793876 L193.629806,52.4734684 C209.267042,55.742077 229.583473,62.2713911 236.988459,77.6308459 C237.270623,79.8027272 236.97249,80.2682047 236.730054,80.5723213 L236.649336,80.6735209 C236.449568,80.9332186 236.290169,81.2912104 235.348782,81.5868073 C235.087547,81.5245653 234.823712,81.4586426 234.557082,81.3887687 C231.162766,80.499243 228.477205,79.2737961 225.877298,78.0022488 L223.058339,76.6134493 C219.787784,75.0098309 216.488352,73.4645766 212.991711,72.3238115 C205.52958,69.8898666 197.854137,68.1753043 190.059777,67.259767 C188.37041,67.0615005 186.743655,66.4913394 185.460262,65.5141761 C184.242065,64.5866523 183.311441,63.3024737 182.887128,61.5955207 C182.33722,59.3864508 182.495251,57.7140037 183.680513,55.7210991 C184.571756,54.2244705 185.846982,53.1871113 187.311265,52.5914244 C188.804038,51.9841473 190.503545,51.840982 192.192876,52.1793876 Z" id="Ink" fill="#000"/></g></g><g id="Beard" transform="translate(494.999934, 517.999659) scale(1 1)" fill="#000"><g id="Beard/None" stroke="none" stroke-width="1" fill="none" fill-rule="evenodd" fill-opacity="0"/></g><g id="Mask" transform="translate(400.000000, 480.000000) scale(1 1)" fill="#000"><g id="Mask/None" stroke="none" stroke-width="1" fill="none" fill-rule="evenodd" fill-opacity="0"/></g><g id="Accessories" transform="translate(419.000000, 421.000000) scale(1 1)" fill="#000"><g id="Accessories/Glasses 2" stroke="none" stroke-width="1" fill="none" fill-rule="evenodd"><path d="M372.3111,95.4577 C360.1701,108.0027 339.9021,111.6027 323.7491,104.8747 C282.2731,87.5457 302.5741,33.4957 334.5611,18.9807 C338.5571,17.9847 343.8941,15.6217 348.7611,15.0857 C349.2011,14.8697 350.1591,15.4947 351.3201,14.9037 C386.5911,18.8417 394.6231,73.5937 372.3111,95.4577 M238.5331,98.6687 C224.9161,116.7297 199.6001,122.3017 178.9161,113.9057 C138.0541,97.8137 152.5471,49.8847 180.5041,31.0947 C239.5611,8.9037 263.9481,65.3677 238.5331,98.6687 M149.9531,58.6507 C149.9151,58.6327 149.8771,58.6237 149.8381,58.6057 C150.0541,58.5107 150.2701,58.4157 150.4851,58.3187 C150.4151,58.5017 150.3391,58.6827 150.2711,58.8657 C150.1651,58.7927 150.0721,58.7077 149.9531,58.6507 M400.4231,39.1277 C397.0891,39.1347 392.2731,39.6827 389.5131,41.9957 C382.7071,19.0427 357.5851,-2.2003 335.7371,13.2897 C318.5321,18.8227 305.7651,31.0937 298.5091,47.4077 C285.4261,39.6257 264.8541,42.9487 253.5091,53.2397 C246.0791,28.6887 227.7931,20.0917 206.0281,18.8227 C182.2721,14.9317 158.5941,38.0027 151.2061,56.5107 C145.0631,55.8117 135.8841,53.8567 130.1051,57.6477 C92.5981,47.8117 27.0231,42.3887 19.3981,47.8537 C13.9641,49.9387 10.9821,62.7647 18.5721,63.4567 C25.1861,62.5177 17.8001,54.0587 24.4671,53.1357 C59.9901,50.9337 94.4751,58.0877 129.6221,61.0897 C132.7601,65.3107 142.8991,66.7227 148.3081,65.0267 C139.7891,96.4227 158.1791,117.7827 185.7341,124.1807 C228.4011,133.9817 265.5221,95.8137 254.3651,56.1137 C267.2901,49.6837 282.1571,49.9597 296.2371,53.3467 C272.7091,139.9367 412.1661,136.0517 390.3851,44.9627 C404.8801,52.1727 408.0281,40.5827 400.4231,39.1277" id="Ink" fill="#000"/></g></g></g></svg>