<svg xmlns="http://www.w3.org/2000/svg" xmlns:xlink="http://www.w3.org/1999/xlink" width="1000" zoomAndPan="magnify" viewBox="0 0 750 374.999991" height="500" preserveAspectRatio="xMidYMid meet" version="1.0"><defs><filter x="0%" y="0%" width="100%" height="100%" id="c65f059179"><feColorMatrix values="0 0 0 0 1 0 0 0 0 1 0 0 0 0 1 0 0 0 1 0" color-interpolation-filters="sRGB"/></filter><mask id="10829e107c"><g filter="url(#c65f059179)"><rect x="-75" width="900" fill="#000000" y="-37.499999" height="449.999989" fill-opacity="0.498"/></g></mask><mask id="8e67e615c7"><g filter="url(#c65f059179)"><rect x="-344" width="1080" fill="#000000" y="-132.499998" height="539.999987" fill-opacity="0.498"/></g></mask><clipPath id="51eb74a8fb"><path d="M 0.558594 0.441406 L 377.359375 0.441406 L 377.359375 235.640625 L 0.558594 235.640625 Z M 0.558594 0.441406 " clip-rule="nonzero"/></clipPath><clipPath id="474b5371b3"><rect x="0" width="378" y="0" height="236"/></clipPath><clipPath id="58843a2988"><rect x="0" width="397" y="0" height="306"/></clipPath></defs><g mask="url(#10829e107c)"><g transform="matrix(1, 0, 0, 1, 179, 50)"><g clip-path="url(#58843a2988)"><g mask="url(#8e67e615c7)"><g transform="matrix(1, 0, 0, 1, 5, 5)"><g clip-path="url(#474b5371b3)"><g clip-path="url(#51eb74a8fb)"><path fill="#f1ece8" d="M 260.238281 71.6875 C 271.003906 71.6875 281.777344 71.492188 292.539062 71.742188 C 303.519531 71.992188 314.484375 72.824219 325.378906 74.324219 C 335.332031 75.695312 345.164062 77.617188 354.644531 81.035156 C 360.105469 83.003906 365.351562 85.417969 369.839844 89.15625 C 371.636719 90.648438 373.328125 92.347656 374.726562 94.210938 C 377.796875 98.308594 377.800781 102.75 375.027344 107.0625 C 373.644531 109.210938 371.84375 110.972656 369.855469 112.542969 C 365.652344 115.863281 360.980469 118.417969 356.199219 120.773438 C 346.792969 125.40625 337.027344 129.210938 327.316406 133.140625 C 320.621094 135.851562 313.898438 138.5 307.230469 141.28125 C 305.015625 142.207031 302.910156 143.414062 300.8125 144.589844 C 299.796875 145.160156 298.828125 145.875 297.984375 146.679688 C 296.238281 148.347656 295.890625 150.210938 297.039062 152.320312 C 297.75 153.636719 298.664062 154.886719 299.679688 155.984375 C 301.199219 157.625 302.863281 159.140625 304.515625 160.65625 C 307.65625 163.535156 310.882812 166.324219 313.976562 169.25 C 318.890625 173.894531 323.257812 178.996094 326.542969 184.945312 C 329.085938 189.554688 330.9375 194.390625 331.226562 199.714844 C 331.535156 205.488281 329.835938 210.542969 325.816406 214.761719 C 323.308594 217.394531 320.316406 219.351562 317.089844 220.976562 C 311.40625 223.839844 305.359375 225.710938 299.238281 227.339844 C 289.09375 230.035156 278.769531 231.78125 268.371094 233.140625 C 260.304688 234.199219 252.21875 235.054688 244.097656 235.300781 C 237.320312 235.507812 230.53125 235.324219 223.75 235.171875 C 219.605469 235.082031 215.457031 234.824219 211.328125 234.453125 C 203.738281 233.769531 196.15625 233.007812 188.582031 232.164062 C 181.0625 231.320312 173.597656 230.097656 166.21875 228.378906 C 159.65625 226.855469 153.199219 225.015625 147.160156 221.945312 C 143.695312 220.179688 140.414062 218.132812 137.75 215.261719 C 136.6875 214.117188 135.726562 212.851562 134.902344 211.53125 C 133.269531 208.917969 132.996094 206.050781 133.835938 203.117188 C 134.25 201.667969 134.878906 200.28125 135.417969 198.871094 C 135.757812 197.980469 136.175781 197.117188 136.441406 196.207031 C 136.902344 194.617188 136.5625 193.671875 135.03125 193.082031 C 133.640625 192.550781 132.128906 192.101562 130.65625 192.054688 C 127.019531 191.9375 123.371094 191.941406 119.738281 192.140625 C 114.925781 192.40625 110.132812 192.945312 105.328125 193.296875 C 98.453125 193.804688 91.578125 194.375 84.691406 194.6875 C 78.761719 194.957031 72.808594 195.097656 66.871094 194.957031 C 57.539062 194.738281 48.3125 193.640625 39.476562 190.351562 C 35.144531 188.738281 31.007812 186.730469 27.417969 183.796875 C 25.699219 182.390625 24.0625 180.789062 22.734375 179.015625 C 19.917969 175.25 19.417969 171.039062 21.023438 166.59375 C 22.148438 163.484375 24 160.828125 26.097656 158.324219 C 30.007812 153.65625 34.644531 149.753906 39.363281 145.953125 C 44.644531 141.695312 50.035156 137.570312 55.261719 133.246094 C 58.148438 130.855469 60.84375 128.222656 63.511719 125.585938 C 64.613281 124.496094 65.546875 123.175781 66.308594 121.824219 C 68.324219 118.265625 67.527344 115.519531 64.003906 113.46875 C 61.296875 111.894531 58.304688 111.140625 55.253906 110.636719 C 50.167969 109.800781 45.054688 109.128906 39.980469 108.242188 C 35.101562 107.390625 30.402344 105.910156 25.941406 103.738281 C 12.6875 97.28125 4.640625 86.761719 1.648438 72.390625 C 0.0898438 64.90625 1.113281 57.601562 3.367188 50.351562 C 6.511719 40.222656 12.386719 32.125 20.496094 25.355469 C 28.734375 18.476562 38.125 13.941406 48.113281 10.371094 C 55.699219 7.660156 63.480469 5.867188 71.472656 4.960938 C 78.933594 4.109375 86.382812 3.15625 93.855469 2.425781 C 99.433594 1.882812 105.035156 1.625 110.628906 1.234375 C 118.742188 0.667969 126.871094 0.503906 135.003906 0.582031 C 153.582031 0.757812 171.898438 2.933594 189.816406 8.003906 C 195.324219 9.5625 200.734375 11.414062 205.796875 14.117188 C 208.160156 15.378906 210.441406 16.839844 212.585938 18.445312 C 214.089844 19.574219 215.445312 20.984375 216.605469 22.472656 C 219.277344 25.902344 219.824219 29.777344 218.515625 33.914062 C 217.660156 36.621094 216.300781 39.082031 214.527344 41.265625 C 212.128906 44.222656 209.585938 47.070312 207.089844 49.945312 C 205.25 52.058594 203.300781 54.085938 201.550781 56.273438 C 200.441406 57.660156 199.441406 59.195312 198.699219 60.804688 C 197.257812 63.910156 198.117188 66.34375 201.066406 68.085938 C 203.367188 69.445312 205.929688 70.085938 208.523438 70.578125 C 214.21875 71.652344 219.984375 71.992188 225.761719 72 C 234.898438 72.007812 244.039062 71.875 253.175781 71.8125 C 255.527344 71.792969 257.882812 71.808594 260.238281 71.808594 Z M 260.238281 71.6875 " fill-opacity="1" fill-rule="evenodd"/></g></g></g></g><path fill="#d08f52" d="M 228.601562 261.300781 C 229.308594 261.5625 229.878906 262.203125 230.511719 262.667969 C 230.464844 262.921875 230.417969 263.175781 230.371094 263.433594 C 229.308594 263.707031 228.234375 264.269531 227.191406 264.207031 C 222.960938 263.953125 219.59375 265.609375 216.683594 268.507812 C 216.488281 268.703125 216.1875 268.792969 215.921875 268.910156 C 215.84375 268.949219 215.734375 268.917969 215.589844 268.917969 C 214.246094 267.988281 214.835938 266.878906 215.460938 265.871094 C 217.589844 262.445312 224.84375 259.90625 228.601562 261.300781 Z M 229.976562 253.503906 C 230.332031 253.65625 230.726562 253.847656 230.941406 254.140625 C 231.207031 254.503906 231.515625 255.042969 231.421875 255.410156 C 231.332031 255.75 230.75 256.183594 230.375 256.195312 C 229.417969 256.21875 228.457031 256.015625 227.492188 255.929688 C 224.988281 255.703125 222.449219 255.136719 219.984375 255.355469 C 216.519531 255.667969 213.398438 257.25 211.050781 259.882812 C 209.113281 262.054688 207.457031 264.476562 205.667969 266.78125 C 205.117188 267.492188 205.035156 268.714844 203.558594 268.617188 C 202.703125 267.464844 203.074219 266.203125 203.628906 265.121094 C 207.144531 258.300781 212.207031 253.324219 220.039062 251.871094 C 223.515625 251.226562 226.804688 252.125 229.976562 253.503906 Z M 271.300781 261.558594 C 274.730469 261.765625 276.964844 263.5625 277.101562 266.234375 C 276.019531 267.144531 274.964844 266.464844 274.144531 265.941406 C 270.824219 263.824219 267.683594 264.1875 264.53125 266.242188 C 264.09375 266.527344 263.46875 266.542969 262.597656 266.769531 C 263.183594 263.160156 266.589844 261.269531 271.300781 261.558594 Z M 188.886719 255.320312 C 188.980469 255.351562 189.082031 255.359375 189.167969 255.40625 C 190.175781 255.945312 191.679688 256.300781 191.253906 257.800781 C 190.839844 259.265625 189.570312 258.554688 188.53125 258.351562 C 183.546875 257.386719 178.976562 257.914062 175.597656 262.3125 C 175.0625 263.007812 174.730469 263.875 174.160156 264.53125 C 173.78125 264.960938 173.144531 265.160156 172.496094 265.535156 C 171.699219 263.382812 172.664062 261.917969 173.535156 260.566406 C 176.492188 255.96875 183.691406 253.5625 188.886719 255.320312 Z M 279.378906 254.164062 C 281.894531 256.050781 284.335938 258.078125 285.675781 261.023438 C 285.867188 261.445312 285.578125 262.078125 285.507812 262.667969 C 283.925781 262.882812 283.207031 261.886719 282.402344 261.082031 C 280.945312 259.628906 279.609375 258.03125 278.035156 256.71875 C 272.421875 252.046875 265.796875 252.585938 261.03125 258.101562 C 259.566406 259.796875 258.378906 261.730469 257.058594 263.550781 C 256.515625 264.296875 256.289062 265.449219 254.949219 265.191406 C 254.339844 261.980469 258.257812 256.378906 263.355469 253.144531 C 268.25 250.039062 274.324219 250.371094 279.378906 254.164062 Z M 233.003906 243.648438 C 234.242188 244.097656 235.566406 244.699219 235.441406 246.847656 C 234.429688 246.710938 233.519531 246.605469 232.613281 246.46875 C 229.160156 245.941406 225.726562 245.117188 222.253906 244.925781 C 213.136719 244.433594 206.390625 248.660156 201.535156 256.195312 C 200.265625 258.164062 199.234375 260.289062 197.957031 262.25 C 197.371094 263.148438 196.453125 263.832031 195.6875 264.613281 C 195.46875 264.5 195.25 264.386719 195.03125 264.277344 C 195.09375 263.46875 194.945312 262.566406 195.253906 261.867188 C 198.785156 253.886719 203.605469 247.015625 211.941406 243.476562 C 218.949219 240.503906 226.015625 241.101562 233.003906 243.648438 Z M 277.148438 240.621094 C 279.371094 241.148438 281.585938 242.28125 283.453125 243.621094 C 288.171875 247.003906 291.519531 251.617188 294.066406 256.785156 C 294.589844 257.847656 294.699219 259.117188 294.996094 260.269531 C 293.351562 261.117188 292.539062 260.425781 291.90625 259.507812 C 291.015625 258.21875 290.199219 256.875 289.386719 255.53125 C 287.382812 252.234375 284.992188 249.257812 282 246.804688 C 279.257812 244.5625 276.148438 243.226562 272.53125 243.363281 C 270.472656 243.441406 268.386719 243.382812 266.363281 243.710938 C 261.070312 244.566406 257.296875 247.855469 254.34375 252.035156 C 252.140625 255.148438 250.367188 258.558594 248.386719 261.824219 C 247.8125 262.773438 247.179688 263.683594 246.574219 264.613281 C 246.261719 264.484375 245.945312 264.355469 245.628906 264.226562 C 245.765625 263.207031 245.691406 262.101562 246.070312 261.183594 C 248.804688 254.558594 252.503906 248.539062 258.402344 244.277344 C 264.011719 240.222656 270.417969 239.03125 277.148438 240.621094 Z M 184.304688 246.238281 C 186.855469 246.683594 189.296875 247.832031 191.757812 248.746094 C 192.371094 248.976562 192.976562 249.445312 193.382812 249.96875 C 193.6875 250.363281 193.917969 251.15625 193.726562 251.523438 C 193.523438 251.910156 192.71875 252.265625 192.28125 252.167969 C 190.953125 251.867188 189.660156 251.382812 188.378906 250.898438 C 183.097656 248.894531 177.730469 248.410156 172.273438 250.019531 C 166.6875 251.664062 162.582031 255.050781 160.421875 260.660156 C 160.101562 261.488281 159.75 262.308594 159.347656 263.097656 C 159.230469 263.328125 158.882812 263.433594 158.503906 263.6875 C 156.960938 262.765625 157.375 261.574219 157.671875 260.425781 C 159.035156 255.175781 162.429688 251.546875 166.949219 249.03125 C 172.363281 246.019531 178.261719 245.175781 184.304688 246.238281 Z M 283.597656 230.441406 C 292.832031 235.542969 299.175781 243.246094 302.933594 253.089844 C 303.3125 254.089844 303.207031 255.277344 303.324219 256.375 L 302.347656 256.800781 C 301.609375 255.964844 300.726562 255.214844 300.160156 254.273438 C 298.9375 252.253906 297.855469 250.148438 296.757812 248.054688 C 293.457031 241.746094 288.507812 237 282.492188 233.445312 C 274.230469 228.566406 265.859375 229.382812 257.917969 234.183594 C 249.40625 239.324219 244.042969 247.113281 240.800781 256.4375 C 240.378906 257.648438 240.046875 258.890625 239.550781 260.070312 C 239.277344 260.722656 238.753906 261.265625 238.355469 261.835938 C 236.835938 261.011719 237.34375 259.976562 237.546875 259.0625 C 239.105469 251.984375 242.382812 245.75 247 240.234375 C 252.113281 234.125 258.242188 229.574219 266.21875 227.882812 C 272.351562 226.582031 278.179688 227.449219 283.597656 230.441406 Z M 198.0625 240.796875 C 199.011719 241.292969 199.949219 241.875 200.738281 242.589844 C 201.246094 243.046875 201.472656 243.8125 201.820312 244.425781 C 200.332031 245.507812 199.273438 244.785156 198.253906 244.28125 C 192.410156 241.375 186.289062 239.433594 179.792969 238.691406 C 175.253906 238.171875 170.757812 238.324219 166.429688 239.796875 C 158.960938 242.339844 154.746094 247.746094 153.351562 255.476562 C 153.15625 256.539062 152.984375 257.609375 152.734375 258.664062 C 152.488281 259.699219 152.328125 261.058594 150.902344 260.898438 C 149.382812 260.726562 149.660156 259.304688 149.765625 258.296875 C 150.308594 253.113281 151.773438 248.253906 155.117188 244.136719 C 159.238281 239.066406 164.679688 236.28125 171.046875 235.59375 C 180.53125 234.574219 189.578125 236.355469 198.0625 240.796875 Z M 140.148438 220.363281 C 141.605469 220.898438 143.039062 221.605469 144.320312 222.472656 C 145.210938 223.070312 145.832031 224.078125 146.589844 224.929688 C 145.242188 226.035156 144.445312 225.167969 143.636719 224.761719 C 134.730469 220.28125 125.550781 219.96875 116.332031 223.40625 C 106.113281 227.214844 100.714844 235.09375 98.824219 245.585938 C 98.144531 249.34375 97.738281 253.148438 97.167969 256.929688 C 97.015625 257.941406 96.992188 259.066406 95.496094 259.984375 C 95.320312 258.839844 95.03125 257.941406 95.070312 257.058594 C 95.355469 250.472656 96.210938 243.960938 98.550781 237.757812 C 102.503906 227.28125 110.425781 221.480469 121.070312 219.199219 C 127.492188 217.824219 133.917969 218.066406 140.148438 220.363281 Z M 138.75 256.125 C 139.015625 256.238281 139.140625 256.707031 139.496094 257.273438 C 138.796875 258.175781 138.152344 259.085938 137.40625 259.902344 C 137.257812 260.058594 136.632812 259.980469 136.386719 259.792969 C 135.304688 258.96875 135.9375 258.03125 136.417969 257.238281 C 136.921875 256.40625 137.621094 255.648438 138.75 256.125 Z M 142.902344 235.113281 C 143.746094 235.695312 144.808594 236.273438 144.300781 238.226562 C 142.363281 237.597656 140.535156 237.21875 138.902344 236.4375 C 133.554688 233.875 128.371094 234.515625 123.351562 237.15625 C 115.960938 241.042969 111.40625 247.132812 109.613281 255.324219 C 109.304688 256.734375 109.585938 258.480469 107.804688 259.675781 C 107.542969 258.90625 107.210938 258.324219 107.164062 257.722656 C 106.855469 254 107.667969 250.453125 109.394531 247.195312 C 113.457031 239.542969 119.546875 234.285156 128.078125 232.160156 C 133.453125 230.820312 138.398438 231.996094 142.902344 235.113281 Z M 88.894531 254.070312 C 87.574219 254.664062 86.691406 255.207031 85.734375 255.453125 C 84.53125 255.757812 83.273438 255.886719 82.03125 255.960938 C 80.234375 256.074219 78.9375 256.773438 78.175781 258.5 C 77.957031 258.992188 77.3125 259.289062 76.859375 259.675781 C 76.449219 259.105469 75.769531 258.578125 75.671875 257.957031 C 75.433594 256.410156 76.1875 255.152344 77.316406 254.125 C 79.894531 251.785156 85.253906 251.558594 88.894531 254.070312 Z M 140.421875 245.710938 C 141.265625 245.761719 142.066406 246.457031 142.890625 246.859375 L 142.789062 247.894531 C 141.714844 248.113281 140.652344 248.4375 139.570312 248.539062 C 137.441406 248.734375 135.277344 248.640625 133.171875 248.957031 C 128.703125 249.632812 125.828125 252.273438 124.464844 256.59375 C 124.191406 257.449219 123.859375 258.289062 123.472656 259.371094 C 121.648438 258.195312 121.804688 256.863281 122.070312 255.515625 C 122.996094 250.835938 127.445312 246.464844 132.570312 245.699219 C 135.132812 245.316406 137.808594 245.554688 140.421875 245.710938 Z M 81.960938 240.765625 C 84.4375 241.316406 86.835938 242.273438 89.21875 243.171875 C 90.046875 243.480469 90.730469 244.175781 91.363281 244.996094 C 89.253906 245.753906 87.253906 245.625 85.253906 245.226562 C 83.613281 244.902344 81.992188 244.488281 80.34375 244.214844 C 71.972656 242.839844 64.433594 247.453125 61.664062 255.605469 C 61.390625 256.410156 61.050781 257.191406 60.683594 258.136719 C 58.863281 257.421875 58.9375 256.269531 58.984375 255.199219 C 59.132812 251.984375 60.375 249.148438 62.609375 246.945312 C 67.988281 241.625 74.375 239.078125 81.960938 240.765625 Z M 90.457031 231.167969 C 91.542969 231.96875 92.5 232.984375 93.339844 234.042969 C 93.726562 234.527344 93.679688 235.355469 93.832031 236.027344 C 93.566406 236.160156 93.300781 236.289062 93.035156 236.421875 C 92.1875 235.804688 91.335938 235.1875 90.488281 234.570312 C 86.109375 231.40625 81.246094 229.285156 75.84375 229.105469 C 63.21875 228.683594 52.746094 237.054688 50.972656 249.34375 C 50.695312 251.269531 50.375 253.203125 49.917969 255.097656 C 49.710938 255.964844 49.136719 256.746094 48.753906 257.519531 C 47.070312 257.078125 46.871094 256.035156 46.949219 254.917969 C 47.648438 244.890625 51.066406 236.28125 59.835938 230.476562 C 69.074219 224.359375 81.539062 224.613281 90.457031 231.167969 Z M 312.890625 210.847656 C 324.847656 212.394531 334.808594 222.117188 336.660156 234.09375 C 337.742188 241.109375 335.765625 247.546875 332.371094 253.605469 C 331.972656 254.3125 331.261719 254.839844 330.496094 255.667969 C 329.402344 254.050781 329.832031 252.699219 330.179688 251.460938 C 330.734375 249.476562 331.507812 247.554688 332.132812 245.585938 C 336.65625 231.324219 328.558594 217.152344 314.011719 213.953125 C 309.675781 213 305.46875 213.71875 301.375 215.335938 C 300.269531 215.777344 299.089844 216.035156 297.847656 216.40625 C 297.445312 214.273438 298.761719 213.722656 299.8125 213.148438 C 303.902344 210.914062 308.335938 210.257812 312.890625 210.847656 Z M 306.320312 223.296875 C 320.808594 224.101562 327.78125 237.222656 321.921875 248.519531 C 320.964844 250.371094 320.21875 252.484375 317.945312 253.511719 C 316.585938 252.425781 317.082031 251.339844 317.421875 250.367188 C 317.933594 248.898438 318.589844 247.480469 319.203125 246.046875 C 323.378906 236.292969 316.933594 226.738281 305.683594 226.042969 C 304.316406 225.957031 302.941406 225.988281 301.570312 225.9375 C 301.414062 225.929688 301.269531 225.726562 300.859375 225.421875 C 301.25 224.957031 301.558594 224.242188 302.035156 224.105469 C 303.425781 223.695312 304.90625 223.21875 306.320312 223.296875 Z M 303.195312 234.425781 C 306.421875 234.769531 308.96875 236.25 310.378906 239.28125 C 311.722656 242.167969 310.839844 244.84375 309.296875 247.335938 C 308.933594 247.925781 308.003906 248.167969 307.324219 248.574219 C 306.328125 246.964844 306.855469 245.765625 307.214844 244.550781 C 308.566406 239.980469 307.097656 237.679688 302.414062 236.984375 C 301.933594 236.910156 301.449219 236.824219 300.992188 236.667969 C 300.742188 236.582031 300.546875 236.339844 300.242188 236.097656 C 300.660156 234.484375 301.925781 234.289062 303.195312 234.425781 Z M 180.925781 194.742188 C 186.585938 195.996094 191.636719 198.519531 195.976562 202.351562 C 197.207031 203.433594 198.195312 204.824219 199.113281 206.199219 C 199.613281 206.941406 200.191406 207.933594 198.734375 209.273438 C 197.871094 208.445312 197.03125 207.691406 196.253906 206.882812 C 190.28125 200.65625 183.066406 197.125 174.363281 197.035156 C 165.117188 196.941406 157.6875 202.035156 154.363281 210.707031 C 151.636719 217.824219 151.171875 225.191406 152.289062 232.695312 C 152.585938 234.667969 153.246094 236.679688 152.132812 239.015625 C 151.472656 238.527344 150.796875 238.273438 150.550781 237.792969 C 150.15625 237.027344 149.925781 236.128906 149.835938 235.265625 C 148.988281 227.203125 149.128906 219.160156 151.644531 211.398438 C 154.535156 202.488281 160.332031 196.375 169.824219 194.445312 C 173.511719 193.695312 177.25 193.925781 180.925781 194.742188 Z M 224.65625 226.503906 C 228.996094 226.992188 233.097656 227.996094 236.734375 230.472656 C 237.929688 231.285156 239.058594 232.300781 239.953125 233.433594 C 240.535156 234.175781 240.640625 235.300781 241.003906 236.386719 C 239 237.125 238.039062 236.03125 237.105469 235.109375 C 234.523438 232.5625 231.433594 231.046875 227.988281 230.066406 C 221.191406 228.132812 215.292969 229.394531 210.386719 234.714844 C 209.226562 235.976562 207.933594 237.109375 206.601562 238.398438 C 205.707031 236.90625 206.273438 235.945312 206.90625 235.09375 C 211.339844 229.117188 216.902344 225.632812 224.65625 226.503906 Z M 246.984375 228.363281 C 247.515625 229.128906 247.535156 230.242188 247.789062 231.1875 C 245.851562 231.984375 245.007812 230.949219 244.171875 230.003906 C 242.613281 228.242188 241.128906 226.417969 239.554688 224.671875 C 231.039062 215.210938 214.152344 216.707031 207.136719 225.257812 C 204.847656 228.050781 202.78125 231.03125 200.609375 233.925781 C 199.945312 234.808594 199.726562 236.164062 197.5 236.238281 C 197.761719 235.058594 197.796875 234.089844 198.1875 233.296875 C 203.105469 223.332031 210.757812 217.003906 222.085938 215.507812 C 233.425781 214.011719 240.980469 219.710938 246.984375 228.363281 Z M 192.292969 210.820312 C 192.835938 211.261719 193.109375 212.023438 193.488281 212.605469 C 192.414062 213.898438 191.394531 213.519531 190.417969 213.03125 C 189.019531 212.332031 187.65625 211.5625 186.277344 210.828125 C 177.078125 205.957031 166.605469 209.832031 162.859375 219.507812 C 161.289062 223.5625 160.6875 227.773438 160.949219 232.109375 C 161.015625 233.234375 161.351562 234.421875 159.941406 235.625 C 159.503906 234.730469 159.011719 234.042969 158.820312 233.285156 C 156.773438 225.144531 161.167969 213.574219 168.050781 208.914062 C 175.648438 203.773438 185.335938 205.113281 192.292969 210.820312 Z M 254.644531 225.03125 C 254.855469 225.769531 254.914062 226.582031 254.875 227.351562 C 254.855469 227.789062 254.5 228.207031 254.316406 228.585938 C 252.691406 228.726562 252.148438 227.566406 251.636719 226.550781 C 250.839844 224.976562 250.121094 223.347656 249.511719 221.691406 C 245.289062 210.253906 231.679688 202.378906 217.203125 207.527344 C 206.84375 211.210938 199.640625 218.339844 195.03125 228.242188 C 194.242188 229.929688 193.621094 231.699219 192.859375 233.402344 C 192.636719 233.894531 192.195312 234.292969 191.402344 235.316406 C 191.210938 234.011719 190.921875 233.289062 191.054688 232.652344 C 191.347656 231.214844 191.722656 229.765625 192.289062 228.414062 C 196.96875 217.242188 204.820312 209.167969 216.136719 204.925781 C 232.757812 198.699219 249.589844 207.523438 254.644531 225.03125 Z M 186.667969 217.4375 C 187.457031 217.636719 188.152344 218.207031 188.859375 218.585938 C 188.503906 220.121094 187.511719 220.210938 186.542969 220.226562 C 184.886719 220.246094 183.226562 220.164062 181.570312 220.171875 C 175.144531 220.210938 170.453125 224.375 169.5625 230.753906 C 169.421875 231.746094 169.113281 232.71875 168.792969 234.082031 C 166.652344 232.667969 166.890625 231.085938 167.054688 229.703125 C 167.714844 224.144531 170.800781 220.359375 175.808594 218.113281 C 179.332031 216.527344 182.992188 216.5 186.667969 217.4375 Z M 187.007812 226.613281 C 184.730469 229.132812 181.261719 229.121094 179.109375 231.304688 C 177.996094 229.234375 178.121094 228.660156 179.617188 227.378906 C 181.691406 225.601562 184.570312 225.183594 187.007812 226.613281 Z M 282.285156 194.523438 C 290.296875 198.847656 293.945312 206.464844 295.332031 215.140625 C 295.898438 218.671875 295.441406 222.375 295.382812 226 C 295.371094 226.769531 295.199219 227.609375 294.839844 228.273438 C 294.519531 228.871094 293.835938 229.273438 293.3125 229.765625 C 292.890625 229.164062 292.15625 228.585938 292.105469 227.957031 C 291.953125 226.003906 291.949219 224.019531 292.089844 222.0625 C 292.445312 217.035156 291.417969 212.316406 289.40625 207.734375 C 285.945312 199.855469 279.660156 195.707031 271.613281 193.925781 C 265.070312 192.480469 258.585938 192.960938 252.40625 195.535156 C 249.75 196.644531 247.394531 198.484375 244.90625 200.003906 C 244.1875 200.445312 243.492188 200.929688 242.730469 201.429688 C 241.726562 200.078125 242.445312 199.097656 243.175781 198.4375 C 244.910156 196.875 246.617188 195.117188 248.65625 194.101562 C 259.890625 188.507812 271.253906 188.574219 282.285156 194.523438 Z M 280.105469 208.179688 C 283.71875 212.203125 285.234375 217.011719 285.117188 222.371094 C 285.089844 223.578125 284.613281 224.773438 284.253906 226.371094 C 282.15625 225.144531 282.273438 223.644531 282.078125 222.339844 C 281.875 220.972656 281.96875 219.554688 281.71875 218.195312 C 280.25 210.273438 273.125 204.0625 265.007812 203.574219 C 259.820312 203.265625 254.902344 204.183594 250.355469 206.863281 C 249.648438 207.277344 248.859375 207.546875 247.480469 208.160156 C 247.8125 206.882812 247.796875 206.140625 248.15625 205.738281 C 248.796875 205.019531 249.601562 204.390625 250.445312 203.917969 C 259.617188 198.816406 272.507812 199.710938 280.105469 208.179688 Z M 100.621094 218.355469 C 99.324219 218.355469 98.085938 218.363281 96.84375 218.351562 C 93.917969 218.324219 92.949219 219.421875 93.371094 222.304688 C 93.484375 223.074219 93.621094 223.835938 93.707031 224.605469 C 93.726562 224.773438 93.582031 224.960938 93.511719 225.136719 C 91.328125 224.730469 90.265625 223.023438 90.460938 220.246094 C 90.664062 217.359375 92.949219 215.105469 95.8125 214.96875 C 98.339844 214.847656 100.199219 216.03125 100.621094 218.355469 Z M 94.152344 188.855469 C 98.863281 190.542969 102.792969 193.359375 105.703125 197.503906 C 106.417969 198.519531 107.21875 199.585938 106.523438 201.046875 C 104.902344 200.898438 103.9375 199.75 102.808594 198.847656 C 100.519531 197.019531 98.328125 195.019531 95.847656 193.5 C 88.933594 189.253906 82.34375 190.984375 78.105469 197.96875 C 74.675781 203.621094 73.890625 209.695312 75.34375 216.109375 C 75.753906 217.925781 76.195312 219.738281 76.511719 221.574219 C 76.609375 222.144531 76.339844 222.78125 76.238281 223.382812 C 76.023438 223.453125 75.8125 223.527344 75.597656 223.597656 C 74.9375 222.71875 74.054688 221.933594 73.65625 220.949219 C 69.714844 211.246094 70.648438 202.066406 77.132812 193.773438 C 80.976562 188.855469 86.867188 186.238281 94.152344 188.855469 Z M 261.203125 210.359375 C 265.382812 210.585938 268.761719 212.457031 270.527344 216.390625 C 271.484375 218.523438 272.390625 220.945312 270.160156 223.597656 C 269.480469 222.722656 268.890625 222.140625 268.527344 221.441406 C 268.171875 220.757812 268.046875 219.957031 267.8125 219.207031 C 266.386719 214.582031 262.574219 212.351562 257.847656 213.371094 C 257.183594 213.515625 256.527344 213.691406 255.855469 213.777344 C 255.59375 213.8125 255.308594 213.644531 254.578125 213.449219 C 256.207031 210.566406 258.691406 210.222656 261.203125 210.359375 Z M 265.066406 222.324219 C 263 222.613281 259.605469 221.230469 258.757812 219.753906 C 258.289062 218.933594 258.824219 218.164062 259.933594 218.058594 C 262.144531 217.847656 264.675781 219.949219 265.066406 222.324219 Z M 92.519531 201.734375 C 95.308594 201.957031 97.832031 203.03125 100.078125 204.652344 C 100.839844 205.199219 101.273438 206.214844 101.855469 207.015625 C 101.710938 207.226562 101.566406 207.433594 101.425781 207.644531 C 100.4375 207.433594 99.421875 207.304688 98.464844 206.992188 C 96.796875 206.449219 95.195312 205.6875 93.515625 205.199219 C 89.109375 203.914062 85.089844 206.386719 84.523438 211.015625 C 84.21875 213.511719 84.664062 216.105469 84.804688 218.652344 C 84.875 219.875 85.03125 221.089844 85.152344 222.34375 C 83.492188 222.511719 83.128906 221.5 82.753906 220.632812 C 81.128906 216.890625 80.71875 212.976562 81.742188 209.035156 C 82.953125 204.378906 87.554688 201.339844 92.519531 201.734375 Z M 143.820312 185.300781 C 148.90625 187.183594 152.882812 190.613281 156.121094 194.914062 C 156.902344 195.949219 157.820312 197.0625 157.167969 198.886719 C 155.132812 198.515625 153.964844 197.359375 152.753906 196.238281 C 150.816406 194.449219 148.96875 192.53125 146.863281 190.96875 C 139.269531 185.332031 129.082031 185.5625 122.242188 191.453125 C 119.328125 193.960938 116.980469 196.949219 115.285156 200.441406 C 113.296875 204.539062 112.164062 208.859375 111.816406 213.402344 C 111.722656 214.625 111.445312 215.835938 111.238281 217.121094 C 109.246094 216.878906 108.898438 215.648438 108.957031 214.351562 C 109.066406 211.914062 109.140625 209.441406 109.605469 207.0625 C 111 199.90625 114.4375 193.820312 119.976562 189.109375 C 127.105469 183.050781 135.199219 182.109375 143.820312 185.300781 Z M 139.351562 197.152344 C 142.746094 198.117188 145.3125 200.429688 147.605469 203.019531 C 148.082031 203.558594 148.289062 204.339844 148.75 205.265625 C 146.851562 205.914062 145.816406 205.058594 144.773438 204.410156 C 143.28125 203.484375 141.882812 202.402344 140.382812 201.484375 C 136.371094 199.03125 132.359375 199.300781 128.679688 202.226562 C 126.570312 203.90625 124.988281 206.003906 123.960938 208.496094 C 123.480469 209.667969 123.160156 210.902344 122.761719 212.109375 C 122.449219 213.0625 122.570312 214.636719 121.058594 214.296875 C 119.753906 214.003906 120.078125 212.558594 120.132812 211.523438 C 120.515625 204.160156 126.597656 197.40625 133.886719 196.523438 C 135.664062 196.308594 137.605469 196.652344 139.351562 197.152344 Z M 142.890625 209.03125 C 138.515625 210.164062 134.644531 211.167969 130.722656 212.183594 C 129.933594 211.414062 130.226562 210.597656 130.785156 209.804688 C 132.816406 206.925781 139.4375 206.226562 142.890625 209.03125 Z M 337.796875 183.679688 C 338.40625 187.175781 338.304688 190.710938 337.5 194.199219 C 336.234375 199.6875 334.214844 204.871094 331.167969 209.621094 L 331.089844 209.746094 C 330.339844 210.921875 329.570312 212.199219 327.675781 211.804688 C 327.132812 210.332031 327.953125 209.160156 328.488281 207.945312 C 330.214844 203.996094 332.113281 200.117188 333.644531 196.09375 C 335.496094 191.214844 335.792969 186.144531 334.382812 181.066406 C 331.46875 170.570312 320.265625 163.527344 309.554688 165.582031 C 306.898438 166.09375 304.359375 167.207031 301.769531 168.046875 C 301.070312 168.277344 300.371094 168.519531 299.324219 168.871094 C 299.199219 166.714844 300.402344 165.996094 301.5 165.554688 C 303.839844 164.609375 306.238281 163.628906 308.707031 163.195312 C 322.011719 160.859375 335.46875 170.359375 337.796875 183.679688 Z M 319.851562 180.089844 C 325.480469 183.730469 327.863281 189.902344 326.308594 196.421875 C 325.566406 199.539062 323.921875 202.195312 322.089844 204.75 C 321.628906 205.390625 320.855469 205.804688 320.222656 206.324219 C 320.003906 206.199219 319.785156 206.078125 319.566406 205.953125 C 319.777344 204.980469 319.875 203.96875 320.222656 203.046875 C 320.707031 201.769531 321.332031 200.539062 321.972656 199.328125 C 325.957031 191.785156 323.414062 182.496094 312.410156 179.777344 C 309.84375 179.144531 307.207031 178.8125 304.527344 179.394531 C 303.65625 179.582031 302.691406 179.363281 301.167969 179.308594 C 302.582031 177.285156 304.085938 177.027344 305.496094 176.875 C 310.628906 176.316406 315.484375 177.261719 319.851562 180.089844 Z M 310.027344 191.257812 C 312.378906 193.398438 312.921875 196.269531 311.472656 199.480469 C 311 200.527344 310.417969 201.582031 309.65625 202.4375 C 309.230469 202.914062 308.335938 202.988281 307.652344 203.242188 C 307.472656 202.554688 307.054688 201.824219 307.171875 201.1875 C 307.363281 200.164062 307.910156 199.203125 308.292969 198.210938 C 309.617188 194.792969 308.117188 192.429688 304.417969 192.210938 C 302.773438 192.113281 301.121094 192.195312 299.53125 192.195312 C 298.898438 190.796875 299.765625 190.265625 300.65625 189.800781 C 303.390625 188.382812 307.605469 189.050781 310.027344 191.257812 Z M 203.496094 180.050781 C 210.097656 181.179688 214.804688 187.585938 214.761719 195.09375 C 214.753906 196.617188 215.03125 198.277344 213.449219 200.15625 C 212.90625 199.148438 212.429688 198.546875 212.253906 197.867188 C 211.957031 196.722656 211.855469 195.527344 211.664062 194.355469 C 211.519531 193.476562 211.421875 192.582031 211.191406 191.722656 C 209.113281 183.921875 203.773438 181.378906 196.429688 183.015625 C 192.886719 183.804688 190.066406 185.953125 187.53125 188.5 C 186.792969 189.238281 186.03125 189.949219 185.292969 190.660156 C 184.183594 189.789062 184.511719 189.039062 184.953125 188.402344 C 189.59375 181.691406 196.859375 178.917969 203.496094 180.050781 Z M 201.253906 192.238281 C 203.90625 193.152344 205.871094 195.789062 205.828125 199.234375 C 204.527344 198.222656 203.527344 197.664062 202.804688 196.847656 C 201.125 194.941406 199.199219 194.007812 196.667969 194.628906 C 196.421875 194.691406 196.121094 194.535156 195.867188 194.484375 C 195.332031 193.523438 195.867188 192.953125 196.546875 192.539062 C 198.050781 191.621094 199.628906 191.679688 201.253906 192.238281 Z M 225.351562 191.855469 C 225.675781 193.285156 225.828125 194.769531 225.882812 196.230469 C 225.914062 197.121094 225.597656 198.027344 225.441406 198.925781 C 223.667969 198.792969 223.363281 197.691406 223.09375 196.671875 C 222.691406 195.15625 222.40625 193.609375 222.09375 192.074219 C 219.847656 181.09375 209.691406 172.507812 199.113281 173.140625 C 188.722656 173.761719 180.949219 178.589844 176.820312 188.574219 C 176.457031 189.453125 176.414062 191.183594 174.953125 190.675781 C 173.4375 190.144531 174.21875 188.628906 174.542969 187.582031 C 175.976562 182.910156 178.816406 179.140625 182.710938 176.367188 C 201.089844 163.28125 221.273438 173.941406 225.351562 191.855469 Z M 272.703125 150.144531 C 282.941406 151.503906 291.078125 156.398438 295.289062 166.222656 C 299.398438 175.824219 297.414062 184.839844 291.589844 193.195312 C 291.257812 193.671875 290.804688 194.070312 290.359375 194.453125 C 290.160156 194.625 289.851562 194.664062 289.199219 194.914062 C 288.773438 192.757812 289.726562 191.21875 290.496094 189.683594 C 292.167969 186.328125 293.546875 182.902344 293.972656 179.132812 C 295.179688 168.433594 289.933594 159.183594 280.09375 154.953125 C 271.277344 151.164062 262.929688 151.984375 255.164062 157.777344 C 254.539062 158.246094 253.890625 158.683594 253.230469 159.105469 C 253.09375 159.191406 252.871094 159.140625 252.429688 159.171875 C 252.46875 158.632812 252.3125 157.980469 252.570312 157.65625 C 253.539062 156.445312 254.507812 155.164062 255.722656 154.230469 C 260.75 150.359375 266.65625 149.34375 272.703125 150.144531 Z M 232.113281 180.742188 C 238.578125 181.140625 241.828125 187.601562 241.242188 192.550781 C 241.203125 192.902344 240.914062 193.226562 240.675781 193.683594 C 238.898438 193.492188 238.550781 192.320312 238.132812 191.25 C 237.671875 190.074219 237.371094 188.832031 236.847656 187.683594 C 235.308594 184.324219 232.5625 183.070312 228.910156 183.929688 C 228.089844 184.121094 227.246094 184.21875 226.417969 184.359375 C 225.785156 182.777344 226.585938 181.914062 227.574219 181.574219 C 229.019531 181.082031 230.613281 180.648438 232.113281 180.742188 Z M 240.832031 171.421875 C 247.605469 175.144531 251.550781 183.542969 248.707031 188.746094 C 247.0625 187.078125 246.632812 185.171875 246.078125 183.335938 C 245.222656 180.496094 244.019531 177.890625 241.757812 175.863281 C 238.132812 172.617188 234.023438 171.492188 229.402344 173.105469 C 227.226562 173.863281 225.179688 175.011719 223.082031 175.996094 C 222.210938 176.402344 221.328125 177.066406 220.640625 175.75 C 223.722656 169.972656 234.144531 167.746094 240.832031 171.421875 Z M 283.671875 172.5625 C 284.925781 177.179688 283.789062 181.46875 281.832031 185.628906 C 281.632812 186.054688 281.273438 186.421875 280.933594 186.765625 C 280.742188 186.957031 280.441406 187.035156 280.113281 187.207031 C 278.804688 186.589844 279.070312 185.507812 279.335938 184.480469 C 279.742188 182.871094 280.265625 181.289062 280.652344 179.675781 C 281.25 177.167969 281.398438 174.667969 280.5 172.164062 C 278.144531 165.59375 271.871094 162.609375 264.878906 164.761719 C 263.457031 165.203125 262.027344 165.613281 260.480469 166.074219 C 260.207031 164.230469 261.328125 163.820312 262.203125 163.335938 C 269.109375 159.539062 280.730469 161.742188 283.671875 172.5625 Z M 262.582031 182.078125 C 262.648438 184.429688 262.585938 184.628906 261.261719 186.589844 C 259.699219 185.910156 259.449219 184.667969 259.234375 183.390625 C 258.84375 181.0625 258.585938 178.699219 258.011719 176.421875 C 255.378906 165.972656 246.664062 158.796875 235.980469 158.386719 C 231.609375 158.21875 227.472656 159.425781 223.589844 161.464844 C 219.828125 163.441406 216.5625 166.078125 213.554688 169.074219 C 212.75 169.878906 211.890625 171.695312 210.566406 170.363281 C 209.453125 169.246094 210.828125 167.972656 211.636719 167.097656 C 217.050781 161.265625 223.484375 157.296875 231.425781 155.851562 C 247.058594 153 262.117188 165.425781 262.582031 182.078125 Z M 169.246094 181.800781 C 169.980469 182.007812 170.601562 182.644531 171.273438 183.085938 C 171.238281 183.339844 171.199219 183.59375 171.164062 183.851562 C 169.992188 184.121094 168.839844 184.496094 167.65625 184.625 C 166.597656 184.742188 165.515625 184.546875 164.441406 184.558594 L 164.03125 184.5625 C 161.925781 184.589844 159.84375 184.667969 158.03125 186.113281 C 157.640625 186.425781 156.835938 186.199219 156.21875 186.222656 C 156.238281 185.578125 156.003906 184.703125 156.328125 184.339844 C 157.148438 183.410156 158.105469 182.417969 159.210938 181.972656 C 162.492188 180.65625 165.898438 180.855469 169.246094 181.800781 Z M 272.847656 172.738281 C 274.746094 174.929688 275.265625 180.535156 273.746094 183.03125 C 273.527344 183.386719 273.015625 183.558594 272.644531 183.8125 C 271.335938 182.949219 271.570312 181.703125 271.503906 180.578125 C 271.417969 179.21875 271.492188 177.835938 271.296875 176.496094 C 270.960938 174.25 270.152344 173.523438 267.945312 173.089844 C 267.160156 172.933594 266.378906 172.738281 265.066406 172.441406 C 267.957031 170.121094 270.882812 170.46875 272.847656 172.738281 Z M 180.492188 158.738281 C 183.21875 160.605469 185.289062 163.066406 186.925781 165.910156 C 187.789062 167.410156 187.777344 167.574219 187.304688 169.480469 C 185.953125 169.761719 185.152344 168.875 184.386719 168 C 183.550781 167.039062 182.792969 166.007812 181.976562 165.027344 C 176.425781 158.371094 169.027344 156.308594 160.851562 157.253906 C 148.183594 158.722656 140.460938 166.726562 135.332031 177.8125 C 134.660156 179.269531 134.511719 181.058594 132.242188 182.578125 C 132.207031 181.070312 131.941406 180.089844 132.207031 179.289062 C 133.007812 176.875 133.746094 174.378906 134.988281 172.191406 C 140.332031 162.792969 147.898438 156.140625 158.863281 154.375 C 166.535156 153.140625 173.898438 154.214844 180.492188 158.738281 Z M 168.316406 169.851562 C 169.847656 170.484375 171.402344 171.085938 172.871094 171.847656 C 173.75 172.300781 174.484375 173.035156 175.285156 173.640625 C 175.207031 173.871094 175.128906 174.097656 175.050781 174.324219 C 174.347656 174.371094 173.609375 174.578125 172.949219 174.429688 C 170.953125 173.976562 168.925781 173.542969 167.027344 172.8125 C 160.183594 170.175781 152.183594 171.863281 147.261719 178.71875 C 147.003906 179.074219 146.566406 179.300781 145.949219 179.804688 C 144.8125 177.878906 145.519531 176.585938 146.363281 175.398438 C 148.28125 172.683594 150.933594 170.863281 154.011719 169.726562 C 158.769531 167.96875 163.566406 167.890625 168.316406 169.851562 Z M 168.316406 169.851562 " fill-opacity="1" fill-rule="evenodd"/></g></g></g></svg>